<?xml version="1.0" encoding="utf-8"?>
<!-- Generator: Adobe Illustrator 21.0.2, SVG Export Plug-In . SVG Version: 6.00 Build 0)  -->
<svg version="1.1" id="Camada_1" xmlns="http://www.w3.org/2000/svg" xmlns:xlink="http://www.w3.org/1999/xlink" x="0px" y="0px"
	 viewBox="0 0 215 215" style="enable-background:new 0 0 215 215;" xml:space="preserve">
<style type="text/css">
	.st0{fill:#4F4C3F;}
	.st1{fill:#D0AE36;}
</style>
<g>
	<g>
		<polygon class="st0" points="179.2,53.3 179.2,21.4 215,0 215,32 		"/>
		<polygon class="st1" points="143.4,0 143.4,32 179.2,53.3 179.2,21.4 		"/>
		<polygon class="st0" points="107.5,53.3 107.5,21.4 143.3,0 143.3,32 		"/>
		<polygon class="st1" points="71.7,0 71.7,32 107.5,53.3 107.5,21.4 		"/>
		<polygon class="st0" points="35.8,53.3 35.8,21.4 71.6,0 71.6,32 		"/>
		<polygon class="st1" points="0,0 0,32 35.8,53.3 35.8,21.4 		"/>
	</g>
	<g>
		<polygon class="st1" points="179.2,53.6 179.2,85.5 215,106.9 215,74.9 		"/>
		<polygon class="st0" points="143.4,106.9 143.4,74.9 179.2,53.6 179.2,85.5 		"/>
		<polygon class="st1" points="107.5,53.6 107.5,85.5 143.3,106.9 143.3,74.9 		"/>
		<polygon class="st0" points="71.7,106.9 71.7,74.9 107.5,53.6 107.5,85.5 		"/>
		<polygon class="st1" points="35.8,53.6 35.8,85.5 71.6,106.9 71.6,74.9 		"/>
		<polygon class="st0" points="0,106.9 0,74.9 35.8,53.6 35.8,85.5 		"/>
	</g>
	<g>
		<polygon class="st0" points="179.2,161.4 179.2,129.5 215,108.1 215,140.1 		"/>
		<polygon class="st1" points="143.4,108.1 143.4,140.1 179.2,161.4 179.2,129.5 		"/>
		<polygon class="st0" points="107.5,161.4 107.5,129.5 143.3,108.1 143.3,140.1 		"/>
		<polygon class="st1" points="71.7,108.1 71.7,140.1 107.5,161.4 107.5,129.5 		"/>
		<polygon class="st0" points="35.8,161.4 35.8,129.5 71.6,108.1 71.6,140.1 		"/>
		<polygon class="st1" points="0,108.1 0,140.1 35.8,161.4 35.8,129.5 		"/>
	</g>
	<g>
		<polygon class="st1" points="179.2,161.7 179.2,193.6 215,215 215,183 		"/>
		<polygon class="st0" points="143.4,215 143.4,183 179.2,161.7 179.2,193.6 		"/>
		<polygon class="st1" points="107.5,161.7 107.5,193.6 143.3,215 143.3,183 		"/>
		<polygon class="st0" points="71.7,215 71.7,183 107.5,161.7 107.5,193.6 		"/>
		<polygon class="st1" points="35.8,161.7 35.8,193.6 71.6,215 71.6,183 		"/>
		<polygon class="st0" points="0,215 0,183 35.8,161.7 35.8,193.6 		"/>
	</g>
</g>
</svg>
