<?xml version="1.0" encoding="utf-8"?>
<!-- Generator: Adobe Illustrator 21.0.2, SVG Export Plug-In . SVG Version: 6.00 Build 0)  -->
<svg version="1.1" id="Camada_1" xmlns="http://www.w3.org/2000/svg" xmlns:xlink="http://www.w3.org/1999/xlink" x="0px" y="0px"
	 viewBox="0 0 215 215" style="enable-background:new 0 0 215 215;" xml:space="preserve">
<style type="text/css">
	.st0{opacity:0.5;}
	.st1{fill:#D0AE36;}
	.st2{fill:#4F4C3F;}
</style>
<g id="Novo_símbolo">
	<g class="st0">
		<path class="st1" d="M65.7,31.7c0,0-6.7,3.3-6.8,9.9c-0.1,6.5,11.4,9.6,9.9,15.9c0,0,5.6-2.4,1.9-7.9c0,0,1.2-0.2,1.3-2.2
			c0.1-2-4.6-1.9-4.6-1.9s3.4-1.6,2.6-4.2c0,0-2.1,2.7-4.5,1c-2.4-1.7-4.3-6.4,2.1-9.4L65.7,31.7z"/>
		<path class="st1" d="M32,65.4c0,0,3.3-6.7,9.9-6.8c6.5-0.1,9.6,11.4,15.9,9.9c0,0-2.4,5.6-7.9,1.9c0,0-0.2,1.2-2.2,1.3
			c-2,0.1-1.9-4.6-1.9-4.6s-1.6,3.4-4.2,2.6c0,0,2.7-2.1,1-4.5c-1.7-2.4-6.4-4.3-9.4,2.1L32,65.4z"/>
		<path class="st1" d="M25,28.7c0,0,4.9,5.7,2.4,11.8c-2.5,6-14.2,4.3-15.4,10.7c0,0-4.2-4.4,1.3-8c0,0-1-0.6-0.3-2.5
			c0.7-1.9,4.9,0.1,4.9,0.1s-2.5-2.8-0.7-4.8c0,0,0.9,3.3,3.7,2.6c2.9-0.7,6.4-4.2,1.8-9.5L25,28.7z"/>
		<path class="st1" d="M29,24.7c0,0,5.7,4.9,11.8,2.4c6-2.5,4.3-14.2,10.7-15.4c0,0-4.4-4.2-8,1.3c0,0-0.6-1-2.5-0.3
			c-1.9,0.7,0.1,5,0.1,5s-2.8-2.5-4.8-0.7c0,0,3.3,0.9,2.6,3.7c-0.7,2.9-4.2,6.4-9.5,1.8L29,24.7z"/>
		<path class="st1" d="M149.3,31.7c0,0,6.7,3.3,6.8,9.9c0.1,6.5-11.4,9.6-9.9,15.9c0,0-5.6-2.4-1.9-7.9c0,0-1.2-0.2-1.3-2.2
			c-0.1-2,4.6-1.9,4.6-1.9s-3.4-1.6-2.6-4.2c0,0,2.1,2.7,4.5,1c2.4-1.7,4.3-6.4-2.1-9.4L149.3,31.7z"/>
		<path class="st1" d="M183,65.4c0,0-3.3-6.7-9.9-6.8c-6.5-0.1-9.6,11.4-15.9,9.9c0,0,2.4,5.6,7.9,1.9c0,0,0.2,1.2,2.2,1.3
			c2,0.1,1.9-4.6,1.9-4.6s1.6,3.4,4.2,2.6c0,0-2.7-2.1-1-4.5c1.7-2.4,6.4-4.3,9.4,2.1L183,65.4z"/>
		<path class="st1" d="M190,28.7c0,0-4.9,5.7-2.4,11.8c2.5,6,14.2,4.3,15.4,10.7c0,0,4.2-4.4-1.3-8c0,0,1-0.6,0.3-2.5
			c-0.7-1.9-4.9,0.1-4.9,0.1s2.5-2.8,0.7-4.8c0,0-0.9,3.3-3.7,2.6c-2.9-0.7-6.4-4.2-1.8-9.5L190,28.7z"/>
		<path class="st1" d="M186,24.7c0,0-5.7,4.9-11.8,2.4c-6-2.5-4.3-14.2-10.7-15.4c0,0,4.4-4.2,8,1.3c0,0,0.6-1,2.5-0.3
			c1.9,0.7-0.1,5-0.1,5s2.8-2.5,4.8-0.7c0,0-3.3,0.9-2.6,3.7c0.7,2.9,4.2,6.4,9.5,1.8L186,24.7z"/>
		<path class="st1" d="M65.7,183.3c0,0-6.7-3.3-6.8-9.9c-0.1-6.5,11.4-9.6,9.9-15.9c0,0,5.6,2.4,1.9,7.9c0,0,1.2,0.2,1.3,2.2
			c0.1,2-4.6,1.9-4.6,1.9s3.4,1.6,2.6,4.2c0,0-2.1-2.7-4.5-1c-2.4,1.7-4.3,6.4,2.1,9.4L65.7,183.3z"/>
		<path class="st1" d="M32,149.6c0,0,3.3,6.7,9.9,6.8c6.5,0.1,9.6-11.4,15.9-9.9c0,0-2.4-5.6-7.9-1.9c0,0-0.2-1.2-2.2-1.3
			c-2-0.1-1.9,4.6-1.9,4.6s-1.6-3.4-4.2-2.6c0,0,2.7,2.1,1,4.5c-1.7,2.4-6.4,4.3-9.4-2.1L32,149.6z"/>
		<path class="st1" d="M29,190.3c0,0,5.7-4.9,11.8-2.4c6,2.5,4.3,14.2,10.7,15.4c0,0-4.4,4.2-8-1.3c0,0-0.6,1-2.5,0.3
			c-1.9-0.7,0.1-5,0.1-5s-2.8,2.5-4.8,0.7c0,0,3.3-0.9,2.6-3.7c-0.7-2.9-4.2-6.4-9.5-1.8L29,190.3z"/>
		<path class="st1" d="M149.3,183.3c0,0,6.7-3.3,6.8-9.9c0.1-6.5-11.4-9.6-9.9-15.9c0,0-5.6,2.4-1.9,7.9c0,0-1.2,0.2-1.3,2.2
			c-0.1,2,4.6,1.9,4.6,1.9s-3.4,1.6-2.6,4.2c0,0,2.1-2.7,4.5-1c2.4,1.7,4.3,6.4-2.1,9.4L149.3,183.3z"/>
		<path class="st1" d="M183,149.6c0,0-3.3,6.7-9.9,6.8c-6.5,0.1-9.6-11.4-15.9-9.9c0,0,2.4-5.6,7.9-1.9c0,0,0.2-1.2,2.2-1.3
			c2-0.1,1.9,4.6,1.9,4.6s1.6-3.4,4.2-2.6c0,0-2.7,2.1-1,4.5c1.7,2.4,6.4,4.3,9.4-2.1L183,149.6z"/>
		<path class="st1" d="M190,186.3c0,0-4.9-5.7-2.4-11.8c2.5-6,14.2-4.3,15.4-10.7c0,0,4.2,4.4-1.3,8c0,0,1,0.6,0.3,2.5
			c-0.7,1.9-4.9-0.1-4.9-0.1s2.5,2.8,0.7,4.8c0,0-0.9-3.3-3.7-2.6c-2.9,0.7-6.4,4.2-1.8,9.5L190,186.3z"/>
		<path class="st1" d="M186,190.3c0,0-5.7-4.9-11.8-2.4c-6,2.5-4.3,14.2-10.7,15.4c0,0,4.4,4.2,8-1.3c0,0,0.6,1,2.5,0.3
			c1.9-0.7-0.1-5-0.1-5s2.8,2.5,4.8,0.7c0,0-3.3-0.9-2.6-3.7c0.7-2.9,4.2-6.4,9.5-1.8L186,190.3z"/>
		<g>
			<path class="st1" d="M83.6,68.6c-6.4,1.2-4.7,6.6-4.7,6.6c-2.5-5.9-7-4.3-7.6-4.1c0,0,0,0,0,0c0,0,0,0,0,0
				c-0.2,0.6-1.9,5,4.1,7.6c0,0-5.4-1.7-6.6,4.7c0,0,7.5-2.6,17.3,2.5c0,0,0.2,0.1,0.1,0.1c0,0-0.1-0.1-0.1-0.1
				C81,76.2,83.6,68.6,83.6,68.6z"/>
		</g>
		<g>
			<path class="st1" d="M68.7,131.8c1.2,6.4,6.6,4.7,6.6,4.7c-5.9,2.5-4.3,7-4.1,7.6c0,0,0,0,0,0c0,0,0,0,0,0c0.6,0.2,5,1.9,7.6-4.1
				c0,0-1.7,5.4,4.7,6.6c0,0-2.6-7.5,2.5-17.3c0,0,0.1-0.2,0.1-0.1c0,0-0.1,0.1-0.1,0.1C76.3,134.4,68.7,131.8,68.7,131.8z"/>
		</g>
		<g>
			<path class="st1" d="M131.9,146.7c6.4-1.2,4.7-6.6,4.7-6.6c2.5,5.9,7,4.3,7.6,4.1c0,0,0,0,0,0c0,0,0,0,0,0c0.2-0.6,1.9-5-4.1-7.6
				c0,0,5.4,1.7,6.6-4.7c0,0-7.5,2.6-17.3-2.5c0,0-0.2-0.1-0.1-0.1c0,0,0.1,0.1,0.1,0.1C134.5,139.1,131.9,146.7,131.9,146.7z"/>
		</g>
		<g>
			<path class="st1" d="M146.8,83.5c-1.2-6.4-6.6-4.7-6.6-4.7c5.9-2.5,4.3-7,4.1-7.6c0,0,0,0,0,0c0,0,0,0,0,0
				c-0.6-0.2-5-1.9-7.6,4.1c0,0,1.7-5.4-4.7-6.6c0,0,2.6,7.5-2.5,17.3c0,0-0.1,0.2-0.1,0.1c0,0,0.1-0.1,0.1-0.1
				C139.2,80.9,146.8,83.5,146.8,83.5z"/>
		</g>
		
			<ellipse transform="matrix(1 -4.870688e-03 4.870688e-03 1 -0.5231 0.5261)" class="st1" cx="107.8" cy="107.7" rx="9.1" ry="9.1"/>
		<path class="st1" d="M145.1,79.4c-1-0.8-2.2-1-3.5-1c0.2-0.1,0.4-0.3,0.6-0.4c1-0.7,1.8-1.7,2.4-2.8c0.4-0.8,0.8-3.1,0-4
			c0-0.1,0-0.1-0.1-0.2c-1.2-1.2-3.6-0.6-4.8,0c-0.9,0.5-2.1,1.6-2.7,2.7c0-1.2-0.5-2.4-1.3-3.2c-0.9-0.9-2.4-2.4-3.9-1.9
			c0,0,0,0,0,0c0,0,0,0,0,0c-0.2,0-0.2,0.2-0.1,0.3c0,0,0,0,0,0c0,0,0,0,0,0c0,0,0.1,0,0.1,0.1c0,0-0.1,0-0.1,0c0,0,0.1,0.1,0.2,0.3
			c0.4,0.8,0.4,1.7,0.5,2.5c0.2,1.3-0.1,2.7-0.1,4.1c0,2.1-0.6,4.1-1.2,6.1c0,0.1,0.1,0.1,0.1,0c0.7-1.9,1.6-3.9,1.6-5.9
			c0-1.4,0.2-2.8,0.1-4.3c0-0.6-0.2-1.2-0.3-1.8c-0.1-0.2-0.4-0.6-0.5-0.9c0.3,0.1,0.6,0.1,0.8,0.2c0.9,0.2,1.6,0.8,2.2,1.4
			c1.3,1.4,1.4,2.8,1.4,4.6c0,0.2,0.3,0.3,0.4,0.1c0-0.1,0-0.1,0-0.2c0.2-0.2,0.4-0.6,0.5-0.8c0.4-0.6,1-1.2,1.5-1.8
			c1.2-1.4,3.3-1.6,5-1c0.5,1.3,0.6,2.4,0,3.8c-0.6,1.2-2.1,3-3.4,3.3c-0.1,0-0.1,0.1-0.1,0.1c0,0,0,0,0,0c0,0,0,0,0,0
			c-0.1,0-0.2,0.1-0.2,0.2c0,0,0,0,0,0c0,0,0,0,0,0s0,0,0,0c0,0,0,0,0,0c0,0.1,0.1,0.2,0.2,0.2c0,0,0,0,0,0c1.6,0.2,2.8-0.2,4.3,0.8
			c1.1,0.8,1.6,2,1.9,3.2c-0.8-0.2-1.6-0.3-2.5-0.5c-1.2-0.2-2.5,0-3.8,0c-2.3,0-5.5,0.7-7.4,2c0,0,0,0.1,0,0
			c2.3-0.9,4.9-1.2,7.4-1.5c2.2-0.3,4.3,0.2,6.4,0.7c0,0,0.1,0,0.2,0c0,0,0,0,0,0c0.3,0,0.4-0.3,0.3-0.5
			C147.3,81.9,146.1,80.2,145.1,79.4z"/>
		<path class="st1" d="M70.4,79.4c1-0.8,2.2-1,3.5-1c-0.2-0.1-0.4-0.3-0.6-0.4c-1-0.7-1.8-1.7-2.4-2.8c-0.4-0.8-0.8-3.1,0-4
			c0-0.1,0-0.1,0.1-0.2c1.2-1.2,3.6-0.6,4.8,0c0.9,0.5,2.1,1.6,2.7,2.7c0-1.2,0.5-2.4,1.3-3.2c0.9-0.9,2.4-2.4,3.9-1.9c0,0,0,0,0,0
			c0,0,0,0,0,0c0.2,0,0.2,0.2,0.1,0.3c0,0,0,0,0,0c0,0,0,0,0,0c0,0-0.1,0-0.1,0.1c0,0,0.1,0,0.1,0c0,0-0.1,0.1-0.2,0.3
			c-0.4,0.8-0.4,1.7-0.5,2.5c-0.2,1.3,0.1,2.7,0.1,4.1c0,2.1,0.6,4.1,1.2,6.1c0,0.1-0.1,0.1-0.1,0c-0.7-1.9-1.6-3.9-1.6-5.9
			c0-1.4-0.2-2.8-0.1-4.3c0-0.6,0.2-1.2,0.3-1.8c0.1-0.2,0.4-0.6,0.5-0.9c-0.3,0.1-0.6,0.1-0.8,0.2c-0.9,0.2-1.6,0.8-2.2,1.4
			c-1.3,1.4-1.4,2.8-1.4,4.6c0,0.2-0.3,0.3-0.4,0.1c0-0.1,0-0.1,0-0.2c-0.2-0.2-0.4-0.6-0.5-0.8c-0.4-0.6-1-1.2-1.5-1.8
			c-1.2-1.4-3.3-1.6-5-1c-0.5,1.3-0.6,2.4,0,3.8c0.6,1.2,2.1,3,3.4,3.3c0.1,0,0.1,0.1,0.1,0.1c0,0,0,0,0,0c0,0,0,0,0,0
			c0.1,0,0.2,0.1,0.2,0.2c0,0,0,0,0,0c0,0,0,0,0,0c0,0,0,0,0,0c0,0,0,0,0,0c0,0.1-0.1,0.2-0.2,0.2c0,0,0,0,0,0
			c-1.6,0.2-2.8-0.2-4.3,0.8c-1.1,0.8-1.6,2-1.9,3.2c0.8-0.2,1.6-0.3,2.5-0.5c1.2-0.2,2.5,0,3.8,0c2.3,0,5.5,0.7,7.4,2
			c0,0,0,0.1,0,0c-2.3-0.9-4.9-1.2-7.4-1.5c-2.2-0.3-4.3,0.2-6.4,0.7c0,0-0.1,0-0.2,0c0,0,0,0,0,0c-0.3,0-0.4-0.3-0.3-0.5
			C68.2,81.8,69.4,80.1,70.4,79.4z"/>
		<path class="st1" d="M145.2,135.9c-1,0.8-2.2,1-3.5,1c0.2,0.1,0.4,0.3,0.6,0.4c1,0.7,1.8,1.7,2.4,2.8c0.4,0.8,0.8,3.1,0,4
			c0,0.1,0,0.1-0.1,0.2c-1.2,1.2-3.6,0.6-4.8,0c-0.9-0.5-2.1-1.6-2.7-2.7c0,1.2-0.5,2.4-1.3,3.2c-0.9,0.9-2.4,2.4-3.9,1.9
			c0,0,0,0,0,0c0,0,0,0,0,0c-0.2,0-0.2-0.2-0.1-0.3c0,0,0,0,0,0c0,0,0,0,0,0c0,0,0.1,0,0.1-0.1c0,0-0.1,0-0.1,0c0,0,0.1-0.1,0.2-0.3
			c0.4-0.8,0.4-1.7,0.5-2.5c0.2-1.3-0.1-2.7-0.1-4.1c0-2.1-0.6-4.1-1.2-6.1c0-0.1,0.1-0.1,0.1,0c0.7,1.9,1.6,3.9,1.6,5.9
			c0,1.4,0.2,2.8,0.1,4.3c0,0.6-0.2,1.2-0.3,1.8c-0.1,0.2-0.4,0.6-0.5,0.9c0.3-0.1,0.6-0.1,0.8-0.2c0.9-0.2,1.6-0.8,2.2-1.4
			c1.3-1.4,1.4-2.8,1.4-4.6c0-0.2,0.3-0.3,0.4-0.1c0,0.1,0,0.1,0,0.2c0.2,0.2,0.4,0.6,0.5,0.8c0.4,0.6,1,1.2,1.5,1.8
			c1.2,1.4,3.3,1.6,5,1c0.5-1.3,0.6-2.4,0-3.8c-0.6-1.2-2.1-3-3.4-3.3c-0.1,0-0.1-0.1-0.1-0.1c0,0,0,0,0,0c0,0,0,0,0,0
			c-0.1,0-0.2-0.1-0.2-0.2c0,0,0,0,0,0c0,0,0,0,0,0c0,0,0,0,0,0c0,0,0,0,0,0c0-0.1,0.1-0.2,0.2-0.2c0,0,0,0,0,0
			c1.6-0.2,2.8,0.2,4.3-0.8c1.1-0.8,1.6-2,1.9-3.2c-0.8,0.2-1.6,0.3-2.5,0.5c-1.2,0.2-2.5,0-3.8,0c-2.3,0-5.5-0.7-7.4-2
			c0,0,0-0.1,0,0c2.3,0.9,4.9,1.2,7.4,1.5c2.2,0.3,4.3-0.2,6.4-0.7c0,0,0.1,0,0.2,0c0,0,0,0,0,0c0.3,0,0.4,0.3,0.3,0.5
			C147.4,133.5,146.1,135.1,145.2,135.9z"/>
		<path class="st1" d="M70.4,135.9c1,0.8,2.2,1,3.5,1c-0.2,0.1-0.4,0.3-0.6,0.4c-1,0.7-1.8,1.7-2.4,2.8c-0.4,0.8-0.8,3.1,0,4
			c0,0.1,0,0.1,0.1,0.2c1.2,1.2,3.6,0.6,4.8,0c0.9-0.5,2.1-1.6,2.7-2.7c0,1.2,0.5,2.4,1.3,3.2c0.9,0.9,2.4,2.4,3.9,1.9c0,0,0,0,0,0
			c0,0,0,0,0,0c0.2,0,0.2-0.2,0.1-0.3c0,0,0,0,0,0c0,0,0,0,0,0c0,0-0.1,0-0.1-0.1c0,0,0.1,0,0.1,0c0,0-0.1-0.1-0.2-0.3
			c-0.4-0.8-0.4-1.7-0.5-2.5c-0.2-1.3,0.1-2.7,0.1-4.1c0-2.1,0.6-4.1,1.2-6.1c0-0.1-0.1-0.1-0.1,0c-0.7,1.9-1.6,3.9-1.6,5.9
			c0,1.4-0.2,2.8-0.1,4.3c0,0.6,0.2,1.2,0.3,1.8c0.1,0.2,0.4,0.6,0.5,0.9c-0.3-0.1-0.6-0.1-0.8-0.2c-0.9-0.2-1.6-0.8-2.2-1.4
			c-1.3-1.4-1.4-2.8-1.4-4.6c0-0.2-0.3-0.3-0.4-0.1c0,0.1,0,0.1,0,0.2c-0.2,0.2-0.4,0.6-0.5,0.8c-0.4,0.6-1,1.2-1.5,1.8
			c-1.2,1.4-3.3,1.6-5,1c-0.5-1.3-0.6-2.4,0-3.8c0.6-1.2,2.1-3,3.4-3.3c0.1,0,0.1-0.1,0.1-0.1c0,0,0,0,0,0c0,0,0,0,0,0
			c0.1,0,0.2-0.1,0.2-0.2c0,0,0,0,0,0c0,0,0,0,0,0c0,0,0,0,0,0c0,0,0,0,0,0c0-0.1-0.1-0.2-0.2-0.2c0,0,0,0,0,0
			c-1.6-0.2-2.8,0.2-4.3-0.8c-1.1-0.8-1.6-2-1.9-3.2c0.8,0.2,1.6,0.3,2.5,0.5c1.2,0.2,2.5,0,3.8,0c2.3,0,5.5-0.7,7.4-2
			c0,0,0-0.1,0,0c-2.3,0.9-4.9,1.2-7.4,1.5c-2.2,0.3-4.3-0.2-6.4-0.7c0,0-0.1,0-0.2,0c0,0,0,0,0,0c-0.3,0-0.4,0.3-0.3,0.5
			C68.2,133.4,69.5,135.1,70.4,135.9z"/>
	</g>
	<g>
		<g>
			<path class="st2" d="M8.3,80.1c0,0-1.3,18,4.8,24.1c2.4,2.4,4.8,0.4,4.6-1.3c-0.2-1.6-2.6-4.1,0-5.2c2.6-1.1,4.6,1.1,4.3,2.4
				c0,0,2.7-2,6.8-1.5c0,0-2.3,6.8-6.4,9.3c-3.9,2.4-13.5,5.5-14.1-11.3V80.1z"/>
		</g>
		<path class="st1" d="M5.5,94.8v-21c0,0,1.9-0.3,2.8,3.5c0,0,2.9-0.7,3.6,0.5c0.7,1.3,0.2,4.3,0.2,4.3s4.9-0.8,5,3
			c0.2,3.7-1.4,3.4-2.3,2.8c-0.9-0.5-2-0.4-3.1,1.8C11.7,89.7,10.4,94.9,5.5,94.8z"/>
	</g>
	<g>
		<g>
			<path class="st2" d="M206.7,80.1c0,0,1.3,18-4.8,24.1c-2.4,2.4-4.8,0.4-4.6-1.3c0.2-1.6,2.6-4.1,0-5.2c-2.6-1.1-4.6,1.1-4.3,2.4
				c0,0-2.7-2-6.8-1.5c0,0,2.3,6.8,6.4,9.3c3.9,2.4,13.5,5.5,14.1-11.3V80.1z"/>
		</g>
		<path class="st1" d="M209.5,94.8v-21c0,0-1.9-0.3-2.8,3.5c0,0-2.9-0.7-3.6,0.5c-0.7,1.3-0.2,4.3-0.2,4.3s-4.9-0.8-5,3
			c-0.2,3.7,1.4,3.4,2.3,2.8c0.9-0.5,2-0.4,3.1,1.8C203.3,89.7,204.6,94.9,209.5,94.8z"/>
	</g>
	<g>
		<g>
			<path class="st2" d="M8.3,134.9c0,0-1.3-18,4.8-24.1c2.4-2.4,4.8-0.4,4.6,1.3c-0.2,1.6-2.6,4.1,0,5.2c2.6,1.1,4.6-1.1,4.3-2.4
				c0,0,2.7,2,6.8,1.5c0,0-2.3-6.8-6.4-9.3c-3.9-2.4-13.5-5.5-14.1,11.3V134.9z"/>
		</g>
		<path class="st1" d="M5.5,120.2v21c0,0,1.9,0.3,2.8-3.5c0,0,2.9,0.7,3.6-0.5c0.7-1.3,0.2-4.3,0.2-4.3s4.9,0.8,5-3
			c0.2-3.7-1.4-3.4-2.3-2.8c-0.9,0.5-2,0.4-3.1-1.8C11.7,125.3,10.4,120.1,5.5,120.2z"/>
	</g>
	<g>
		<g>
			<path class="st2" d="M206.7,134.9c0,0,1.3-18-4.8-24.1c-2.4-2.4-4.8-0.4-4.6,1.3c0.2,1.6,2.6,4.1,0,5.2c-2.6,1.1-4.6-1.1-4.3-2.4
				c0,0-2.7,2-6.8,1.5c0,0,2.3-6.8,6.4-9.3c3.9-2.4,13.5-5.5,14.1,11.3V134.9z"/>
		</g>
		<path class="st1" d="M209.5,120.2v21c0,0-1.9,0.3-2.8-3.5c0,0-2.9,0.7-3.6-0.5c-0.7-1.3-0.2-4.3-0.2-4.3s-4.9,0.8-5-3
			c-0.2-3.7,1.4-3.4,2.3-2.8c0.9,0.5,2,0.4,3.1-1.8C203.3,125.3,204.6,120.1,209.5,120.2z"/>
	</g>
	<g>
		<g>
			<path class="st2" d="M134.9,8.3c0,0-18-1.3-24.1,4.8c-2.4,2.4-0.4,4.8,1.3,4.6c1.6-0.2,4.1-2.6,5.2,0c1.1,2.6-1.1,4.6-2.4,4.3
				c0,0,2,2.7,1.5,6.8c0,0-6.8-2.3-9.3-6.4c-2.4-3.9-5.5-13.5,11.3-14.1H134.9z"/>
		</g>
		<path class="st1" d="M120.2,5.5h21c0,0,0.3,1.9-3.5,2.8c0,0,0.7,2.9-0.5,3.6c-1.3,0.7-4.3,0.2-4.3,0.2s0.8,4.9-3,5
			c-3.7,0.2-3.4-1.4-2.8-2.3c0.5-0.9,0.4-2-1.8-3.1C125.3,11.7,120.1,10.4,120.2,5.5z"/>
	</g>
	<g>
		<g>
			<path class="st2" d="M134.9,206.7c0,0-18,1.3-24.1-4.8c-2.4-2.4-0.4-4.8,1.3-4.6c1.6,0.2,4.1,2.6,5.2,0c1.1-2.6-1.1-4.6-2.4-4.3
				c0,0,2-2.7,1.5-6.8c0,0-6.8,2.3-9.3,6.4c-2.4,3.9-5.5,13.5,11.3,14.1H134.9z"/>
		</g>
		<path class="st1" d="M120.2,209.5h21c0,0,0.3-1.9-3.5-2.8c0,0,0.7-2.9-0.5-3.6c-1.3-0.7-4.3-0.2-4.3-0.2s0.8-4.9-3-5
			c-3.7-0.2-3.4,1.4-2.8,2.3c0.5,0.9,0.4,2-1.8,3.1C125.3,203.3,120.1,204.6,120.2,209.5z"/>
	</g>
	<g>
		<g>
			<path class="st2" d="M80.1,8.3c0,0,18-1.3,24.1,4.8c2.4,2.4,0.4,4.8-1.3,4.6c-1.6-0.2-4.1-2.6-5.2,0c-1.1,2.6,1.1,4.6,2.4,4.3
				c0,0-2,2.7-1.5,6.8c0,0,6.8-2.3,9.3-6.4c2.4-3.9,5.5-13.5-11.3-14.1H80.1z"/>
		</g>
		<path class="st1" d="M94.8,5.5h-21c0,0-0.3,1.9,3.5,2.8c0,0-0.7,2.9,0.5,3.6c1.3,0.7,4.3,0.2,4.3,0.2s-0.8,4.9,3,5
			c3.7,0.2,3.4-1.4,2.8-2.3c-0.5-0.9-0.4-2,1.8-3.1C89.7,11.7,94.9,10.4,94.8,5.5z"/>
	</g>
	<g>
		<g>
			<path class="st2" d="M80.1,206.7c0,0,18,1.3,24.1-4.8c2.4-2.4,0.4-4.8-1.3-4.6c-1.6,0.2-4.1,2.6-5.2,0c-1.1-2.6,1.1-4.6,2.4-4.3
				c0,0-2-2.7-1.5-6.8c0,0,6.8,2.3,9.3,6.4c2.4,3.9,5.5,13.5-11.3,14.1H80.1z"/>
		</g>
		<path class="st1" d="M94.8,209.5h-21c0,0-0.3-1.9,3.5-2.8c0,0-0.7-2.9,0.5-3.6c1.3-0.7,4.3-0.2,4.3-0.2s-0.8-4.9,3-5
			c3.7-0.2,3.4,1.4,2.8,2.3c-0.5,0.9-0.4,2,1.8,3.1C89.7,203.3,94.9,204.6,94.8,209.5z"/>
	</g>
	<g>
		<g>
			<g>
				<g>
					<path class="st2" d="M29.2,73c11.2-11.2,4.7-28.8,4.7-28.8s0.4,15.6-7.8,23.4c-1.9,1.8-3.5,2.1-4.8,1.8c0.5-2,0-4.2-1.6-5.7
						c-2.4-2.4-6.2-2.4-8.5,0c-1.1,1.1-1.7,2.5-1.7,3.9l0,0C8.7,72.7,18,84.2,29.2,73z"/>
				</g>
				<g>
					<g>
						<path class="st2" d="M73.2,28.9C62,40.2,44.4,33.6,44.4,33.6S60,34,67.8,25.8c1.8-1.9,2.1-3.5,1.8-4.8c-2,0.5-4.2,0-5.7-1.6
							c-2.4-2.4-2.4-6.2,0-8.5c1.1-1.1,2.5-1.7,3.9-1.7l0,0C72.9,8.5,84.5,17.7,73.2,28.9z"/>
					</g>
					<path class="st1" d="M24.4,54.9c5.1-0.1,6.2-4.3,6.3-7.5c1.5,8.8,8.8,9.6,8.8,9.6c2-3.4-2.5-9.8-2.5-9.8
						c8.9,11.7,16.1,6.7,16.6,6.3l0,0c0,0,0,0,0,0c0,0,0,0,0,0l0,0c0.4-0.5,5.4-7.7-6.3-16.6c0,0,6.3,4.5,9.8,2.5
						c0,0-0.8-7.3-9.6-8.8c3.2-0.1,7.4-1.3,7.5-6.3c0,0-0.3-3.4-3.4-3.4c-3.1,0-2.9,4.8-6.4,5.2c-3.5,0.4-9.9,1.8-17.4-7.2l-4.4,4.4
						l0,0L19,27.7c8.9,7.5,7.6,13.8,7.2,17.4c-0.4,3.5-5.2,3.3-5.2,6.4C21,54.6,24.4,54.9,24.4,54.9z"/>
				</g>
			</g>
			<g>
				<path class="st2" d="M13.2,27.9c1.2-0.2,2-1.3,1.3-4.1c0,0-3.1-5.6,1.4-9.5c4.2-4.1,9.5-0.5,9.5-0.5c2.7,1,3.8,0.3,4.2-0.9
					c0.4-1.2,1.5-2.8,4.3,0.6c2.8,3.4-2.1,6.7-2.1,6.7s2.9,2.3,3.3,4c0.4,1.7-2.8,3.4-2.8,3.4c2.1,3.9,0.5,5.2,0.4,5.3
					c-0.1,0.2-1.6,1.6-5.3-0.9c0,0-2,3-3.6,2.4c-1.7-0.5-3.6-3.7-3.6-3.7s-3.7,4.6-6.8,1.5C10.3,29.1,12,28.1,13.2,27.9z"/>
			</g>
		</g>
	</g>
	<g>
		<g>
			<g>
				<g>
					<path class="st2" d="M185.8,73c-11.2-11.2-4.7-28.8-4.7-28.8s-0.4,15.6,7.8,23.4c1.9,1.8,3.5,2.1,4.8,1.8c-0.5-2,0-4.2,1.6-5.7
						c2.4-2.4,6.2-2.4,8.5,0c1.1,1.1,1.7,2.5,1.7,3.9l0,0C206.3,72.7,197,84.2,185.8,73z"/>
				</g>
				<g>
					<g>
						<path class="st2" d="M141.8,28.9c11.2,11.2,28.8,4.7,28.8,4.7S155,34,147.2,25.8c-1.8-1.9-2.1-3.5-1.8-4.8
							c2,0.5,4.2,0,5.7-1.6c2.4-2.4,2.4-6.2,0-8.5c-1.1-1.1-2.5-1.7-3.9-1.7l0,0C142.1,8.5,130.5,17.7,141.8,28.9z"/>
					</g>
					<path class="st1" d="M190.6,54.9c-5.1-0.1-6.2-4.3-6.3-7.5c-1.5,8.8-8.8,9.6-8.8,9.6c-2-3.4,2.5-9.8,2.5-9.8
						c-8.9,11.7-16.1,6.7-16.6,6.3l0,0c0,0,0,0,0,0c0,0,0,0,0,0l0,0c-0.4-0.5-5.4-7.7,6.3-16.6c0,0-6.3,4.5-9.8,2.5
						c0,0,0.8-7.3,9.6-8.8c-3.2-0.1-7.4-1.3-7.5-6.3c0,0,0.3-3.4,3.4-3.4c3.1,0,2.9,4.8,6.4,5.2c3.5,0.4,9.9,1.8,17.4-7.2l4.4,4.4
						l0,0l4.4,4.4c-8.9,7.5-7.6,13.8-7.2,17.4c0.4,3.5,5.2,3.3,5.2,6.4C194,54.6,190.6,54.9,190.6,54.9z"/>
				</g>
			</g>
			<g>
				<path class="st2" d="M201.8,27.9c-1.2-0.2-2-1.3-1.3-4.1c0,0,3.1-5.6-1.4-9.5c-4.2-4.1-9.5-0.5-9.5-0.5c-2.7,1-3.8,0.3-4.2-0.9
					c-0.4-1.2-1.5-2.8-4.3,0.6c-2.8,3.4,2.1,6.7,2.1,6.7s-2.9,2.3-3.3,4c-0.4,1.7,2.8,3.4,2.8,3.4c-2.1,3.9-0.5,5.2-0.4,5.3
					c0.1,0.2,1.6,1.6,5.3-0.9c0,0,2,3,3.6,2.4c1.7-0.5,3.6-3.7,3.6-3.7s3.7,4.6,6.8,1.5C204.7,29.1,203,28.1,201.8,27.9z"/>
			</g>
		</g>
	</g>
	<g>
		<g>
			<g>
				<g>
					<path class="st2" d="M29.2,142c11.2,11.2,4.7,28.8,4.7,28.8s0.4-15.6-7.8-23.4c-1.9-1.8-3.5-2.1-4.8-1.8c0.5,2,0,4.2-1.6,5.7
						c-2.4,2.4-6.2,2.4-8.5,0c-1.1-1.1-1.7-2.5-1.7-3.9h0C8.7,142.3,18,130.8,29.2,142z"/>
				</g>
				<g>
					<g>
						<path class="st2" d="M73.2,186.1c-11.2-11.2-28.8-4.7-28.8-4.7s15.6-0.4,23.4,7.8c1.8,1.9,2.1,3.5,1.8,4.8
							c-2-0.5-4.2,0-5.7,1.6c-2.4,2.4-2.4,6.2,0,8.5c1.1,1.1,2.5,1.7,3.9,1.7l0,0C72.9,206.5,84.5,197.3,73.2,186.1z"/>
					</g>
					<path class="st1" d="M24.4,160.1c5.1,0.1,6.2,4.3,6.3,7.5c1.5-8.8,8.8-9.6,8.8-9.6c2,3.4-2.5,9.8-2.5,9.8
						c8.9-11.7,16.1-6.7,16.6-6.3l0,0c0,0,0,0,0,0c0,0,0,0,0,0l0,0c0.4,0.5,5.4,7.7-6.3,16.6c0,0,6.3-4.5,9.8-2.5
						c0,0-0.8,7.3-9.6,8.8c3.2,0.1,7.4,1.3,7.5,6.3c0,0-0.3,3.4-3.4,3.4c-3.1,0-2.9-4.8-6.4-5.2c-3.5-0.4-9.9-1.8-17.4,7.2l-4.4-4.4
						l0,0l-4.4-4.4c8.9-7.5,7.6-13.8,7.2-17.4c-0.4-3.5-5.2-3.3-5.2-6.4C21,160.4,24.4,160.1,24.4,160.1z"/>
				</g>
			</g>
			<g>
				<path class="st2" d="M13.2,187.1c1.2,0.2,2,1.3,1.3,4.1c0,0-3.1,5.6,1.4,9.5c4.2,4.1,9.5,0.5,9.5,0.5c2.7-1,3.8-0.3,4.2,0.9
					c0.4,1.2,1.5,2.8,4.3-0.6c2.8-3.4-2.1-6.7-2.1-6.7s2.9-2.3,3.3-4c0.4-1.7-2.8-3.4-2.8-3.4c2.1-3.9,0.5-5.2,0.4-5.3
					c-0.1-0.2-1.6-1.6-5.3,0.9c0,0-2-3-3.6-2.4c-1.7,0.5-3.6,3.7-3.6,3.7s-3.7-4.6-6.8-1.5C10.3,185.9,12,186.9,13.2,187.1z"/>
			</g>
		</g>
	</g>
	<g>
		<g>
			<g>
				<g>
					<path class="st2" d="M185.8,142c-11.2,11.2-4.7,28.8-4.7,28.8s-0.4-15.6,7.8-23.4c1.9-1.8,3.5-2.1,4.8-1.8
						c-0.5,2,0,4.2,1.6,5.7c2.4,2.4,6.2,2.4,8.5,0c1.1-1.1,1.7-2.5,1.7-3.9h0C206.3,142.3,197,130.8,185.8,142z"/>
				</g>
				<g>
					<g>
						<path class="st2" d="M141.8,186.1c11.2-11.2,28.8-4.7,28.8-4.7s-15.6-0.4-23.4,7.8c-1.8,1.9-2.1,3.5-1.8,4.8
							c2-0.5,4.2,0,5.7,1.6c2.4,2.4,2.4,6.2,0,8.5c-1.1,1.1-2.5,1.7-3.9,1.7l0,0C142.1,206.5,130.5,197.3,141.8,186.1z"/>
					</g>
					<path class="st1" d="M190.6,160.1c-5.1,0.1-6.2,4.3-6.3,7.5c-1.5-8.8-8.8-9.6-8.8-9.6c-2,3.4,2.5,9.8,2.5,9.8
						c-8.9-11.7-16.1-6.7-16.6-6.3l0,0c0,0,0,0,0,0c0,0,0,0,0,0l0,0c-0.4,0.5-5.4,7.7,6.3,16.6c0,0-6.3-4.5-9.8-2.5
						c0,0,0.8,7.3,9.6,8.8c-3.2,0.1-7.4,1.3-7.5,6.3c0,0,0.3,3.4,3.4,3.4c3.1,0,2.9-4.8,6.4-5.2c3.5-0.4,9.9-1.8,17.4,7.2l4.4-4.4
						l0,0l4.4-4.4c-8.9-7.5-7.6-13.8-7.2-17.4c0.4-3.5,5.2-3.3,5.2-6.4C194,160.4,190.6,160.1,190.6,160.1z"/>
				</g>
			</g>
			<g>
				<path class="st2" d="M201.8,187.1c-1.2,0.2-2,1.3-1.3,4.1c0,0,3.1,5.6-1.4,9.5c-4.2,4.1-9.5,0.5-9.5,0.5c-2.7-1-3.8-0.3-4.2,0.9
					c-0.4,1.2-1.5,2.8-4.3-0.6c-2.8-3.4,2.1-6.7,2.1-6.7s-2.9-2.3-3.3-4c-0.4-1.7,2.8-3.4,2.8-3.4c-2.1-3.9-0.5-5.2-0.4-5.3
					c0.1-0.2,1.6-1.6,5.3,0.9c0,0,2-3,3.6-2.4c1.7,0.5,3.6,3.7,3.6,3.7s3.7-4.6,6.8-1.5C204.7,185.9,203,186.9,201.8,187.1z"/>
			</g>
		</g>
	</g>
	<g>
		<path class="st2" d="M82.2,51c5.8-1.8,7.1,4.2,9.8,8.1c2.7,3.9,2.4,8.6,8.5,7.3c6.1-1.4,7.1-21.6,7.1-21.6l0.1-1.7l0.1,1.7
			c0,0,1,20.2,7.1,21.6c6.1,1.4,5.8-3.3,8.5-7.3c2.7-3.9,4-9.9,9.8-8.1c0,0,5.2-8.4-4.1-8.1l-2.9,1.1c0,0-2.3-5.4-6-1.8
			c-3.7,3.6-2,11.3-4.1,12.6c-2.1,1.3-5.3-2.6-3.1-7.1c2.2-4.5,6.9-12.7,0.8-11.5c0,0-0.7-6.7-6.1-7.6v0c0,0,0,0,0,0c0,0,0,0,0,0v0
			c-5.4,0.9-6.1,7.6-6.1,7.6c-6.1-1.2-1.4,7,0.8,11.5c2.2,4.5-1,8.4-3.1,7.1c-2.1-1.3-0.4-9-4.1-12.6c-3.7-3.6-6,1.8-6,1.8L86.3,43
			C77,42.6,82.2,51,82.2,51z"/>
	</g>
	<g>
		<path class="st2" d="M51.1,133.2c-1.8-5.8,4.2-7.1,8.1-9.8c3.9-2.7,8.6-2.4,7.3-8.5c-1.4-6.1-21.6-7.1-21.6-7.1l-1.7-0.1l1.7-0.1
			c0,0,20.2-1,21.6-7.1c1.4-6.1-3.3-5.8-7.3-8.5c-3.9-2.7-9.9-4-8.1-9.8c0,0-8.4-5.2-8.1,4.1l1.1,2.9c0,0-5.4,2.3-1.8,6
			c3.6,3.7,11.3,2,12.6,4.1c1.3,2.1-2.6,5.3-7.1,3.1c-4.5-2.2-12.7-6.9-11.5-0.8c0,0-6.7,0.7-7.6,6.1h0c0,0,0,0,0,0c0,0,0,0,0,0h0
			c0.9,5.4,7.6,6.1,7.6,6.1c-1.2,6.1,7,1.4,11.5-0.8c4.5-2.2,8.4,1,7.1,3.1c-1.3,2.1-9,0.4-12.6,4.1c-3.6,3.7,1.8,6,1.8,6l-1.1,2.9
			C42.7,138.4,51.1,133.2,51.1,133.2z"/>
	</g>
	<g>
		<path class="st2" d="M133.3,164.3c-5.8,1.8-7.1-4.2-9.8-8.1c-2.7-3.9-2.4-8.6-8.5-7.3c-6.1,1.4-7.1,21.6-7.1,21.6l-0.1,1.7
			l-0.1-1.7c0,0-1-20.2-7.1-21.6c-6.1-1.4-5.8,3.3-8.5,7.3c-2.7,3.9-4,9.9-9.8,8.1c0,0-5.2,8.4,4.1,8.1l2.9-1.1c0,0,2.3,5.4,6,1.8
			c3.7-3.6,2-11.3,4.1-12.6c2.1-1.3,5.3,2.6,3.1,7.1c-2.2,4.5-6.9,12.7-0.8,11.5c0,0,0.7,6.7,6.1,7.6v0c0,0,0,0,0,0c0,0,0,0,0,0v0
			c5.4-0.9,6.1-7.6,6.1-7.6c6.1,1.2,1.4-7-0.8-11.5c-2.2-4.5,1-8.4,3.1-7.1c2.1,1.3,0.4,9,4.1,12.6c3.7,3.6,6-1.8,6-1.8l2.9,1.1
			C138.5,172.7,133.3,164.3,133.3,164.3z"/>
	</g>
	<g>
		<path class="st2" d="M164.4,82.1c1.8,5.8-4.2,7.1-8.1,9.8c-3.9,2.7-8.6,2.4-7.3,8.5c1.4,6.1,21.6,7.1,21.6,7.1l1.7,0.1l-1.7,0.1
			c0,0-20.2,1-21.6,7.1c-1.4,6.1,3.3,5.8,7.3,8.5c3.9,2.7,9.9,4,8.1,9.8c0,0,8.4,5.2,8.1-4.1l-1.1-2.9c0,0,5.4-2.3,1.8-6
			c-3.6-3.7-11.3-2-12.6-4.1s2.6-5.3,7.1-3.1c4.5,2.2,12.7,6.9,11.5,0.8c0,0,6.7-0.7,7.6-6.1h0c0,0,0,0,0,0c0,0,0,0,0,0h0
			c-0.9-5.4-7.6-6.1-7.6-6.1c1.2-6.1-7-1.4-11.5,0.8c-4.5,2.2-8.4-1-7.1-3.1c1.3-2.1,9-0.4,12.6-4.1c3.6-3.7-1.8-6-1.8-6l1.1-2.9
			C172.8,76.9,164.4,82.1,164.4,82.1z"/>
	</g>
	<g>
		<path class="st1" d="M80.9,125.6c3.1-1.8,6.9-6,6.9-6c2.8,4.2,7.1,0.7,7.1,0.7s-2.3-0.3-0.3-4.6c0.7-1.5,1.9-2.5,3.2-3.2
			c-0.7-1.5-1.1-3.1-1.1-4.9c0-1.8,0.4-3.4,1.1-4.9c-1.3-0.7-2.5-1.7-3.2-3.2c-2-4.4,0.3-4.6,0.3-4.6s-4.3-3.4-7.1,0.7
			c0,0-3.9-4.1-6.9-6c-3.1-1.8-0.7-5.1-0.7-5.1s-6.7,3-4.9,11c0,0-2.5-0.3-3.5-2.5c0,0-3.6,4-1,9.3c0,0-5.5-0.5-10,5.2c0,0,0,0,0,0
			c0,0,0,0,0,0c4.6,5.7,10,5.2,10,5.2c-2.6,5.3,1,9.3,1,9.3c1-2.2,3.5-2.5,3.5-2.5c-1.9,8,4.9,11,4.9,11S77.9,127.4,80.9,125.6z"/>
		<path class="st1" d="M89.8,80.8c1.8,3.1,6,6.9,6,6.9c-4.2,2.8-0.7,7.1-0.7,7.1s0.3-2.3,4.6-0.3c1.5,0.7,2.5,1.9,3.2,3.2
			c1.5-0.7,3.1-1.1,4.9-1.1c1.8,0,3.4,0.4,4.9,1.1c0.7-1.3,1.7-2.5,3.2-3.2c4.4-2,4.6,0.3,4.6,0.3s3.4-4.3-0.7-7.1
			c0,0,4.1-3.9,6-6.9c1.8-3.1,5.1-0.7,5.1-0.7s-3-6.7-11-4.9c0,0,0.3-2.5,2.5-3.5c0,0-4-3.6-9.3-1c0,0,0.5-5.5-5.2-10c0,0,0,0,0,0
			c0,0,0,0,0,0c-5.7,4.6-5.2,10-5.2,10c-5.3-2.6-9.3,1-9.3,1c2.2,1,2.5,3.5,2.5,3.5c-8-1.9-11,4.9-11,4.9S88,77.8,89.8,80.8z"/>
		<path class="st1" d="M125.7,134.5c-1.8-3.1-6-6.9-6-6.9c4.2-2.8,0.7-7.1,0.7-7.1s-0.3,2.3-4.6,0.3c-1.5-0.7-2.5-1.9-3.2-3.2
			c-1.5,0.7-3.1,1.1-4.9,1.1c-1.8,0-3.4-0.4-4.9-1.1c-0.7,1.3-1.7,2.5-3.2,3.2c-4.4,2-4.6-0.3-4.6-0.3s-3.4,4.3,0.7,7.1
			c0,0-4.1,3.9-6,6.9c-1.8,3.1-5.1,0.7-5.1,0.7s3,6.7,11,4.9c0,0-0.3,2.5-2.5,3.5c0,0,4,3.6,9.3,1c0,0-0.5,5.5,5.2,10c0,0,0,0,0,0
			c0,0,0,0,0,0c5.7-4.6,5.2-10,5.2-10c5.3,2.6,9.3-1,9.3-1c-2.2-1-2.5-3.5-2.5-3.5c8,1.9,11-4.9,11-4.9S127.5,137.5,125.7,134.5z"/>
		<path class="st1" d="M154.7,107.6c-4.6-5.7-10-5.2-10-5.2c2.6-5.3-1-9.3-1-9.3c-1,2.2-3.5,2.5-3.5,2.5c1.9-8-4.9-11-4.9-11
			s2.4,3.3-0.7,5.1c-3.1,1.8-6.9,6-6.9,6c-2.8-4.2-7.1-0.7-7.1-0.7s2.3,0.3,0.3,4.6c-0.7,1.5-1.9,2.5-3.2,3.2
			c0.7,1.5,1.1,3.1,1.1,4.9c0,1.8-0.4,3.4-1.1,4.9c1.3,0.7,2.5,1.7,3.2,3.2c2,4.4-0.3,4.6-0.3,4.6s4.3,3.4,7.1-0.7
			c0,0,3.9,4.1,6.9,6c3.1,1.8,0.7,5.1,0.7,5.1s6.7-3,4.9-11c0,0,2.5,0.3,3.5,2.5c0,0,3.6-4,1-9.3
			C144.6,112.9,150.1,113.4,154.7,107.6C154.7,107.7,154.7,107.7,154.7,107.6C154.7,107.7,154.7,107.6,154.7,107.6z"/>
	</g>
</g>
</svg>
