<?xml version="1.0" encoding="utf-8"?>
<!-- Generator: Adobe Illustrator 21.0.2, SVG Export Plug-In . SVG Version: 6.00 Build 0)  -->
<svg version="1.1" id="Camada_1" xmlns="http://www.w3.org/2000/svg" xmlns:xlink="http://www.w3.org/1999/xlink" x="0px" y="0px"
	 viewBox="0 0 215 215" style="enable-background:new 0 0 215 215;" xml:space="preserve">
<style type="text/css">
	.st0{fill-rule:evenodd;clip-rule:evenodd;fill:#D0AE36;}
	.st1{opacity:0.5;fill-rule:evenodd;clip-rule:evenodd;fill:#DDEFEE;}
	.st2{fill-rule:evenodd;clip-rule:evenodd;fill:#4F4C3F;}
</style>
<g>
	<path class="st0" d="M94.9,44.4C94.9,44.5,94.9,44.5,94.9,44.4C94.9,44.5,94.9,44.4,94.9,44.4L94.9,44.4z M97.8,33.8
		c-4.6,6.7-13.4,9.9-13.4,9.9s4-3.9,6.7-8.3c2.7-4.4,4.6-10.9,4.6-10.9s-1.3,3.2-4.8,6.9c-3.5,3.7-9.3,6.2-9.3,6.2s0.9-1.8,3.8-8.2
		c2.9-6.4,9.3-8.4,9.3-8.4l-11.8,3.6l-4.6,4.6c0,0-0.9,7.3-0.5,15.9c8.6-1.1,16.8,0.8,20,5.6c6,9.2,2.6,17,2.6,17
		c4.3-1.1,7.3-1.4,7.3-1.4l0-6.6c-5.1-11.2-3.4-21.8-3.4-21.8s-0.4,0.8-3,3.2c-2.5,2.3-5.8,3.1-6.2,3.2c0.3-0.1,2.6-1,6.4-10.7
		c4.1-10.4,2.8-30.3,2.8-30.3l-1.5,1.5c0,0-0.8,5.2-2.3,8.9c-1.5,3.7-2.9,8.1-2.9,8.1l4.6-7.3C102,14.6,102.4,27.1,97.8,33.8
		L97.8,33.8z"/>
	<path class="st1" d="M97.6,50.9c-3.2-4.8-11.4-6.7-20-5.6c0.3,8.8,1.9,18.8,6.8,23.8c1.2,1.3,2.6,2.3,4.1,3.2
		c4.2-2.2,8.3-3.6,11.7-4.4C100.2,67.9,103.7,60,97.6,50.9L97.6,50.9z"/>
	<path class="st1" d="M78.7,79.4c-2.3-1.6-4.7-3.6-6.8-6.3c0,0-10.5,13-11.9,28.4c-0.2,2-0.2,4-0.1,6l9.8,0
		c-0.1-2.5-0.1-5.2,0.1-8.1C70.3,90.6,74,84.1,78.7,79.4L78.7,79.4z"/>
	<path class="st0" d="M87,77.9c-3.7,1.9,1.6,6,1.6,6s-4.7-1.1-9.8-4.6c-4.8,4.8-8.4,11.2-8.9,20c-0.2,2.9-0.2,5.6-0.1,8.1l11.3,0
		c-5.7-10.2-1.8-21.6-1.8-21.6s16.2,13.8,19.1,5.6C101.2,83.4,90.7,76,87,77.9L87,77.9z"/>
	<path class="st0" d="M88.5,72.3c6.1,3.6,13.9,4.2,19,4.1v-9.9c0,0-3,0.3-7.3,1.4C96.8,68.8,92.7,70.2,88.5,72.3L88.5,72.3z"/>
	<path class="st0" d="M56.6,63.2c0,0,4.2-6.1,9.4-5.8c-0.4-3.3-0.5-6.1-0.3-8.5c-3.4,1.7-6.4,4.1-8.6,7c-9.8,12.8-9.3,27.8-3.3,32.9
		c0,0,1.8-2.6,1.8-5.9c0-3.3-0.8-5.9-0.8-5.9s2.1,4.1,2.4,7.9c0.3,3.8-0.8,6.6-0.8,6.6s5.6-4.7,5.5-12.1c-0.1-7.4-3.8-12.2-3.8-12.2
		s3.7,2.1,4.9,6.4c1.2,4.3,0.1,7.8,0.1,7.8s3.9-5,3.1-10.1C65.4,66.2,56.6,63.2,56.6,63.2L56.6,63.2z"/>
	<path class="st0" d="M37.2,86.7c0-0.2,0-0.4,0-0.4S37.2,86.5,37.2,86.7L37.2,86.7z M22.5,89.2c0.1-0.2,0.2-0.4,0.2-0.4
		S22.7,88.9,22.5,89.2L22.5,89.2z M27.7,90c2.8-7.1,4.4-9.2,4.4-9.2s-0.5,5.4-2.6,11c-2.1,5.6-4.7,8.6-4.7,8.6s8.5-1.4,10.5-6.5
		c1.6-4,1.9-6.3,1.9-7.1c0,0,0,0,0,0c0,0,0,0.3,0,0.7c0.1,1.9,0.6,5.9,3.3,8.4c3.7,3.3,10.6,2.8,10.6,2.8s-7.5-6.5-7-15
		c0.5-8.5,3.2-14.9,3.2-14.9s-5.4,3.8-8.9,10.9c-3.5,7.1-5,10.4-5,10.4s-0.3-6.5,3.7-12.8c4-6.2,7.9-10.7,7.9-10.7
		s-10.3,8.6-15.3,14.3c-5,5.7-12.2,9-12.2,9l-8.2,8.2c0,0,5.3,0.2,9.1-4c2.6-2.9,3.6-4.3,4-4.9c-0.5,1-2,4-2.2,6.9L20,99.7
		C20,99.7,24.8,97.1,27.7,90L27.7,90z"/>
	<path class="st0" d="M63.1,12.6C63,12.6,63,12.6,63.1,12.6C63,12.6,63.1,12.6,63.1,12.6L63.1,12.6z M73.7,9.7
		c-6.7,4.6-9.9,13.4-9.9,13.4s3.9-4,8.3-6.7c4.4-2.7,10.9-4.6,10.9-4.6s-3.2,1.3-6.9,4.8c-3.7,3.5-6.2,9.3-6.2,9.3s1.8-0.9,8.2-3.8
		c6.4-2.9,8.4-9.3,8.4-9.3l-3.6,11.8l-4.6,4.6c0,0-7.3,0.9-15.9,0.5c1.1-8.6-0.8-16.8-5.6-20c-9.2-6-17-2.6-17-2.6C40.7,3,41,0,41,0
		l6.6,0c11.2,5.1,21.8,3.4,21.8,3.4s-0.8,0.4-3.2,3c-2.3,2.5-3.1,5.8-3.2,6.2c0.1-0.3,1-2.6,10.7-6.4c10.4-4.1,30.3-2.8,30.3-2.8
		l-1.5,1.5c0,0-5.2,0.8-8.9,2.3c-3.7,1.5-8.1,2.9-8.1,2.9l7.3-4.6C92.9,5.5,80.4,5.1,73.7,9.7L73.7,9.7z"/>
	<path class="st1" d="M56.6,9.9c4.8,3.2,6.7,11.4,5.6,20c-8.8-0.3-18.8-1.9-23.8-6.8c-1.3-1.2-2.3-2.6-3.2-4.1
		c2.2-4.2,3.6-8.3,4.4-11.7C39.6,7.3,47.5,3.8,56.6,9.9L56.6,9.9z"/>
	<path class="st1" d="M28.1,28.8c1.6,2.3,3.6,4.7,6.3,6.8c0,0-13,10.5-28.4,11.9c-2,0.2-4,0.2-6,0.1l0-9.8c2.5,0.1,5.2,0.1,8.1-0.1
		C16.9,37.2,23.4,33.5,28.1,28.8L28.1,28.8z"/>
	<path class="st0" d="M29.6,20.5c-1.9,3.7-6-1.6-6-1.6s1.1,4.7,4.6,9.8c-4.8,4.8-11.2,8.4-20,8.9c-2.9,0.2-5.6,0.2-8.1,0.1l0-11.3
		c10.2,5.7,21.6,1.8,21.6,1.8S7.8,12.2,16,9.3C24.1,6.3,31.5,16.8,29.6,20.5L29.6,20.5z"/>
	<path class="st0" d="M35.2,19C31.5,12.8,31,5.1,31.1,0H41c0,0-0.3,3-1.4,7.3C38.7,10.7,37.3,14.8,35.2,19L35.2,19z"/>
	<path class="st0" d="M44.3,50.9c0,0,6.1-4.2,5.8-9.4c3.3,0.4,6.1,0.5,8.5,0.3c-1.7,3.4-4.1,6.4-7,8.6c-12.8,9.8-27.8,9.3-32.9,3.3
		c0,0,2.6-1.8,5.9-1.8c3.3,0,5.9,0.8,5.9,0.8s-4.1-2.1-7.9-2.4C18.8,50,16,51.1,16,51.1s4.7-5.6,12.1-5.5c7.4,0.1,12.2,3.8,12.2,3.8
		s-2.1-3.7-6.4-4.9c-4.3-1.2-7.8-0.1-7.8-0.1s5-3.9,10.1-3.1C41.3,42.1,44.3,50.9,44.3,50.9L44.3,50.9z"/>
	<path class="st0" d="M20.8,70.3c0.2,0,0.4,0,0.4,0S21,70.3,20.8,70.3L20.8,70.3z M18.3,85c0.2-0.1,0.4-0.2,0.4-0.2
		S18.6,84.8,18.3,85L18.3,85z M17.5,79.8c7.1-2.8,9.2-4.4,9.2-4.4s-5.4,0.5-11,2.6c-5.6,2.1-8.6,4.7-8.6,4.7s1.4-8.5,6.5-10.5
		c4-1.6,6.3-1.9,7.1-1.9c0,0,0,0,0,0c0,0-0.3,0-0.7,0c-1.9-0.1-5.9-0.6-8.4-3.3c-3.3-3.7-2.8-10.6-2.8-10.6s6.5,7.5,15,7
		c8.5-0.5,14.9-3.2,14.9-3.2S35,65.5,27.8,69c-7.1,3.5-10.4,5-10.4,5s6.5,0.3,12.8-3.7c6.2-4,10.7-7.9,10.7-7.9s-8.6,10.3-14.3,15.3
		c-5.7,5-9,12.2-9,12.2l-8.2,8.2c0,0-0.2-5.3,4-9.1c2.9-2.6,4.3-3.6,4.9-4c-1,0.5-4,2-6.9,2.2l-3.6,0.3
		C7.8,87.5,10.4,82.7,17.5,79.8L17.5,79.8z"/>
	<path class="st0" d="M120.1,44.4C120.1,44.5,120.1,44.5,120.1,44.4C120.1,44.5,120.1,44.4,120.1,44.4L120.1,44.4z M117.2,33.8
		c4.6,6.7,13.4,9.9,13.4,9.9s-4-3.9-6.7-8.3c-2.7-4.4-4.6-10.9-4.6-10.9s1.3,3.2,4.8,6.9c3.5,3.7,9.3,6.2,9.3,6.2s-0.9-1.8-3.8-8.2
		c-2.9-6.4-9.3-8.4-9.3-8.4l11.8,3.6l4.6,4.6c0,0,0.9,7.3,0.5,15.9c-8.6-1.1-16.8,0.8-20,5.6c-6,9.2-2.6,17-2.6,17
		c-4.3-1.1-7.3-1.4-7.3-1.4v-6.6c5.1-11.2,3.4-21.8,3.4-21.8s0.4,0.8,3,3.2c2.5,2.3,5.8,3.1,6.2,3.2c-0.3-0.1-2.6-1-6.4-10.7
		c-4.1-10.4-2.8-30.3-2.8-30.3l1.5,1.5c0,0,0.8,5.2,2.3,8.9c1.5,3.7,2.9,8.1,2.9,8.1l-4.6-7.3C113,14.6,112.6,27.1,117.2,33.8
		L117.2,33.8z"/>
	<path class="st1" d="M117.4,50.9c3.2-4.8,11.4-6.7,20-5.6c-0.3,8.8-1.9,18.8-6.8,23.8c-1.2,1.3-2.6,2.3-4.1,3.2
		c-4.2-2.2-8.3-3.6-11.7-4.4C114.8,67.9,111.3,60,117.4,50.9L117.4,50.9z"/>
	<path class="st1" d="M136.3,79.4c2.3-1.6,4.7-3.6,6.8-6.3c0,0,10.5,13,11.9,28.4c0.2,2,0.2,4,0.1,6l-9.8,0c0.1-2.5,0.1-5.2-0.1-8.1
		C144.7,90.6,141,84.1,136.3,79.4L136.3,79.4z"/>
	<path class="st0" d="M128,77.9c3.7,1.9-1.6,6-1.6,6s4.7-1.1,9.8-4.6c4.8,4.8,8.4,11.2,8.9,20c0.2,2.9,0.2,5.6,0.1,8.1h-11.3
		c5.7-10.2,1.8-21.6,1.8-21.6s-16.2,13.8-19.1,5.6C113.8,83.4,124.3,76,128,77.9L128,77.9z"/>
	<path class="st0" d="M126.5,72.3c-6.1,3.6-13.9,4.2-19,4.1v-9.9c0,0,3,0.3,7.3,1.4C118.2,68.8,122.3,70.2,126.5,72.3L126.5,72.3z"
		/>
	<path class="st0" d="M158.4,63.2c0,0-4.2-6.1-9.4-5.8c0.4-3.3,0.5-6.1,0.3-8.5c3.4,1.7,6.4,4.1,8.6,7c9.8,12.8,9.3,27.8,3.3,32.9
		c0,0-1.8-2.6-1.8-5.9c0-3.3,0.8-5.9,0.8-5.9s-2.1,4.1-2.4,7.9c-0.3,3.8,0.8,6.6,0.8,6.6s-5.6-4.7-5.5-12.1
		c0.1-7.4,3.8-12.2,3.8-12.2s-3.7,2.1-4.9,6.4c-1.2,4.3-0.1,7.8-0.1,7.8s-3.9-5-3.1-10.1C149.6,66.2,158.4,63.2,158.4,63.2
		L158.4,63.2z"/>
	<path class="st0" d="M177.8,86.7c0-0.2,0-0.4,0-0.4S177.8,86.5,177.8,86.7L177.8,86.7z M192.5,89.2c-0.1-0.2-0.2-0.4-0.2-0.4
		S192.3,88.9,192.5,89.2L192.5,89.2z M187.3,90c-2.8-7.1-4.4-9.2-4.4-9.2s0.5,5.4,2.6,11c2.1,5.6,4.7,8.6,4.7,8.6s-8.5-1.4-10.5-6.5
		c-1.6-4-1.9-6.3-1.9-7.1c0,0,0,0,0,0c0,0,0,0.3,0,0.7c-0.1,1.9-0.6,5.9-3.3,8.4c-3.7,3.3-10.6,2.8-10.6,2.8s7.5-6.5,7-15
		c-0.5-8.5-3.2-14.9-3.2-14.9s5.4,3.8,8.9,10.9c3.5,7.1,5,10.4,5,10.4s0.3-6.5-3.7-12.8c-4-6.2-7.9-10.7-7.9-10.7
		s10.3,8.6,15.3,14.3c5,5.7,12.2,9,12.2,9l8.2,8.2c0,0-5.3,0.2-9.1-4c-2.6-2.9-3.6-4.3-4-4.9c0.5,1,2,4,2.2,6.9l0.3,3.6
		C195,99.7,190.2,97.1,187.3,90L187.3,90z"/>
	<path class="st0" d="M151.9,12.6C152,12.6,152,12.6,151.9,12.6C152,12.6,151.9,12.6,151.9,12.6L151.9,12.6z M141.3,9.7
		c6.7,4.6,9.9,13.4,9.9,13.4s-3.9-4-8.3-6.7c-4.4-2.7-10.9-4.6-10.9-4.6s3.2,1.3,6.9,4.8c3.7,3.5,6.2,9.3,6.2,9.3s-1.8-0.9-8.2-3.8
		c-6.4-2.9-8.4-9.3-8.4-9.3l3.6,11.8l4.6,4.6c0,0,7.3,0.9,15.9,0.5c-1.1-8.6,0.8-16.8,5.6-20c9.2-6,17-2.6,17-2.6
		C174.3,3,174,0,174,0h-6.6c-11.2,5.1-21.8,3.4-21.8,3.4s0.8,0.4,3.2,3c2.3,2.5,3.1,5.8,3.2,6.2c-0.1-0.3-1-2.6-10.7-6.4
		c-10.4-4.1-30.3-2.8-30.3-2.8l1.5,1.5c0,0,5.2,0.8,8.9,2.3c3.7,1.5,8.1,2.9,8.1,2.9l-7.3-4.6C122.1,5.5,134.6,5.1,141.3,9.7
		L141.3,9.7z"/>
	<path class="st1" d="M158.4,9.9c-4.8,3.2-6.7,11.4-5.6,20c8.8-0.3,18.8-1.9,23.8-6.8c1.3-1.2,2.3-2.6,3.2-4.1
		c-2.2-4.2-3.6-8.3-4.4-11.7C175.4,7.3,167.5,3.8,158.4,9.9L158.4,9.9z"/>
	<path class="st1" d="M186.9,28.8c-1.6,2.3-3.6,4.7-6.3,6.8c0,0,13,10.5,28.4,11.9c2,0.2,4,0.2,6,0.1v-9.8c-2.5,0.1-5.2,0.1-8.1-0.1
		C198.1,37.2,191.6,33.5,186.9,28.8L186.9,28.8z"/>
	<path class="st0" d="M185.4,20.5c1.9,3.7,6-1.6,6-1.6s-1.1,4.7-4.6,9.8c4.8,4.8,11.2,8.4,20,8.9c2.9,0.2,5.6,0.2,8.1,0.1V26.6
		c-10.2,5.7-21.6,1.8-21.6,1.8s13.8-16.2,5.6-19.1C190.9,6.3,183.5,16.8,185.4,20.5L185.4,20.5z"/>
	<path class="st0" d="M179.8,19c3.6-6.1,4.2-13.9,4.1-19H174c0,0,0.3,3,1.4,7.3C176.3,10.7,177.7,14.8,179.8,19L179.8,19z"/>
	<path class="st0" d="M170.7,50.9c0,0-6.1-4.2-5.8-9.4c-3.3,0.4-6.1,0.5-8.5,0.3c1.7,3.4,4.1,6.4,7,8.6c12.8,9.8,27.8,9.3,32.9,3.3
		c0,0-2.6-1.8-5.9-1.8c-3.3,0-5.9,0.8-5.9,0.8s4.1-2.1,7.9-2.4c3.8-0.3,6.6,0.8,6.6,0.8s-4.7-5.6-12.1-5.5
		c-7.4,0.1-12.2,3.8-12.2,3.8s2.1-3.7,6.4-4.9c4.3-1.2,7.8-0.1,7.8-0.1s-5-3.9-10.1-3.1C173.7,42.1,170.7,50.9,170.7,50.9
		L170.7,50.9z"/>
	<path class="st0" d="M194.2,70.3c-0.2,0-0.4,0-0.4,0S194,70.3,194.2,70.3L194.2,70.3z M196.7,85c-0.2-0.1-0.4-0.2-0.4-0.2
		S196.4,84.8,196.7,85L196.7,85z M197.5,79.8c-7.1-2.8-9.2-4.4-9.2-4.4s5.4,0.5,11,2.6c5.6,2.1,8.6,4.7,8.6,4.7s-1.4-8.5-6.5-10.5
		c-4-1.6-6.3-1.9-7.1-1.9c0,0,0,0,0,0c0,0,0.3,0,0.7,0c1.9-0.1,5.9-0.6,8.4-3.3c3.3-3.7,2.8-10.6,2.8-10.6s-6.5,7.5-15,7
		c-8.5-0.5-14.9-3.2-14.9-3.2s3.8,5.4,10.9,8.9c7.1,3.5,10.4,5,10.4,5s-6.5,0.3-12.8-3.7c-6.2-4-10.7-7.9-10.7-7.9
		s8.6,10.3,14.3,15.3c5.7,5,9,12.2,9,12.2l8.2,8.2c0,0,0.2-5.3-4-9.1c-2.9-2.6-4.3-3.6-4.9-4c1,0.5,4,2,6.9,2.2l3.6,0.3
		C207.2,87.5,204.6,82.7,197.5,79.8L197.5,79.8z"/>
	<path class="st0" d="M94.9,170.6C94.9,170.5,94.9,170.5,94.9,170.6C94.9,170.5,94.9,170.6,94.9,170.6L94.9,170.6z M97.8,181.2
		c-4.6-6.7-13.4-9.9-13.4-9.9s4,3.9,6.7,8.3c2.7,4.4,4.6,10.9,4.6,10.9s-1.3-3.2-4.8-6.9c-3.5-3.7-9.3-6.2-9.3-6.2s0.9,1.8,3.8,8.2
		c2.9,6.4,9.3,8.4,9.3,8.4l-11.8-3.6l-4.6-4.6c0,0-0.9-7.3-0.5-15.9c8.6,1.1,16.8-0.8,20-5.6c6-9.2,2.6-17,2.6-17
		c4.3,1.1,7.3,1.4,7.3,1.4v6.6c-5.1,11.2-3.4,21.8-3.4,21.8s-0.4-0.8-3-3.2c-2.5-2.3-5.8-3.1-6.2-3.2c0.3,0.1,2.6,1,6.4,10.7
		c4.1,10.4,2.8,30.3,2.8,30.3l-1.5-1.5c0,0-0.8-5.2-2.3-8.9c-1.5-3.7-2.9-8.1-2.9-8.1l4.6,7.3C102,200.4,102.4,187.9,97.8,181.2
		L97.8,181.2z"/>
	<path class="st1" d="M97.6,164.1c-3.2,4.8-11.4,6.7-20,5.6c0.3-8.8,1.9-18.8,6.8-23.8c1.2-1.3,2.6-2.3,4.1-3.2
		c4.2,2.2,8.3,3.6,11.7,4.4C100.2,147.1,103.7,155,97.6,164.1L97.6,164.1z"/>
	<path class="st1" d="M78.7,135.6c-2.3,1.6-4.7,3.6-6.8,6.3c0,0-10.5-13-11.9-28.4c-0.2-2-0.2-4-0.1-6h9.8c-0.1,2.5-0.1,5.2,0.1,8.1
		C70.3,124.4,74,130.9,78.7,135.6L78.7,135.6z"/>
	<path class="st0" d="M87,137.1c-3.7-1.9,1.6-6,1.6-6s-4.7,1.1-9.8,4.6c-4.8-4.8-8.4-11.2-8.9-20c-0.2-2.9-0.2-5.6-0.1-8.1h11.3
		c-5.7,10.2-1.8,21.6-1.8,21.6s16.2-13.8,19.1-5.6C101.2,131.6,90.7,139,87,137.1L87,137.1z"/>
	<path class="st0" d="M88.5,142.7c6.1-3.6,13.9-4.2,19-4.1v9.9c0,0-3-0.3-7.3-1.4C96.8,146.2,92.7,144.8,88.5,142.7L88.5,142.7z"/>
	<path class="st0" d="M56.6,151.8c0,0,4.2,6.1,9.4,5.8c-0.4,3.3-0.5,6.1-0.3,8.5c-3.4-1.7-6.4-4.1-8.6-7
		c-9.8-12.8-9.3-27.8-3.3-32.9c0,0,1.8,2.6,1.8,5.9c0,3.3-0.8,5.9-0.8,5.9s2.1-4.1,2.4-7.9c0.3-3.8-0.8-6.6-0.8-6.6
		s5.6,4.7,5.5,12.1c-0.1,7.4-3.8,12.2-3.8,12.2s3.7-2.1,4.9-6.4c1.2-4.3,0.1-7.8,0.1-7.8s3.9,5,3.1,10.1
		C65.4,148.8,56.6,151.8,56.6,151.8L56.6,151.8z"/>
	<path class="st0" d="M37.2,128.3c0,0.2,0,0.4,0,0.4S37.2,128.5,37.2,128.3L37.2,128.3z M22.5,125.8c0.1,0.2,0.2,0.4,0.2,0.4
		S22.7,126.1,22.5,125.8L22.5,125.8z M27.7,125c2.8,7.1,4.4,9.2,4.4,9.2s-0.5-5.4-2.6-11c-2.1-5.6-4.7-8.6-4.7-8.6s8.5,1.4,10.5,6.5
		c1.6,4,1.9,6.3,1.9,7.1c0,0,0,0,0,0c0,0,0-0.3,0-0.7c0.1-1.9,0.6-5.9,3.3-8.4c3.7-3.3,10.6-2.8,10.6-2.8s-7.5,6.5-7,15
		c0.5,8.5,3.2,14.9,3.2,14.9s-5.4-3.8-8.9-10.9c-3.5-7.1-5-10.4-5-10.4s-0.3,6.5,3.7,12.8c4,6.2,7.9,10.7,7.9,10.7
		s-10.3-8.6-15.3-14.3c-5-5.7-12.2-9-12.2-9l-8.2-8.2c0,0,5.3-0.2,9.1,4c2.6,2.9,3.6,4.3,4,4.9c-0.5-1-2-4-2.2-6.9l-0.3-3.6
		C20,115.3,24.8,117.9,27.7,125L27.7,125z"/>
	<path class="st0" d="M63.1,202.4C63,202.4,63,202.4,63.1,202.4C63,202.4,63.1,202.4,63.1,202.4L63.1,202.4z M73.7,205.3
		c-6.7-4.6-9.9-13.4-9.9-13.4s3.9,4,8.3,6.7c4.4,2.7,10.9,4.6,10.9,4.6s-3.2-1.3-6.9-4.8c-3.7-3.5-6.2-9.3-6.2-9.3s1.8,0.9,8.2,3.8
		c6.4,2.9,8.4,9.3,8.4,9.3l-3.6-11.8l-4.6-4.6c0,0-7.3-0.9-15.9-0.5c1.1,8.6-0.8,16.8-5.6,20c-9.2,6-17,2.6-17,2.6
		C40.7,212,41,215,41,215h6.6c11.2-5.1,21.8-3.4,21.8-3.4s-0.8-0.4-3.2-3c-2.3-2.5-3.1-5.8-3.2-6.2c0.1,0.3,1,2.6,10.7,6.4
		c10.4,4.1,30.3,2.8,30.3,2.8l-1.5-1.5c0,0-5.2-0.8-8.9-2.3c-3.7-1.5-8.1-2.9-8.1-2.9l7.3,4.6C92.9,209.5,80.4,209.9,73.7,205.3
		L73.7,205.3z"/>
	<path class="st1" d="M56.6,205.1c4.8-3.2,6.7-11.4,5.6-20c-8.8,0.3-18.8,1.9-23.8,6.8c-1.3,1.2-2.3,2.6-3.2,4.1
		c2.2,4.2,3.6,8.3,4.4,11.7C39.6,207.7,47.5,211.2,56.6,205.1L56.6,205.1z"/>
	<path class="st1" d="M28.1,186.2c1.6-2.3,3.6-4.7,6.3-6.8c0,0-13-10.5-28.4-11.9c-2-0.2-4-0.2-6-0.1v9.8c2.5-0.1,5.2-0.1,8.1,0.1
		C16.9,177.8,23.4,181.5,28.1,186.2L28.1,186.2z"/>
	<path class="st0" d="M29.6,194.5c-1.9-3.7-6,1.6-6,1.6s1.1-4.7,4.6-9.8c-4.8-4.8-11.2-8.4-20-8.9c-2.9-0.2-5.6-0.2-8.1-0.1v11.3
		c10.2-5.7,21.6-1.8,21.6-1.8S7.8,202.8,16,205.7C24.1,208.7,31.5,198.2,29.6,194.5L29.6,194.5z"/>
	<path class="st0" d="M35.2,196c-3.6,6.1-4.2,13.9-4.1,19H41c0,0-0.3-3-1.4-7.3C38.7,204.3,37.3,200.2,35.2,196L35.2,196z"/>
	<path class="st0" d="M44.3,164.1c0,0,6.1,4.2,5.8,9.4c3.3-0.4,6.1-0.5,8.5-0.3c-1.7-3.4-4.1-6.4-7-8.6c-12.8-9.8-27.8-9.3-32.9-3.3
		c0,0,2.6,1.8,5.9,1.8c3.3,0,5.9-0.8,5.9-0.8s-4.1,2.1-7.9,2.4c-3.8,0.3-6.6-0.8-6.6-0.8s4.7,5.6,12.1,5.5
		c7.4-0.1,12.2-3.8,12.2-3.8s-2.1,3.7-6.4,4.9c-4.3,1.2-7.8,0.1-7.8,0.1s5,3.9,10.1,3.1C41.3,172.9,44.3,164.1,44.3,164.1
		L44.3,164.1z"/>
	<path class="st0" d="M20.8,144.7c0.2,0,0.4,0,0.4,0S21,144.7,20.8,144.7L20.8,144.7z M18.3,130c0.2,0.1,0.4,0.2,0.4,0.2
		S18.6,130.2,18.3,130L18.3,130z M17.5,135.2c7.1,2.8,9.2,4.4,9.2,4.4s-5.4-0.5-11-2.6c-5.6-2.1-8.6-4.7-8.6-4.7s1.4,8.5,6.5,10.5
		c4,1.6,6.3,1.9,7.1,1.9c0,0,0,0,0,0c0,0-0.3,0-0.7,0c-1.9,0.1-5.9,0.6-8.4,3.3c-3.3,3.7-2.8,10.6-2.8,10.6s6.5-7.5,15-7
		c8.5,0.5,14.9,3.2,14.9,3.2s-3.8-5.4-10.9-8.9c-7.1-3.5-10.4-5-10.4-5s6.5-0.3,12.8,3.7c6.2,4,10.7,7.9,10.7,7.9
		s-8.6-10.3-14.3-15.3c-5.7-5-9-12.2-9-12.2l-8.2-8.2c0,0-0.2,5.3,4,9.1c2.9,2.6,4.3,3.6,4.9,4c-1-0.5-4-2-6.9-2.2l-3.6-0.3
		C7.8,127.5,10.4,132.3,17.5,135.2L17.5,135.2z"/>
	<path class="st0" d="M120.1,170.6C120.1,170.5,120.1,170.5,120.1,170.6C120.1,170.5,120.1,170.6,120.1,170.6L120.1,170.6z
		 M117.2,181.2c4.6-6.7,13.4-9.9,13.4-9.9s-4,3.9-6.7,8.3c-2.7,4.4-4.6,10.9-4.6,10.9s1.3-3.2,4.8-6.9c3.5-3.7,9.3-6.2,9.3-6.2
		s-0.9,1.8-3.8,8.2c-2.9,6.4-9.3,8.4-9.3,8.4l11.8-3.6l4.6-4.6c0,0,0.9-7.3,0.5-15.9c-8.6,1.1-16.8-0.8-20-5.6c-6-9.2-2.6-17-2.6-17
		c-4.3,1.1-7.3,1.4-7.3,1.4v6.6c5.1,11.2,3.4,21.8,3.4,21.8s0.4-0.8,3-3.2c2.5-2.3,5.8-3.1,6.2-3.2c-0.3,0.1-2.6,1-6.4,10.7
		c-4.1,10.4-2.8,30.3-2.8,30.3l1.5-1.5c0,0,0.8-5.2,2.3-8.9c1.5-3.7,2.9-8.1,2.9-8.1l-4.6,7.3C113,200.4,112.6,187.9,117.2,181.2
		L117.2,181.2z"/>
	<path class="st1" d="M117.4,164.1c3.2,4.8,11.4,6.7,20,5.6c-0.3-8.8-1.9-18.8-6.8-23.8c-1.2-1.3-2.6-2.3-4.1-3.2
		c-4.2,2.2-8.3,3.6-11.7,4.4C114.8,147.1,111.3,155,117.4,164.1L117.4,164.1z"/>
	<path class="st1" d="M136.3,135.6c2.3,1.6,4.7,3.6,6.8,6.3c0,0,10.5-13,11.9-28.4c0.2-2,0.2-4,0.1-6h-9.8c0.1,2.5,0.1,5.2-0.1,8.1
		C144.7,124.4,141,130.9,136.3,135.6L136.3,135.6z"/>
	<path class="st0" d="M128,137.1c3.7-1.9-1.6-6-1.6-6s4.7,1.1,9.8,4.6c4.8-4.8,8.4-11.2,8.9-20c0.2-2.9,0.2-5.6,0.1-8.1h-11.3
		c5.7,10.2,1.8,21.6,1.8,21.6s-16.2-13.8-19.1-5.6C113.8,131.6,124.3,139,128,137.1L128,137.1z"/>
	<path class="st0" d="M126.5,142.7c-6.1-3.6-13.9-4.2-19-4.1v9.9c0,0,3-0.3,7.3-1.4C118.2,146.2,122.3,144.8,126.5,142.7
		L126.5,142.7z"/>
	<path class="st0" d="M158.4,151.8c0,0-4.2,6.1-9.4,5.8c0.4,3.3,0.5,6.1,0.3,8.5c3.4-1.7,6.4-4.1,8.6-7c9.8-12.8,9.3-27.8,3.3-32.9
		c0,0-1.8,2.6-1.8,5.9c0,3.3,0.8,5.9,0.8,5.9s-2.1-4.1-2.4-7.9c-0.3-3.8,0.8-6.6,0.8-6.6s-5.6,4.7-5.5,12.1
		c0.1,7.4,3.8,12.2,3.8,12.2s-3.7-2.1-4.9-6.4c-1.2-4.3-0.1-7.8-0.1-7.8s-3.9,5-3.1,10.1C149.6,148.8,158.4,151.8,158.4,151.8
		L158.4,151.8z"/>
	<path class="st0" d="M177.8,128.3c0,0.2,0,0.4,0,0.4S177.8,128.5,177.8,128.3L177.8,128.3z M192.5,125.8c-0.1,0.2-0.2,0.4-0.2,0.4
		S192.3,126.1,192.5,125.8L192.5,125.8z M187.3,125c-2.8,7.1-4.4,9.2-4.4,9.2s0.5-5.4,2.6-11c2.1-5.6,4.7-8.6,4.7-8.6
		s-8.5,1.4-10.5,6.5c-1.6,4-1.9,6.3-1.9,7.1c0,0,0,0,0,0c0,0,0-0.3,0-0.7c-0.1-1.9-0.6-5.9-3.3-8.4c-3.7-3.3-10.6-2.8-10.6-2.8
		s7.5,6.5,7,15c-0.5,8.5-3.2,14.9-3.2,14.9s5.4-3.8,8.9-10.9c3.5-7.1,5-10.4,5-10.4s0.3,6.5-3.7,12.8c-4,6.2-7.9,10.7-7.9,10.7
		s10.3-8.6,15.3-14.3c5-5.7,12.2-9,12.2-9l8.2-8.2c0,0-5.3-0.2-9.1,4c-2.6,2.9-3.6,4.3-4,4.9c0.5-1,2-4,2.2-6.9l0.3-3.6
		C195,115.3,190.2,117.9,187.3,125L187.3,125z"/>
	<path class="st0" d="M151.9,202.4C152,202.4,152,202.4,151.9,202.4C152,202.4,151.9,202.4,151.9,202.4L151.9,202.4z M141.3,205.3
		c6.7-4.6,9.9-13.4,9.9-13.4s-3.9,4-8.3,6.7c-4.4,2.7-10.9,4.6-10.9,4.6s3.2-1.3,6.9-4.8c3.7-3.5,6.2-9.3,6.2-9.3s-1.8,0.9-8.2,3.8
		c-6.4,2.9-8.4,9.3-8.4,9.3l3.6-11.8l4.6-4.6c0,0,7.3-0.9,15.9-0.5c-1.1,8.6,0.8,16.8,5.6,20c9.2,6,17,2.6,17,2.6
		c-1.1,4.3-1.4,7.3-1.4,7.3h-6.6c-11.2-5.1-21.8-3.4-21.8-3.4s0.8-0.4,3.2-3c2.3-2.5,3.1-5.8,3.2-6.2c-0.1,0.3-1,2.6-10.7,6.4
		c-10.4,4.1-30.3,2.8-30.3,2.8l1.5-1.5c0,0,5.2-0.8,8.9-2.3c3.7-1.5,8.1-2.9,8.1-2.9l-7.3,4.6C122.1,209.5,134.6,209.9,141.3,205.3
		L141.3,205.3z"/>
	<path class="st1" d="M158.4,205.1c-4.8-3.2-6.7-11.4-5.6-20c8.8,0.3,18.8,1.9,23.8,6.8c1.3,1.2,2.3,2.6,3.2,4.1
		c-2.2,4.2-3.6,8.3-4.4,11.7C175.4,207.7,167.5,211.2,158.4,205.1L158.4,205.1z"/>
	<path class="st1" d="M186.9,186.2c-1.6-2.3-3.6-4.7-6.3-6.8c0,0,13-10.5,28.4-11.9c2-0.2,4-0.2,6-0.1v9.8c-2.5-0.1-5.2-0.1-8.1,0.1
		C198.1,177.8,191.6,181.5,186.9,186.2L186.9,186.2z"/>
	<path class="st0" d="M185.4,194.5c1.9-3.7,6,1.6,6,1.6s-1.1-4.7-4.6-9.8c4.8-4.8,11.2-8.4,20-8.9c2.9-0.2,5.6-0.2,8.1-0.1v11.3
		c-10.2-5.7-21.6-1.8-21.6-1.8s13.8,16.2,5.6,19.1C190.9,208.7,183.5,198.2,185.4,194.5L185.4,194.5z"/>
	<path class="st0" d="M179.8,196c3.6,6.1,4.2,13.9,4.1,19H174c0,0,0.3-3,1.4-7.3C176.3,204.3,177.7,200.2,179.8,196L179.8,196z"/>
	<path class="st0" d="M170.7,164.1c0,0-6.1,4.2-5.8,9.4c-3.3-0.4-6.1-0.5-8.5-0.3c1.7-3.4,4.1-6.4,7-8.6c12.8-9.8,27.8-9.3,32.9-3.3
		c0,0-2.6,1.8-5.9,1.8c-3.3,0-5.9-0.8-5.9-0.8s4.1,2.1,7.9,2.4c3.8,0.3,6.6-0.8,6.6-0.8s-4.7,5.6-12.1,5.5
		c-7.4-0.1-12.2-3.8-12.2-3.8s2.1,3.7,6.4,4.9c4.3,1.2,7.8,0.1,7.8,0.1s-5,3.9-10.1,3.1C173.7,172.9,170.7,164.1,170.7,164.1
		L170.7,164.1z"/>
	<path class="st0" d="M194.2,144.7c-0.2,0-0.4,0-0.4,0S194,144.7,194.2,144.7L194.2,144.7z M196.7,130c-0.2,0.1-0.4,0.2-0.4,0.2
		S196.4,130.2,196.7,130L196.7,130z M197.5,135.2c-7.1,2.8-9.2,4.4-9.2,4.4s5.4-0.5,11-2.6c5.6-2.1,8.6-4.7,8.6-4.7
		s-1.4,8.5-6.5,10.5c-4,1.6-6.3,1.9-7.1,1.9c0,0,0,0,0,0c0,0,0.3,0,0.7,0c1.9,0.1,5.9,0.6,8.4,3.3c3.3,3.7,2.8,10.6,2.8,10.6
		s-6.5-7.5-15-7c-8.5,0.5-14.9,3.2-14.9,3.2s3.8-5.4,10.9-8.9c7.1-3.5,10.4-5,10.4-5s-6.5-0.3-12.8,3.7c-6.2,4-10.7,7.9-10.7,7.9
		s8.6-10.3,14.3-15.3c5.7-5,9-12.2,9-12.2l8.2-8.2c0,0,0.2,5.3-4,9.1c-2.9,2.6-4.3,3.6-4.9,4c1-0.5,4-2,6.9-2.2l3.6-0.3
		C207.2,127.5,204.6,132.3,197.5,135.2L197.5,135.2z"/>
	<path class="st0" d="M94.9,44.4C94.9,44.5,94.9,44.5,94.9,44.4C94.9,44.5,94.9,44.4,94.9,44.4L94.9,44.4z M97.8,33.8
		c-4.6,6.7-13.4,9.9-13.4,9.9s4-3.9,6.7-8.3c2.7-4.4,4.6-10.9,4.6-10.9s-1.3,3.2-4.8,6.9c-3.5,3.7-9.3,6.2-9.3,6.2s0.9-1.8,3.8-8.2
		c2.9-6.4,9.3-8.4,9.3-8.4l-11.8,3.6l-4.6,4.6c0,0-0.9,7.3-0.5,15.9c8.6-1.1,16.8,0.8,20,5.6c6,9.2,2.6,17,2.6,17
		c4.3-1.1,7.3-1.4,7.3-1.4v-6.6c-5.1-11.2-3.4-21.8-3.4-21.8s-0.4,0.8-3,3.2c-2.5,2.3-5.8,3.1-6.2,3.2c0.3-0.1,2.6-1,6.4-10.7
		c4.1-10.4,2.8-30.3,2.8-30.3l-1.5,1.5c0,0-0.8,5.2-2.3,8.9c-1.5,3.7-2.9,8.1-2.9,8.1l4.6-7.3C102,14.6,102.4,27.1,97.8,33.8
		L97.8,33.8z"/>
	<path class="st1" d="M97.6,50.9c-3.2-4.8-11.4-6.7-20-5.6c0.3,8.8,1.9,18.8,6.8,23.8c1.2,1.3,2.6,2.3,4.1,3.2
		c4.2-2.2,8.3-3.6,11.7-4.4C100.2,67.9,103.7,60,97.6,50.9L97.6,50.9z"/>
	<path class="st1" d="M78.7,79.4c-2.3-1.6-4.7-3.6-6.8-6.3c0,0-10.5,13-11.9,28.4c-0.2,2-0.2,4-0.1,6h9.8c-0.1-2.5-0.1-5.2,0.1-8.1
		C70.3,90.6,74,84.1,78.7,79.4L78.7,79.4z"/>
	<path class="st0" d="M87,77.9c-3.7,1.9,1.6,6,1.6,6s-4.7-1.1-9.8-4.6c-4.8,4.8-8.4,11.2-8.9,20c-0.2,2.9-0.2,5.6-0.1,8.1h11.3
		c-5.7-10.2-1.8-21.6-1.8-21.6s16.2,13.8,19.1,5.6C101.2,83.4,90.7,76,87,77.9L87,77.9z"/>
	<path class="st0" d="M88.5,72.3c6.1,3.6,13.9,4.2,19,4.1v-9.9c0,0-3,0.3-7.3,1.4C96.8,68.8,92.7,70.2,88.5,72.3L88.5,72.3z"/>
	<path class="st0" d="M56.6,63.2c0,0,4.2-6.1,9.4-5.8c-0.4-3.3-0.5-6.1-0.3-8.5c-3.4,1.7-6.4,4.1-8.6,7c-9.8,12.8-9.3,27.8-3.3,32.9
		c0,0,1.8-2.6,1.8-5.9c0-3.3-0.8-5.9-0.8-5.9s2.1,4.1,2.4,7.9c0.3,3.8-0.8,6.6-0.8,6.6s5.6-4.7,5.5-12.1c-0.1-7.4-3.8-12.2-3.8-12.2
		s3.7,2.1,4.9,6.4c1.2,4.3,0.1,7.8,0.1,7.8s3.9-5,3.1-10.1C65.4,66.2,56.6,63.2,56.6,63.2L56.6,63.2z"/>
	<path class="st0" d="M37.2,86.7c0-0.2,0-0.4,0-0.4S37.2,86.5,37.2,86.7L37.2,86.7z M22.5,89.2c0.1-0.2,0.2-0.4,0.2-0.4
		S22.7,88.9,22.5,89.2L22.5,89.2z M27.7,90c2.8-7.1,4.4-9.2,4.4-9.2s-0.5,5.4-2.6,11c-2.1,5.6-4.7,8.6-4.7,8.6s8.5-1.4,10.5-6.5
		c1.6-4,1.9-6.3,1.9-7.1c0,0,0,0,0,0c0,0,0,0.3,0,0.7c0.1,1.9,0.6,5.9,3.3,8.4c3.7,3.3,10.6,2.8,10.6,2.8s-7.5-6.5-7-15
		c0.5-8.5,3.2-14.9,3.2-14.9s-5.4,3.8-8.9,10.9c-3.5,7.1-5,10.4-5,10.4s-0.3-6.5,3.7-12.8c4-6.2,7.9-10.7,7.9-10.7
		s-10.3,8.6-15.3,14.3c-5,5.7-12.2,9-12.2,9l-8.2,8.2c0,0,5.3,0.2,9.1-4c2.6-2.9,3.6-4.3,4-4.9c-0.5,1-2,4-2.2,6.9L20,99.7
		C20,99.7,24.8,97.1,27.7,90L27.7,90z"/>
	<path class="st0" d="M63.1,12.6C63,12.6,63,12.6,63.1,12.6C63,12.6,63.1,12.6,63.1,12.6L63.1,12.6z M73.7,9.7
		c-6.7,4.6-9.9,13.4-9.9,13.4s3.9-4,8.3-6.7c4.4-2.7,10.9-4.6,10.9-4.6s-3.2,1.3-6.9,4.8c-3.7,3.5-6.2,9.3-6.2,9.3s1.8-0.9,8.2-3.8
		c6.4-2.9,8.4-9.3,8.4-9.3l-3.6,11.8l-4.6,4.6c0,0-7.3,0.9-15.9,0.5c1.1-8.6-0.8-16.8-5.6-20c-9.2-6-17-2.6-17-2.6C40.7,3,41,0,41,0
		h6.6c11.2,5.1,21.8,3.4,21.8,3.4s-0.8,0.4-3.2,3c-2.3,2.5-3.1,5.8-3.2,6.2c0.1-0.3,1-2.6,10.7-6.4c10.4-4.1,30.3-2.8,30.3-2.8
		l-1.5,1.5c0,0-5.2,0.8-8.9,2.3c-3.7,1.5-8.1,2.9-8.1,2.9l7.3-4.6C92.9,5.5,80.4,5.1,73.7,9.7L73.7,9.7z"/>
	<path class="st1" d="M56.6,9.9c4.8,3.2,6.7,11.4,5.6,20c-8.8-0.3-18.8-1.9-23.8-6.8c-1.3-1.2-2.3-2.6-3.2-4.1
		c2.2-4.2,3.6-8.3,4.4-11.7C39.6,7.3,47.5,3.8,56.6,9.9L56.6,9.9z"/>
	<path class="st1" d="M28.1,28.8c1.6,2.3,3.6,4.7,6.3,6.8c0,0-13,10.5-28.4,11.9c-2,0.2-4,0.2-6,0.1v-9.8c2.5,0.1,5.2,0.1,8.1-0.1
		C16.9,37.2,23.4,33.5,28.1,28.8L28.1,28.8z"/>
	<path class="st0" d="M29.6,20.5c-1.9,3.7-6-1.6-6-1.6s1.1,4.7,4.6,9.8c-4.8,4.8-11.2,8.4-20,8.9c-2.9,0.2-5.6,0.2-8.1,0.1V26.6
		c10.2,5.7,21.6,1.8,21.6,1.8S7.8,12.2,16,9.3C24.1,6.3,31.5,16.8,29.6,20.5L29.6,20.5z"/>
	<path class="st0" d="M35.2,19C31.5,12.8,31,5.1,31.1,0H41c0,0-0.3,3-1.4,7.3C38.7,10.7,37.3,14.8,35.2,19L35.2,19z"/>
	<path class="st0" d="M44.3,50.9c0,0,6.1-4.2,5.8-9.4c3.3,0.4,6.1,0.5,8.5,0.3c-1.7,3.4-4.1,6.4-7,8.6c-12.8,9.8-27.8,9.3-32.9,3.3
		c0,0,2.6-1.8,5.9-1.8c3.3,0,5.9,0.8,5.9,0.8s-4.1-2.1-7.9-2.4C18.8,50,16,51.1,16,51.1s4.7-5.6,12.1-5.5c7.4,0.1,12.2,3.8,12.2,3.8
		s-2.1-3.7-6.4-4.9c-4.3-1.2-7.8-0.1-7.8-0.1s5-3.9,10.1-3.1C41.3,42.1,44.3,50.9,44.3,50.9L44.3,50.9z"/>
	<path class="st0" d="M20.8,70.3c0.2,0,0.4,0,0.4,0S21,70.3,20.8,70.3L20.8,70.3z M18.3,85c0.2-0.1,0.4-0.2,0.4-0.2
		S18.6,84.8,18.3,85L18.3,85z M17.5,79.8c7.1-2.8,9.2-4.4,9.2-4.4s-5.4,0.5-11,2.6c-5.6,2.1-8.6,4.7-8.6,4.7s1.4-8.5,6.5-10.5
		c4-1.6,6.3-1.9,7.1-1.9c0,0,0,0,0,0c0,0-0.3,0-0.7,0c-1.9-0.1-5.9-0.6-8.4-3.3c-3.3-3.7-2.8-10.6-2.8-10.6s6.5,7.5,15,7
		c8.5-0.5,14.9-3.2,14.9-3.2S35,65.5,27.8,69c-7.1,3.5-10.4,5-10.4,5s6.5,0.3,12.8-3.7c6.2-4,10.7-7.9,10.7-7.9s-8.6,10.3-14.3,15.3
		c-5.7,5-9,12.2-9,12.2l-8.2,8.2c0,0-0.2-5.3,4-9.1c2.9-2.6,4.3-3.6,4.9-4c-1,0.5-4,2-6.9,2.2l-3.6,0.3
		C7.8,87.5,10.4,82.7,17.5,79.8L17.5,79.8z"/>
	<path class="st0" d="M120.1,44.4C120.1,44.5,120.1,44.5,120.1,44.4C120.1,44.5,120.1,44.4,120.1,44.4L120.1,44.4z M117.2,33.8
		c4.6,6.7,13.4,9.9,13.4,9.9s-4-3.9-6.7-8.3c-2.7-4.4-4.6-10.9-4.6-10.9s1.3,3.2,4.8,6.9c3.5,3.7,9.3,6.2,9.3,6.2s-0.9-1.8-3.8-8.2
		c-2.9-6.4-9.3-8.4-9.3-8.4l11.8,3.6l4.6,4.6c0,0,0.9,7.3,0.5,15.9c-8.6-1.1-16.8,0.8-20,5.6c-6,9.2-2.6,17-2.6,17
		c-4.3-1.1-7.3-1.4-7.3-1.4v-6.6c5.1-11.2,3.4-21.8,3.4-21.8s0.4,0.8,3,3.2c2.5,2.3,5.8,3.1,6.2,3.2c-0.3-0.1-2.6-1-6.4-10.7
		c-4.1-10.4-2.8-30.3-2.8-30.3l1.5,1.5c0,0,0.8,5.2,2.3,8.9c1.5,3.7,2.9,8.1,2.9,8.1l-4.6-7.3C113,14.6,112.6,27.1,117.2,33.8
		L117.2,33.8z"/>
	<path class="st1" d="M117.4,50.9c3.2-4.8,11.4-6.7,20-5.6c-0.3,8.8-1.9,18.8-6.8,23.8c-1.2,1.3-2.6,2.3-4.1,3.2
		c-4.2-2.2-8.3-3.6-11.7-4.4C114.8,67.9,111.3,60,117.4,50.9L117.4,50.9z"/>
	<path class="st1" d="M136.3,79.4c2.3-1.6,4.7-3.6,6.8-6.3c0,0,10.5,13,11.9,28.4c0.2,2,0.2,4,0.1,6h-9.8c0.1-2.5,0.1-5.2-0.1-8.1
		C144.7,90.6,141,84.1,136.3,79.4L136.3,79.4z"/>
	<path class="st0" d="M128,77.9c3.7,1.9-1.6,6-1.6,6s4.7-1.1,9.8-4.6c4.8,4.8,8.4,11.2,8.9,20c0.2,2.9,0.2,5.6,0.1,8.1h-11.3
		c5.7-10.2,1.8-21.6,1.8-21.6s-16.2,13.8-19.1,5.6C113.8,83.4,124.3,76,128,77.9L128,77.9z"/>
	<path class="st0" d="M126.5,72.3c-6.1,3.6-13.9,4.2-19,4.1v-9.9c0,0,3,0.3,7.3,1.4C118.2,68.8,122.3,70.2,126.5,72.3L126.5,72.3z"
		/>
	<path class="st0" d="M158.4,63.2c0,0-4.2-6.1-9.4-5.8c0.4-3.3,0.5-6.1,0.3-8.5c3.4,1.7,6.4,4.1,8.6,7c9.8,12.8,9.3,27.8,3.3,32.9
		c0,0-1.8-2.6-1.8-5.9c0-3.3,0.8-5.9,0.8-5.9s-2.1,4.1-2.4,7.9c-0.3,3.8,0.8,6.6,0.8,6.6s-5.6-4.7-5.5-12.1
		c0.1-7.4,3.8-12.2,3.8-12.2s-3.7,2.1-4.9,6.4c-1.2,4.3-0.1,7.8-0.1,7.8s-3.9-5-3.1-10.1C149.6,66.2,158.4,63.2,158.4,63.2
		L158.4,63.2z"/>
	<path class="st0" d="M177.8,86.7c0-0.2,0-0.4,0-0.4S177.8,86.5,177.8,86.7L177.8,86.7z M192.5,89.2c-0.1-0.2-0.2-0.4-0.2-0.4
		S192.3,88.9,192.5,89.2L192.5,89.2z M187.3,90c-2.8-7.1-4.4-9.2-4.4-9.2s0.5,5.4,2.6,11c2.1,5.6,4.7,8.6,4.7,8.6s-8.5-1.4-10.5-6.5
		c-1.6-4-1.9-6.3-1.9-7.1c0,0,0,0,0,0c0,0,0,0.3,0,0.7c-0.1,1.9-0.6,5.9-3.3,8.4c-3.7,3.3-10.6,2.8-10.6,2.8s7.5-6.5,7-15
		c-0.5-8.5-3.2-14.9-3.2-14.9s5.4,3.8,8.9,10.9c3.5,7.1,5,10.4,5,10.4s0.3-6.5-3.7-12.8c-4-6.2-7.9-10.7-7.9-10.7
		s10.3,8.6,15.3,14.3c5,5.7,12.2,9,12.2,9l8.2,8.2c0,0-5.3,0.2-9.1-4c-2.6-2.9-3.6-4.3-4-4.9c0.5,1,2,4,2.2,6.9l0.3,3.6
		C195,99.7,190.2,97.1,187.3,90L187.3,90z"/>
	<path class="st0" d="M151.9,12.6C152,12.6,152,12.6,151.9,12.6C152,12.6,151.9,12.6,151.9,12.6L151.9,12.6z M141.3,9.7
		c6.7,4.6,9.9,13.4,9.9,13.4s-3.9-4-8.3-6.7c-4.4-2.7-10.9-4.6-10.9-4.6s3.2,1.3,6.9,4.8c3.7,3.5,6.2,9.3,6.2,9.3s-1.8-0.9-8.2-3.8
		c-6.4-2.9-8.4-9.3-8.4-9.3l3.6,11.8l4.6,4.6c0,0,7.3,0.9,15.9,0.5c-1.1-8.6,0.8-16.8,5.6-20c9.2-6,17-2.6,17-2.6
		C174.3,3,174,0,174,0h-6.6c-11.2,5.1-21.8,3.4-21.8,3.4s0.8,0.4,3.2,3c2.3,2.5,3.1,5.8,3.2,6.2c-0.1-0.3-1-2.6-10.7-6.4
		c-10.4-4.1-30.3-2.8-30.3-2.8l1.5,1.5c0,0,5.2,0.8,8.9,2.3c3.7,1.5,8.1,2.9,8.1,2.9l-7.3-4.6C122.1,5.5,134.6,5.1,141.3,9.7
		L141.3,9.7z"/>
	<path class="st1" d="M158.4,9.9c-4.8,3.2-6.7,11.4-5.6,20c8.8-0.3,18.8-1.9,23.8-6.8c1.3-1.2,2.3-2.6,3.2-4.1
		c-2.2-4.2-3.6-8.3-4.4-11.7C175.4,7.3,167.5,3.8,158.4,9.9L158.4,9.9z"/>
	<path class="st1" d="M186.9,28.8c-1.6,2.3-3.6,4.7-6.3,6.8c0,0,13,10.5,28.4,11.9c2,0.2,4,0.2,6,0.1v-9.8c-2.5,0.1-5.2,0.1-8.1-0.1
		C198.1,37.2,191.6,33.5,186.9,28.8L186.9,28.8z"/>
	<path class="st0" d="M185.4,20.5c1.9,3.7,6-1.6,6-1.6s-1.1,4.7-4.6,9.8c4.8,4.8,11.2,8.4,20,8.9c2.9,0.2,5.6,0.2,8.1,0.1V26.6
		c-10.2,5.7-21.6,1.8-21.6,1.8s13.8-16.2,5.6-19.1C190.9,6.3,183.5,16.8,185.4,20.5L185.4,20.5z"/>
	<path class="st0" d="M179.8,19c3.6-6.1,4.2-13.9,4.1-19H174c0,0,0.3,3,1.4,7.3C176.3,10.7,177.7,14.8,179.8,19L179.8,19z"/>
	<path class="st0" d="M170.7,50.9c0,0-6.1-4.2-5.8-9.4c-3.3,0.4-6.1,0.5-8.5,0.3c1.7,3.4,4.1,6.4,7,8.6c12.8,9.8,27.8,9.3,32.9,3.3
		c0,0-2.6-1.8-5.9-1.8c-3.3,0-5.9,0.8-5.9,0.8s4.1-2.1,7.9-2.4c3.8-0.3,6.6,0.8,6.6,0.8s-4.7-5.6-12.1-5.5
		c-7.4,0.1-12.2,3.8-12.2,3.8s2.1-3.7,6.4-4.9c4.3-1.2,7.8-0.1,7.8-0.1s-5-3.9-10.1-3.1C173.7,42.1,170.7,50.9,170.7,50.9
		L170.7,50.9z"/>
	<path class="st0" d="M194.2,70.3c-0.2,0-0.4,0-0.4,0S194,70.3,194.2,70.3L194.2,70.3z M196.7,85c-0.2-0.1-0.4-0.2-0.4-0.2
		S196.4,84.8,196.7,85L196.7,85z M197.5,79.8c-7.1-2.8-9.2-4.4-9.2-4.4s5.4,0.5,11,2.6c5.6,2.1,8.6,4.7,8.6,4.7s-1.4-8.5-6.5-10.5
		c-4-1.6-6.3-1.9-7.1-1.9c0,0,0,0,0,0c0,0,0.3,0,0.7,0c1.9-0.1,5.9-0.6,8.4-3.3c3.3-3.7,2.8-10.6,2.8-10.6s-6.5,7.5-15,7
		c-8.5-0.5-14.9-3.2-14.9-3.2s3.8,5.4,10.9,8.9c7.1,3.5,10.4,5,10.4,5s-6.5,0.3-12.8-3.7c-6.2-4-10.7-7.9-10.7-7.9
		s8.6,10.3,14.3,15.3c5.7,5,9,12.2,9,12.2l8.2,8.2c0,0,0.2-5.3-4-9.1c-2.9-2.6-4.3-3.6-4.9-4c1,0.5,4,2,6.9,2.2l3.6,0.3
		C207.2,87.5,204.6,82.7,197.5,79.8L197.5,79.8z"/>
	<path class="st0" d="M94.9,170.6C94.9,170.5,94.9,170.5,94.9,170.6C94.9,170.5,94.9,170.6,94.9,170.6L94.9,170.6z M97.8,181.2
		c-4.6-6.7-13.4-9.9-13.4-9.9s4,3.9,6.7,8.3c2.7,4.4,4.6,10.9,4.6,10.9s-1.3-3.2-4.8-6.9c-3.5-3.7-9.3-6.2-9.3-6.2s0.9,1.8,3.8,8.2
		c2.9,6.4,9.3,8.4,9.3,8.4l-11.8-3.6l-4.6-4.6c0,0-0.9-7.3-0.5-15.9c8.6,1.1,16.8-0.8,20-5.6c6-9.2,2.6-17,2.6-17
		c4.3,1.1,7.3,1.4,7.3,1.4v6.6c-5.1,11.2-3.4,21.8-3.4,21.8s-0.4-0.8-3-3.2c-2.5-2.3-5.8-3.1-6.2-3.2c0.3,0.1,2.6,1,6.4,10.7
		c4.1,10.4,2.8,30.3,2.8,30.3l-1.5-1.5c0,0-0.8-5.2-2.3-8.9c-1.5-3.7-2.9-8.1-2.9-8.1l4.6,7.3C102,200.4,102.4,187.9,97.8,181.2
		L97.8,181.2z"/>
	<path class="st1" d="M97.6,164.1c-3.2,4.8-11.4,6.7-20,5.6c0.3-8.8,1.9-18.8,6.8-23.8c1.2-1.3,2.6-2.3,4.1-3.2
		c4.2,2.2,8.3,3.6,11.7,4.4C100.2,147.1,103.7,155,97.6,164.1L97.6,164.1z"/>
	<path class="st1" d="M78.7,135.6c-2.3,1.6-4.7,3.6-6.8,6.3c0,0-10.5-13-11.9-28.4c-0.2-2-0.2-4-0.1-6h9.8c-0.1,2.5-0.1,5.2,0.1,8.1
		C70.3,124.4,74,130.9,78.7,135.6L78.7,135.6z"/>
	<path class="st0" d="M87,137.1c-3.7-1.9,1.6-6,1.6-6s-4.7,1.1-9.8,4.6c-4.8-4.8-8.4-11.2-8.9-20c-0.2-2.9-0.2-5.6-0.1-8.1h11.3
		c-5.7,10.2-1.8,21.6-1.8,21.6s16.2-13.8,19.1-5.6C101.2,131.6,90.7,139,87,137.1L87,137.1z"/>
	<path class="st0" d="M88.5,142.7c6.1-3.6,13.9-4.2,19-4.1v9.9c0,0-3-0.3-7.3-1.4C96.8,146.2,92.7,144.8,88.5,142.7L88.5,142.7z"/>
	<path class="st0" d="M56.6,151.8c0,0,4.2,6.1,9.4,5.8c-0.4,3.3-0.5,6.1-0.3,8.5c-3.4-1.7-6.4-4.1-8.6-7
		c-9.8-12.8-9.3-27.8-3.3-32.9c0,0,1.8,2.6,1.8,5.9c0,3.3-0.8,5.9-0.8,5.9s2.1-4.1,2.4-7.9c0.3-3.8-0.8-6.6-0.8-6.6
		s5.6,4.7,5.5,12.1c-0.1,7.4-3.8,12.2-3.8,12.2s3.7-2.1,4.9-6.4c1.2-4.3,0.1-7.8,0.1-7.8s3.9,5,3.1,10.1
		C65.4,148.8,56.6,151.8,56.6,151.8L56.6,151.8z"/>
	<path class="st0" d="M37.2,128.3c0,0.2,0,0.4,0,0.4S37.2,128.5,37.2,128.3L37.2,128.3z M22.5,125.8c0.1,0.2,0.2,0.4,0.2,0.4
		S22.7,126.1,22.5,125.8L22.5,125.8z M27.7,125c2.8,7.1,4.4,9.2,4.4,9.2s-0.5-5.4-2.6-11c-2.1-5.6-4.7-8.6-4.7-8.6s8.5,1.4,10.5,6.5
		c1.6,4,1.9,6.3,1.9,7.1c0,0,0,0,0,0c0,0,0-0.3,0-0.7c0.1-1.9,0.6-5.9,3.3-8.4c3.7-3.3,10.6-2.8,10.6-2.8s-7.5,6.5-7,15
		c0.5,8.5,3.2,14.9,3.2,14.9s-5.4-3.8-8.9-10.9c-3.5-7.1-5-10.4-5-10.4s-0.3,6.5,3.7,12.8c4,6.2,7.9,10.7,7.9,10.7
		s-10.3-8.6-15.3-14.3c-5-5.7-12.2-9-12.2-9l-8.2-8.2c0,0,5.3-0.2,9.1,4c2.6,2.9,3.6,4.3,4,4.9c-0.5-1-2-4-2.2-6.9l-0.3-3.6
		C20,115.3,24.8,117.9,27.7,125L27.7,125z"/>
	<path class="st0" d="M63.1,202.4C63,202.4,63,202.4,63.1,202.4C63,202.4,63.1,202.4,63.1,202.4L63.1,202.4z M73.7,205.3
		c-6.7-4.6-9.9-13.4-9.9-13.4s3.9,4,8.3,6.7c4.4,2.7,10.9,4.6,10.9,4.6s-3.2-1.3-6.9-4.8c-3.7-3.5-6.2-9.3-6.2-9.3s1.8,0.9,8.2,3.8
		c6.4,2.9,8.4,9.3,8.4,9.3l-3.6-11.8l-4.6-4.6c0,0-7.3-0.9-15.9-0.5c1.1,8.6-0.8,16.8-5.6,20c-9.2,6-17,2.6-17,2.6
		C40.7,212,41,215,41,215h6.6c11.2-5.1,21.8-3.4,21.8-3.4s-0.8-0.4-3.2-3c-2.3-2.5-3.1-5.8-3.2-6.2c0.1,0.3,1,2.6,10.7,6.4
		c10.4,4.1,30.3,2.8,30.3,2.8l-1.5-1.5c0,0-5.2-0.8-8.9-2.3c-3.7-1.5-8.1-2.9-8.1-2.9l7.3,4.6C92.9,209.5,80.4,209.9,73.7,205.3
		L73.7,205.3z"/>
	<path class="st1" d="M56.6,205.1c4.8-3.2,6.7-11.4,5.6-20c-8.8,0.3-18.8,1.9-23.8,6.8c-1.3,1.2-2.3,2.6-3.2,4.1
		c2.2,4.2,3.6,8.3,4.4,11.7C39.6,207.7,47.5,211.2,56.6,205.1L56.6,205.1z"/>
	<path class="st1" d="M28.1,186.2c1.6-2.3,3.6-4.7,6.3-6.8c0,0-13-10.5-28.4-11.9c-2-0.2-4-0.2-6-0.1v9.8c2.5-0.1,5.2-0.1,8.1,0.1
		C16.9,177.8,23.4,181.5,28.1,186.2L28.1,186.2z"/>
	<path class="st0" d="M29.6,194.5c-1.9-3.7-6,1.6-6,1.6s1.1-4.7,4.6-9.8c-4.8-4.8-11.2-8.4-20-8.9c-2.9-0.2-5.6-0.2-8.1-0.1v11.3
		c10.2-5.7,21.6-1.8,21.6-1.8S7.8,202.8,16,205.7C24.1,208.7,31.5,198.2,29.6,194.5L29.6,194.5z"/>
	<path class="st0" d="M35.2,196c-3.6,6.1-4.2,13.9-4.1,19H41c0,0-0.3-3-1.4-7.3C38.7,204.3,37.3,200.2,35.2,196L35.2,196z"/>
	<path class="st0" d="M44.3,164.1c0,0,6.1,4.2,5.8,9.4c3.3-0.4,6.1-0.5,8.5-0.3c-1.7-3.4-4.1-6.4-7-8.6c-12.8-9.8-27.8-9.3-32.9-3.3
		c0,0,2.6,1.8,5.9,1.8c3.3,0,5.9-0.8,5.9-0.8s-4.1,2.1-7.9,2.4c-3.8,0.3-6.6-0.8-6.6-0.8s4.7,5.6,12.1,5.5
		c7.4-0.1,12.2-3.8,12.2-3.8s-2.1,3.7-6.4,4.9c-4.3,1.2-7.8,0.1-7.8,0.1s5,3.9,10.1,3.1C41.3,172.9,44.3,164.1,44.3,164.1
		L44.3,164.1z"/>
	<path class="st0" d="M20.8,144.7c0.2,0,0.4,0,0.4,0S21,144.7,20.8,144.7L20.8,144.7z M18.3,130c0.2,0.1,0.4,0.2,0.4,0.2
		S18.6,130.2,18.3,130L18.3,130z M17.5,135.2c7.1,2.8,9.2,4.4,9.2,4.4s-5.4-0.5-11-2.6c-5.6-2.1-8.6-4.7-8.6-4.7s1.4,8.5,6.5,10.5
		c4,1.6,6.3,1.9,7.1,1.9c0,0,0,0,0,0c0,0-0.3,0-0.7,0c-1.9,0.1-5.9,0.6-8.4,3.3c-3.3,3.7-2.8,10.6-2.8,10.6s6.5-7.5,15-7
		c8.5,0.5,14.9,3.2,14.9,3.2s-3.8-5.4-10.9-8.9c-7.1-3.5-10.4-5-10.4-5s6.5-0.3,12.8,3.7c6.2,4,10.7,7.9,10.7,7.9
		s-8.6-10.3-14.3-15.3c-5.7-5-9-12.2-9-12.2l-8.2-8.2c0,0-0.2,5.3,4,9.1c2.9,2.6,4.3,3.6,4.9,4c-1-0.5-4-2-6.9-2.2l-3.6-0.3
		C7.8,127.5,10.4,132.3,17.5,135.2L17.5,135.2z"/>
	<path class="st0" d="M120.1,170.6C120.1,170.5,120.1,170.5,120.1,170.6C120.1,170.5,120.1,170.6,120.1,170.6L120.1,170.6z
		 M117.2,181.2c4.6-6.7,13.4-9.9,13.4-9.9s-4,3.9-6.7,8.3c-2.7,4.4-4.6,10.9-4.6,10.9s1.3-3.2,4.8-6.9c3.5-3.7,9.3-6.2,9.3-6.2
		s-0.9,1.8-3.8,8.2c-2.9,6.4-9.3,8.4-9.3,8.4l11.8-3.6l4.6-4.6c0,0,0.9-7.3,0.5-15.9c-8.6,1.1-16.8-0.8-20-5.6c-6-9.2-2.6-17-2.6-17
		c-4.3,1.1-7.3,1.4-7.3,1.4v6.6c5.1,11.2,3.4,21.8,3.4,21.8s0.4-0.8,3-3.2c2.5-2.3,5.8-3.1,6.2-3.2c-0.3,0.1-2.6,1-6.4,10.7
		c-4.1,10.4-2.8,30.3-2.8,30.3l1.5-1.5c0,0,0.8-5.2,2.3-8.9c1.5-3.7,2.9-8.1,2.9-8.1l-4.6,7.3C113,200.4,112.6,187.9,117.2,181.2
		L117.2,181.2z"/>
	<path class="st1" d="M117.4,164.1c3.2,4.8,11.4,6.7,20,5.6c-0.3-8.8-1.9-18.8-6.8-23.8c-1.2-1.3-2.6-2.3-4.1-3.2
		c-4.2,2.2-8.3,3.6-11.7,4.4C114.8,147.1,111.3,155,117.4,164.1L117.4,164.1z"/>
	<path class="st1" d="M136.3,135.6c2.3,1.6,4.7,3.6,6.8,6.3c0,0,10.5-13,11.9-28.4c0.2-2,0.2-4,0.1-6h-9.8c0.1,2.5,0.1,5.2-0.1,8.1
		C144.7,124.4,141,130.9,136.3,135.6L136.3,135.6z"/>
	<path class="st0" d="M128,137.1c3.7-1.9-1.6-6-1.6-6s4.7,1.1,9.8,4.6c4.8-4.8,8.4-11.2,8.9-20c0.2-2.9,0.2-5.6,0.1-8.1h-11.3
		c5.7,10.2,1.8,21.6,1.8,21.6s-16.2-13.8-19.1-5.6C113.8,131.6,124.3,139,128,137.1L128,137.1z"/>
	<path class="st0" d="M126.5,142.7c-6.1-3.6-13.9-4.2-19-4.1v9.9c0,0,3-0.3,7.3-1.4C118.2,146.2,122.3,144.8,126.5,142.7
		L126.5,142.7z"/>
	<path class="st0" d="M158.4,151.8c0,0-4.2,6.1-9.4,5.8c0.4,3.3,0.5,6.1,0.3,8.5c3.4-1.7,6.4-4.1,8.6-7c9.8-12.8,9.3-27.8,3.3-32.9
		c0,0-1.8,2.6-1.8,5.9c0,3.3,0.8,5.9,0.8,5.9s-2.1-4.1-2.4-7.9c-0.3-3.8,0.8-6.6,0.8-6.6s-5.6,4.7-5.5,12.1
		c0.1,7.4,3.8,12.2,3.8,12.2s-3.7-2.1-4.9-6.4c-1.2-4.3-0.1-7.8-0.1-7.8s-3.9,5-3.1,10.1C149.6,148.8,158.4,151.8,158.4,151.8
		L158.4,151.8z"/>
	<path class="st0" d="M177.8,128.3c0,0.2,0,0.4,0,0.4S177.8,128.5,177.8,128.3L177.8,128.3z M192.5,125.8c-0.1,0.2-0.2,0.4-0.2,0.4
		S192.3,126.1,192.5,125.8L192.5,125.8z M187.3,125c-2.8,7.1-4.4,9.2-4.4,9.2s0.5-5.4,2.6-11c2.1-5.6,4.7-8.6,4.7-8.6
		s-8.5,1.4-10.5,6.5c-1.6,4-1.9,6.3-1.9,7.1c0,0,0,0,0,0c0,0,0-0.3,0-0.7c-0.1-1.9-0.6-5.9-3.3-8.4c-3.7-3.3-10.6-2.8-10.6-2.8
		s7.5,6.5,7,15c-0.5,8.5-3.2,14.9-3.2,14.9s5.4-3.8,8.9-10.9c3.5-7.1,5-10.4,5-10.4s0.3,6.5-3.7,12.8c-4,6.2-7.9,10.7-7.9,10.7
		s10.3-8.6,15.3-14.3c5-5.7,12.2-9,12.2-9l8.2-8.2c0,0-5.3-0.2-9.1,4c-2.6,2.9-3.6,4.3-4,4.9c0.5-1,2-4,2.2-6.9l0.3-3.6
		C195,115.3,190.2,117.9,187.3,125L187.3,125z"/>
	<path class="st0" d="M151.9,202.4C152,202.4,152,202.4,151.9,202.4C152,202.4,151.9,202.4,151.9,202.4L151.9,202.4z M141.3,205.3
		c6.7-4.6,9.9-13.4,9.9-13.4s-3.9,4-8.3,6.7c-4.4,2.7-10.9,4.6-10.9,4.6s3.2-1.3,6.9-4.8c3.7-3.5,6.2-9.3,6.2-9.3s-1.8,0.9-8.2,3.8
		c-6.4,2.9-8.4,9.3-8.4,9.3l3.6-11.8l4.6-4.6c0,0,7.3-0.9,15.9-0.5c-1.1,8.6,0.8,16.8,5.6,20c9.2,6,17,2.6,17,2.6
		c-1.1,4.3-1.4,7.3-1.4,7.3h-6.6c-11.2-5.1-21.8-3.4-21.8-3.4s0.8-0.4,3.2-3c2.3-2.5,3.1-5.8,3.2-6.2c-0.1,0.3-1,2.6-10.7,6.4
		c-10.4,4.1-30.3,2.8-30.3,2.8l1.5-1.5c0,0,5.2-0.8,8.9-2.3c3.7-1.5,8.1-2.9,8.1-2.9l-7.3,4.6C122.1,209.5,134.6,209.9,141.3,205.3
		L141.3,205.3z"/>
	<path class="st1" d="M158.4,205.1c-4.8-3.2-6.7-11.4-5.6-20c8.8,0.3,18.8,1.9,23.8,6.8c1.3,1.2,2.3,2.6,3.2,4.1
		c-2.2,4.2-3.6,8.3-4.4,11.7C175.4,207.7,167.5,211.2,158.4,205.1L158.4,205.1z"/>
	<path class="st1" d="M186.9,186.2c-1.6-2.3-3.6-4.7-6.3-6.8c0,0,13-10.5,28.4-11.9c2-0.2,4-0.2,6-0.1v9.8c-2.5-0.1-5.2-0.1-8.1,0.1
		C198.1,177.8,191.6,181.5,186.9,186.2L186.9,186.2z"/>
	<path class="st0" d="M185.4,194.5c1.9-3.7,6,1.6,6,1.6s-1.1-4.7-4.6-9.8c4.8-4.8,11.2-8.4,20-8.9c2.9-0.2,5.6-0.2,8.1-0.1v11.3
		c-10.2-5.7-21.6-1.8-21.6-1.8s13.8,16.2,5.6,19.1C190.9,208.7,183.5,198.2,185.4,194.5L185.4,194.5z"/>
	<path class="st0" d="M179.8,196c3.6,6.1,4.2,13.9,4.1,19H174c0,0,0.3-3,1.4-7.3C176.3,204.3,177.7,200.2,179.8,196L179.8,196z"/>
	<path class="st0" d="M170.7,164.1c0,0-6.1,4.2-5.8,9.4c-3.3-0.4-6.1-0.5-8.5-0.3c1.7-3.4,4.1-6.4,7-8.6c12.8-9.8,27.8-9.3,32.9-3.3
		c0,0-2.6,1.8-5.9,1.8c-3.3,0-5.9-0.8-5.9-0.8s4.1,2.1,7.9,2.4c3.8,0.3,6.6-0.8,6.6-0.8s-4.7,5.6-12.1,5.5
		c-7.4-0.1-12.2-3.8-12.2-3.8s2.1,3.7,6.4,4.9c4.3,1.2,7.8,0.1,7.8,0.1s-5,3.9-10.1,3.1C173.7,172.9,170.7,164.1,170.7,164.1
		L170.7,164.1z"/>
	<path class="st0" d="M194.2,144.7c-0.2,0-0.4,0-0.4,0S194,144.7,194.2,144.7L194.2,144.7z M196.7,130c-0.2,0.1-0.4,0.2-0.4,0.2
		S196.4,130.2,196.7,130L196.7,130z M197.5,135.2c-7.1,2.8-9.2,4.4-9.2,4.4s5.4-0.5,11-2.6c5.6-2.1,8.6-4.7,8.6-4.7
		s-1.4,8.5-6.5,10.5c-4,1.6-6.3,1.9-7.1,1.9c0,0,0,0,0,0c0,0,0.3,0,0.7,0c1.9,0.1,5.9,0.6,8.4,3.3c3.3,3.7,2.8,10.6,2.8,10.6
		s-6.5-7.5-15-7c-8.5,0.5-14.9,3.2-14.9,3.2s3.8-5.4,10.9-8.9c7.1-3.5,10.4-5,10.4-5s-6.5-0.3-12.8,3.7c-6.2,4-10.7,7.9-10.7,7.9
		s8.6-10.3,14.3-15.3c5.7-5,9-12.2,9-12.2l8.2-8.2c0,0,0.2,5.3-4,9.1c-2.9,2.6-4.3,3.6-4.9,4c1-0.5,4-2,6.9-2.2l3.6-0.3
		C207.2,127.5,204.6,132.3,197.5,135.2L197.5,135.2z"/>
	<g>
		<path class="st2" d="M97.4,21.9c0,0,1.5-4.4,2.9-8.1c1.5-3.7,2.3-8.9,2.3-8.9L82.8,24.7l11.8-3.6c0,0-6.3,1.9-9.3,8.4
			c-2.9,6.4-3.8,8.2-3.8,8.2s5.8-2.5,9.3-6.2c3.5-3.7,4.8-6.9,4.8-6.9s-1.8,6.5-4.6,10.9c-2.7,4.4-6.7,8.3-6.7,8.3s8.9-3.2,13.4-9.9
			c4.6-6.7,4.2-19.3,4.2-19.3L97.4,21.9L97.4,21.9z"/>
		<path class="st2" d="M71.9,73.1c2.1,2.7,4.5,4.7,6.8,6.3c3-3,6.4-5.3,9.8-7c-1.5-0.9-2.9-1.9-4.1-3.2c-4.9-5-6.5-15.1-6.8-23.8
			c-4.1,0.5-8.2,1.7-11.9,3.6c-0.2,2.4-0.2,5.2,0.3,8.5c0.3,1.9,0.7,4,1.3,6.2C68.3,67.4,69.9,70.5,71.9,73.1L71.9,73.1z"/>
		<path class="st2" d="M71.9,73.1c-2-2.5-3.6-5.6-4.6-9.4c-0.6-2.2-1-4.3-1.3-6.2c-5.2-0.3-9.4,5.8-9.4,5.8s8.8,2.9,9.5,8.1
			c0.8,5.2-3.1,10.1-3.1,10.1s1.1-3.5-0.1-7.8c-1.2-4.3-4.9-6.4-4.9-6.4s3.7,4.8,3.8,12.2c0.1,7.4-5.5,12.1-5.5,12.1
			s1.1-2.8,0.8-6.6c-0.3-3.8-2.4-7.9-2.4-7.9s0.8,2.6,0.8,5.9c0,3.3-1.8,5.9-1.8,5.9c-5.9-5.1-6.5-20.1,3.3-32.9
			c2.2-2.9,5.2-5.3,8.6-7c0.5-6.5,2.7-9.8,2.7-9.8L53.3,54.2c0,0-7,15.1-5.5,28.8C49.2,96.7,60,101.5,60,101.5
			C61.4,86,71.9,73.1,71.9,73.1L71.9,73.1z"/>
		<path class="st2" d="M38.5,79.7c3.5-7.1,8.9-10.9,8.9-10.9s-2.7,6.4-3.2,14.9c-0.5,8.5,7,15,7,15s-6.9,0.5-10.6-2.8
			c-2.8-2.5-3.2-6.5-3.3-8.4c0,2.6-0.7,12.2-8.4,20.1h31.1c-0.1-2-0.1-4,0.1-6c0,0-10.7-4.8-12.2-18.5c-1.5-13.7,5.5-28.8,5.5-28.8
			L17.6,89.9c0,0,7.2-3.2,12.2-9c5-5.7,15.3-14.3,15.3-14.3s-3.9,4.5-7.9,10.7c-4,6.2-3.7,12.8-3.7,12.8S35,86.8,38.5,79.7
			L38.5,79.7z"/>
		<path class="st2" d="M85.6,10.1c0,0,4.4-1.5,8.1-2.9c3.7-1.5,8.9-2.3,8.9-2.3L82.8,24.7l3.6-11.8c0,0-1.9,6.3-8.4,9.3
			c-6.4,2.9-8.2,3.8-8.2,3.8s2.5-5.8,6.2-9.3c3.7-3.5,6.9-4.8,6.9-4.8s-6.5,1.8-10.9,4.6c-4.4,2.7-8.3,6.7-8.3,6.7s3.2-8.9,9.9-13.4
			c6.7-4.6,19.3-4.2,19.3-4.2L85.6,10.1L85.6,10.1z"/>
		<path class="st2" d="M34.4,35.6c-2.7-2.1-4.7-4.5-6.3-6.8c3-3,5.3-6.4,7-9.8c0.9,1.5,1.9,2.9,3.2,4.1c5,4.9,15.1,6.5,23.8,6.8
			c-0.5,4.1-1.7,8.2-3.6,11.9c-2.4,0.2-5.2,0.2-8.5-0.3c-1.9-0.3-4-0.7-6.2-1.3C40.1,39.2,37,37.6,34.4,35.6L34.4,35.6z"/>
		<path class="st2" d="M34.4,35.6c2.5,2,5.6,3.6,9.4,4.6c2.2,0.6,4.3,1,6.2,1.3c0.3,5.2-5.8,9.4-5.8,9.4s-2.9-8.8-8.1-9.5
			C31,40.6,26,44.5,26,44.5s3.5-1.1,7.8,0.1c4.3,1.2,6.4,4.9,6.4,4.9s-4.8-3.7-12.2-3.8C20.7,45.5,16,51.1,16,51.1s2.8-1.1,6.6-0.8
			c3.8,0.3,7.9,2.4,7.9,2.4s-2.6-0.8-5.9-0.8c-3.3,0-5.9,1.8-5.9,1.8c5.1,5.9,20.1,6.5,32.9-3.3c2.9-2.2,5.3-5.2,7-8.6
			c6.5-0.5,9.8-2.7,9.8-2.7L53.3,54.2c0,0-15.1,7-28.8,5.5C10.8,58.3,6,47.5,6,47.5C21.5,46.1,34.4,35.6,34.4,35.6L34.4,35.6z"/>
		<path class="st2" d="M27.8,69c7.1-3.5,10.9-8.9,10.9-8.9s-6.4,2.7-14.9,3.2c-8.5,0.5-15-7-15-7S8.4,63.3,11.7,67
			c2.5,2.8,6.5,3.2,8.4,3.3C17.5,70.3,7.8,71,0,78.7V47.6c2,0.1,4,0.1,6-0.1c0,0,4.8,10.7,18.5,12.2c13.7,1.5,28.8-5.5,28.8-5.5
			L17.6,89.9c0,0,3.2-7.2,9-12.2c5.7-5,14.3-15.3,14.3-15.3s-4.5,3.9-10.7,7.9C24,74.3,17.4,74,17.4,74S20.7,72.5,27.8,69L27.8,69z"
			/>
		<path class="st2" d="M117.6,21.9c0,0-1.5-4.4-2.9-8.1c-1.5-3.7-2.3-8.9-2.3-8.9l19.9,19.9l-11.8-3.6c0,0,6.3,1.9,9.3,8.4
			c2.9,6.4,3.8,8.2,3.8,8.2s-5.8-2.5-9.3-6.2c-3.5-3.7-4.8-6.9-4.8-6.9s1.8,6.5,4.6,10.9c2.7,4.4,6.7,8.3,6.7,8.3s-8.9-3.2-13.4-9.9
			c-4.6-6.7-4.2-19.3-4.2-19.3L117.6,21.9L117.6,21.9z"/>
		<path class="st2" d="M143.1,73.1c-2.1,2.7-4.5,4.7-6.8,6.3c-3-3-6.4-5.3-9.8-7c1.5-0.9,2.9-1.9,4.1-3.2c4.9-5,6.5-15.1,6.8-23.8
			c4.1,0.5,8.2,1.7,11.9,3.6c0.2,2.4,0.2,5.2-0.3,8.5c-0.3,1.9-0.7,4-1.3,6.2C146.7,67.4,145.1,70.5,143.1,73.1L143.1,73.1z"/>
		<path class="st2" d="M143.1,73.1c2-2.5,3.6-5.6,4.6-9.4c0.6-2.2,1-4.3,1.3-6.2c5.2-0.3,9.4,5.8,9.4,5.8s-8.8,2.9-9.5,8.1
			c-0.8,5.2,3.1,10.1,3.1,10.1s-1.1-3.5,0.1-7.8c1.2-4.3,4.9-6.4,4.9-6.4s-3.7,4.8-3.8,12.2c-0.1,7.4,5.5,12.1,5.5,12.1
			s-1.1-2.8-0.8-6.6c0.3-3.8,2.4-7.9,2.4-7.9s-0.8,2.6-0.8,5.9c0,3.3,1.8,5.9,1.8,5.9c5.9-5.1,6.5-20.1-3.3-32.9
			c-2.2-2.9-5.2-5.3-8.6-7c-0.5-6.5-2.7-9.8-2.7-9.8l15.1,15.1c0,0,7,15.1,5.5,28.8c-1.5,13.7-12.2,18.5-12.2,18.5
			C153.6,86,143.1,73.1,143.1,73.1L143.1,73.1z"/>
		<path class="st2" d="M176.5,79.7c-3.5-7.1-8.9-10.9-8.9-10.9s2.7,6.4,3.2,14.9c0.5,8.5-7,15-7,15s6.9,0.5,10.6-2.8
			c2.8-2.5,3.2-6.5,3.3-8.4c0,2.6,0.7,12.2,8.4,20.1l-31.1,0c0.1-2,0.1-4-0.1-6c0,0,10.7-4.8,12.2-18.5c1.5-13.7-5.5-28.8-5.5-28.8
			l35.6,35.6c0,0-7.2-3.2-12.2-9c-5-5.7-15.3-14.3-15.3-14.3s3.9,4.5,7.9,10.7c4,6.2,3.7,12.8,3.7,12.8S180,86.8,176.5,79.7
			L176.5,79.7z"/>
		<path class="st2" d="M129.4,10.1c0,0-4.4-1.5-8.1-2.9c-3.7-1.5-8.9-2.3-8.9-2.3l19.9,19.9l-3.6-11.8c0,0,1.9,6.3,8.4,9.3
			c6.4,2.9,8.2,3.8,8.2,3.8s-2.5-5.8-6.2-9.3c-3.7-3.5-6.9-4.8-6.9-4.8s6.5,1.8,10.9,4.6c4.4,2.7,8.3,6.7,8.3,6.7s-3.2-8.9-9.9-13.4
			c-6.7-4.6-19.3-4.2-19.3-4.2L129.4,10.1L129.4,10.1z"/>
		<path class="st2" d="M180.6,35.6c2.7-2.1,4.7-4.5,6.3-6.8c-3-3-5.3-6.4-7-9.8c-0.9,1.5-1.9,2.9-3.2,4.1c-5,4.9-15.1,6.5-23.8,6.8
			c0.5,4.1,1.7,8.2,3.6,11.9c2.4,0.2,5.2,0.2,8.5-0.3c1.9-0.3,4-0.7,6.2-1.3C174.9,39.2,178,37.6,180.6,35.6L180.6,35.6z"/>
		<path class="st2" d="M180.6,35.6c-2.5,2-5.6,3.6-9.4,4.6c-2.2,0.6-4.3,1-6.2,1.3c-0.3,5.2,5.8,9.4,5.8,9.4s2.9-8.8,8.1-9.5
			c5.2-0.8,10.1,3.1,10.1,3.1s-3.5-1.1-7.8,0.1c-4.3,1.2-6.4,4.9-6.4,4.9s4.8-3.7,12.2-3.8c7.4-0.1,12.1,5.5,12.1,5.5
			s-2.8-1.1-6.6-0.8c-3.8,0.3-7.9,2.4-7.9,2.4s2.6-0.8,5.9-0.8c3.3,0,5.9,1.8,5.9,1.8c-5.1,5.9-20.1,6.5-32.9-3.3
			c-2.9-2.2-5.3-5.2-7-8.6c-6.5-0.5-9.8-2.7-9.8-2.7l15.1,15.1c0,0,15.1,7,28.8,5.5c13.7-1.5,18.5-12.2,18.5-12.2
			C193.5,46.1,180.6,35.6,180.6,35.6L180.6,35.6z"/>
		<path class="st2" d="M187.2,69c-7.1-3.5-10.9-8.9-10.9-8.9s6.4,2.7,14.9,3.2c8.5,0.5,15-7,15-7s0.5,6.9-2.8,10.6
			c-2.5,2.8-6.5,3.2-8.4,3.3c2.6,0,12.2,0.7,20.1,8.4V47.6c-2,0.1-4,0.1-6-0.1c0,0-4.8,10.7-18.5,12.2c-13.7,1.5-28.8-5.5-28.8-5.5
			l35.6,35.6c0,0-3.2-7.2-9-12.2c-5.7-5-14.3-15.3-14.3-15.3s4.5,3.9,10.7,7.9c6.2,4,12.8,3.7,12.8,3.7S194.3,72.5,187.2,69
			L187.2,69z"/>
		<path class="st2" d="M97.4,193.1c0,0,1.5,4.4,2.9,8.1c1.5,3.7,2.3,8.9,2.3,8.9l-19.9-19.9l11.8,3.6c0,0-6.3-1.9-9.3-8.4
			c-2.9-6.4-3.8-8.2-3.8-8.2s5.8,2.5,9.3,6.2c3.5,3.7,4.8,6.9,4.8,6.9s-1.8-6.5-4.6-10.9c-2.7-4.4-6.7-8.3-6.7-8.3s8.9,3.2,13.4,9.9
			c4.6,6.7,4.2,19.3,4.2,19.3L97.4,193.1L97.4,193.1z"/>
		<path class="st2" d="M71.9,141.9c2.1-2.7,4.5-4.7,6.8-6.3c3,3,6.4,5.3,9.8,7c-1.5,0.9-2.9,1.9-4.1,3.2c-4.9,5-6.5,15.1-6.8,23.8
			c-4.1-0.5-8.2-1.7-11.9-3.6c-0.2-2.4-0.2-5.2,0.3-8.5c0.3-1.9,0.7-4,1.3-6.2C68.3,147.6,69.9,144.5,71.9,141.9L71.9,141.9z"/>
		<path class="st2" d="M71.9,141.9c-2,2.5-3.6,5.6-4.6,9.4c-0.6,2.2-1,4.3-1.3,6.2c-5.2,0.3-9.4-5.8-9.4-5.8s8.8-2.9,9.5-8.1
			c0.8-5.2-3.1-10.1-3.1-10.1s1.1,3.5-0.1,7.8c-1.2,4.3-4.9,6.4-4.9,6.4s3.7-4.8,3.8-12.2c0.1-7.4-5.5-12.1-5.5-12.1
			s1.1,2.8,0.8,6.6c-0.3,3.8-2.4,7.9-2.4,7.9s0.8-2.6,0.8-5.9c0-3.3-1.8-5.9-1.8-5.9c-5.9,5.1-6.5,20.1,3.3,32.9
			c2.2,2.9,5.2,5.3,8.6,7c0.5,6.5,2.7,9.8,2.7,9.8l-15.1-15.1c0,0-7-15.1-5.5-28.8c1.5-13.7,12.2-18.5,12.2-18.5
			C61.4,129,71.9,141.9,71.9,141.9L71.9,141.9z"/>
		<path class="st2" d="M38.5,135.3c3.5,7.1,8.9,10.9,8.9,10.9s-2.7-6.4-3.2-14.9c-0.5-8.5,7-15,7-15s-6.9-0.5-10.6,2.8
			c-2.8,2.5-3.2,6.5-3.3,8.4c0-2.6-0.7-12.2-8.4-20.1h31.1c-0.1,2-0.1,4,0.1,6c0,0-10.7,4.8-12.2,18.5c-1.5,13.7,5.5,28.8,5.5,28.8
			l-35.6-35.6c0,0,7.2,3.2,12.2,9c5,5.7,15.3,14.3,15.3,14.3s-3.9-4.5-7.9-10.7c-4-6.2-3.7-12.8-3.7-12.8S35,128.2,38.5,135.3
			L38.5,135.3z"/>
		<path class="st2" d="M85.6,204.9c0,0,4.4,1.5,8.1,2.9c3.7,1.5,8.9,2.3,8.9,2.3l-19.9-19.9l3.6,11.8c0,0-1.9-6.3-8.4-9.3
			c-6.4-2.9-8.2-3.8-8.2-3.8s2.5,5.8,6.2,9.3c3.7,3.5,6.9,4.8,6.9,4.8s-6.5-1.8-10.9-4.6c-4.4-2.7-8.3-6.7-8.3-6.7s3.2,8.9,9.9,13.4
			c6.7,4.6,19.3,4.2,19.3,4.2L85.6,204.9L85.6,204.9z"/>
		<path class="st2" d="M34.4,179.4c-2.7,2.1-4.7,4.5-6.3,6.8c3,3,5.3,6.4,7,9.8c0.9-1.5,1.9-2.9,3.2-4.1c5-4.9,15.1-6.5,23.8-6.8
			c-0.5-4.1-1.7-8.2-3.6-11.9c-2.4-0.2-5.2-0.2-8.5,0.3c-1.9,0.3-4,0.7-6.2,1.3C40.1,175.8,37,177.4,34.4,179.4L34.4,179.4z"/>
		<path class="st2" d="M34.4,179.4c2.5-2,5.6-3.6,9.4-4.6c2.2-0.6,4.3-1,6.2-1.3c0.3-5.2-5.8-9.4-5.8-9.4s-2.9,8.8-8.1,9.5
			c-5.2,0.8-10.1-3.1-10.1-3.1s3.5,1.1,7.8-0.1c4.3-1.2,6.4-4.9,6.4-4.9s-4.8,3.7-12.2,3.8c-7.4,0.1-12.1-5.5-12.1-5.5
			s2.8,1.1,6.6,0.8c3.8-0.3,7.9-2.4,7.9-2.4s-2.6,0.8-5.9,0.8c-3.3,0-5.9-1.8-5.9-1.8c5.1-5.9,20.1-6.5,32.9,3.3
			c2.9,2.2,5.3,5.2,7,8.6c6.5,0.5,9.8,2.7,9.8,2.7l-15.1-15.1c0,0-15.1-7-28.8-5.5C10.8,156.7,6,167.5,6,167.5
			C21.5,168.9,34.4,179.4,34.4,179.4L34.4,179.4z"/>
		<path class="st2" d="M27.8,146c7.1,3.5,10.9,8.9,10.9,8.9s-6.4-2.7-14.9-3.2c-8.5-0.5-15,7-15,7s-0.5-6.9,2.8-10.6
			c2.5-2.8,6.5-3.2,8.4-3.3c-2.6,0-12.2-0.7-20.1-8.4v31.1c2-0.1,4-0.1,6,0.1c0,0,4.8-10.7,18.5-12.2c13.7-1.5,28.8,5.5,28.8,5.5
			l-35.6-35.6c0,0,3.2,7.2,9,12.2c5.7,5,14.3,15.3,14.3,15.3s-4.5-3.9-10.7-7.9c-6.2-4-12.8-3.7-12.8-3.7S20.7,142.5,27.8,146
			L27.8,146z"/>
		<path class="st2" d="M117.6,193.1c0,0-1.5,4.4-2.9,8.1c-1.5,3.7-2.3,8.9-2.3,8.9l19.9-19.9l-11.8,3.6c0,0,6.3-1.9,9.3-8.4
			c2.9-6.4,3.8-8.2,3.8-8.2s-5.8,2.5-9.3,6.2c-3.5,3.7-4.8,6.9-4.8,6.9s1.8-6.5,4.6-10.9c2.7-4.4,6.7-8.3,6.7-8.3s-8.9,3.2-13.4,9.9
			c-4.6,6.7-4.2,19.3-4.2,19.3L117.6,193.1L117.6,193.1z"/>
		<path class="st2" d="M143.1,141.9c-2.1-2.7-4.5-4.7-6.8-6.3c-3,3-6.4,5.3-9.8,7c1.5,0.9,2.9,1.9,4.1,3.2c4.9,5,6.5,15.1,6.8,23.8
			c4.1-0.5,8.2-1.7,11.9-3.6c0.2-2.4,0.2-5.2-0.3-8.5c-0.3-1.9-0.7-4-1.3-6.2C146.7,147.6,145.1,144.5,143.1,141.9L143.1,141.9z"/>
		<path class="st2" d="M143.1,141.9c2,2.5,3.6,5.6,4.6,9.4c0.6,2.2,1,4.3,1.3,6.2c5.2,0.3,9.4-5.8,9.4-5.8s-8.8-2.9-9.5-8.1
			c-0.8-5.2,3.1-10.1,3.1-10.1s-1.1,3.5,0.1,7.8c1.2,4.3,4.9,6.4,4.9,6.4s-3.7-4.8-3.8-12.2c-0.1-7.4,5.5-12.1,5.5-12.1
			s-1.1,2.8-0.8,6.6c0.3,3.8,2.4,7.9,2.4,7.9s-0.8-2.6-0.8-5.9c0-3.3,1.8-5.9,1.8-5.9c5.9,5.1,6.5,20.1-3.3,32.9
			c-2.2,2.9-5.2,5.3-8.6,7c-0.5,6.5-2.7,9.8-2.7,9.8l15.1-15.1c0,0,7-15.1,5.5-28.8c-1.5-13.7-12.2-18.5-12.2-18.5
			C153.6,129,143.1,141.9,143.1,141.9L143.1,141.9z"/>
		<path class="st2" d="M176.5,135.3c-3.5,7.1-8.9,10.9-8.9,10.9s2.7-6.4,3.2-14.9c0.5-8.5-7-15-7-15s6.9-0.5,10.6,2.8
			c2.8,2.5,3.2,6.5,3.3,8.4c0-2.6,0.7-12.2,8.4-20.1h-31.1c0.1,2,0.1,4-0.1,6c0,0,10.7,4.8,12.2,18.5c1.5,13.7-5.5,28.8-5.5,28.8
			l35.6-35.6c0,0-7.2,3.2-12.2,9c-5,5.7-15.3,14.3-15.3,14.3s3.9-4.5,7.9-10.7c4-6.2,3.7-12.8,3.7-12.8S180,128.2,176.5,135.3
			L176.5,135.3z"/>
		<path class="st2" d="M129.4,204.9c0,0-4.4,1.5-8.1,2.9c-3.7,1.5-8.9,2.3-8.9,2.3l19.9-19.9l-3.6,11.8c0,0,1.9-6.3,8.4-9.3
			c6.4-2.9,8.2-3.8,8.2-3.8s-2.5,5.8-6.2,9.3c-3.7,3.5-6.9,4.8-6.9,4.8s6.5-1.8,10.9-4.6c4.4-2.7,8.3-6.7,8.3-6.7s-3.2,8.9-9.9,13.4
			c-6.7,4.6-19.3,4.2-19.3,4.2L129.4,204.9L129.4,204.9z"/>
		<path class="st2" d="M180.6,179.4c2.7,2.1,4.7,4.5,6.3,6.8c-3,3-5.3,6.4-7,9.8c-0.9-1.5-1.9-2.9-3.2-4.1c-5-4.9-15.1-6.5-23.8-6.8
			c0.5-4.1,1.7-8.2,3.6-11.9c2.4-0.2,5.2-0.2,8.5,0.3c1.9,0.3,4,0.7,6.2,1.3C174.9,175.8,178,177.4,180.6,179.4L180.6,179.4z"/>
		<path class="st2" d="M180.6,179.4c-2.5-2-5.6-3.6-9.4-4.6c-2.2-0.6-4.3-1-6.2-1.3c-0.3-5.2,5.8-9.4,5.8-9.4s2.9,8.8,8.1,9.5
			c5.2,0.8,10.1-3.1,10.1-3.1s-3.5,1.1-7.8-0.1c-4.3-1.2-6.4-4.9-6.4-4.9s4.8,3.7,12.2,3.8c7.4,0.1,12.1-5.5,12.1-5.5
			s-2.8,1.1-6.6,0.8c-3.8-0.3-7.9-2.4-7.9-2.4s2.6,0.8,5.9,0.8c3.3,0,5.9-1.8,5.9-1.8c-5.1-5.9-20.1-6.5-32.9,3.3
			c-2.9,2.2-5.3,5.2-7,8.6c-6.5,0.5-9.8,2.7-9.8,2.7l15.1-15.1c0,0,15.1-7,28.8-5.5c13.7,1.5,18.5,12.2,18.5,12.2
			C193.5,168.9,180.6,179.4,180.6,179.4L180.6,179.4z"/>
		<path class="st2" d="M187.2,146c-7.1,3.5-10.9,8.9-10.9,8.9s6.4-2.7,14.9-3.2c8.5-0.5,15,7,15,7s0.5-6.9-2.8-10.6
			c-2.5-2.8-6.5-3.2-8.4-3.3c2.6,0,12.2-0.7,20.1-8.4v31.1c-2-0.1-4-0.1-6,0.1c0,0-4.8-10.7-18.5-12.2c-13.7-1.5-28.8,5.5-28.8,5.5
			l35.6-35.6c0,0-3.2,7.2-9,12.2c-5.7,5-14.3,15.3-14.3,15.3s4.5-3.9,10.7-7.9c6.2-4,12.8-3.7,12.8-3.7S194.3,142.5,187.2,146
			L187.2,146z"/>
		<path class="st2" d="M97.4,21.9c0,0,1.5-4.4,2.9-8.1c1.5-3.7,2.3-8.9,2.3-8.9L82.8,24.7l11.8-3.6c0,0-6.3,1.9-9.3,8.4
			c-2.9,6.4-3.8,8.2-3.8,8.2s5.8-2.5,9.3-6.2c3.5-3.7,4.8-6.9,4.8-6.9s-1.8,6.5-4.6,10.9c-2.7,4.4-6.7,8.3-6.7,8.3s8.9-3.2,13.4-9.9
			c4.6-6.7,4.2-19.3,4.2-19.3L97.4,21.9L97.4,21.9z"/>
		<path class="st2" d="M71.9,73.1c2.1,2.7,4.5,4.7,6.8,6.3c3-3,6.4-5.3,9.8-7c-1.5-0.9-2.9-1.9-4.1-3.2c-4.9-5-6.5-15.1-6.8-23.8
			c-4.1,0.5-8.2,1.7-11.9,3.6c-0.2,2.4-0.2,5.2,0.3,8.5c0.3,1.9,0.7,4,1.3,6.2C68.3,67.4,69.9,70.5,71.9,73.1L71.9,73.1z"/>
		<path class="st2" d="M71.9,73.1c-2-2.5-3.6-5.6-4.6-9.4c-0.6-2.2-1-4.3-1.3-6.2c-5.2-0.3-9.4,5.8-9.4,5.8s8.8,2.9,9.5,8.1
			c0.8,5.2-3.1,10.1-3.1,10.1s1.1-3.5-0.1-7.8c-1.2-4.3-4.9-6.4-4.9-6.4s3.7,4.8,3.8,12.2c0.1,7.4-5.5,12.1-5.5,12.1
			s1.1-2.8,0.8-6.6c-0.3-3.8-2.4-7.9-2.4-7.9s0.8,2.6,0.8,5.9c0,3.3-1.8,5.9-1.8,5.9c-5.9-5.1-6.5-20.1,3.3-32.9
			c2.2-2.9,5.2-5.3,8.6-7c0.5-6.5,2.7-9.8,2.7-9.8L53.3,54.2c0,0-7,15.1-5.5,28.8C49.2,96.7,60,101.5,60,101.5
			C61.4,86,71.9,73.1,71.9,73.1L71.9,73.1z"/>
		<path class="st2" d="M38.5,79.7c3.5-7.1,8.9-10.9,8.9-10.9s-2.7,6.4-3.2,14.9c-0.5,8.5,7,15,7,15s-6.9,0.5-10.6-2.8
			c-2.8-2.5-3.2-6.5-3.3-8.4c0,2.6-0.7,12.2-8.4,20.1h31.1c-0.1-2-0.1-4,0.1-6c0,0-10.7-4.8-12.2-18.5c-1.5-13.7,5.5-28.8,5.5-28.8
			L17.6,89.9c0,0,7.2-3.2,12.2-9c5-5.7,15.3-14.3,15.3-14.3s-3.9,4.5-7.9,10.7c-4,6.2-3.7,12.8-3.7,12.8S35,86.8,38.5,79.7
			L38.5,79.7z"/>
		<path class="st2" d="M85.6,10.1c0,0,4.4-1.5,8.1-2.9c3.7-1.5,8.9-2.3,8.9-2.3L82.8,24.7l3.6-11.8c0,0-1.9,6.3-8.4,9.3
			c-6.4,2.9-8.2,3.8-8.2,3.8s2.5-5.8,6.2-9.3c3.7-3.5,6.9-4.8,6.9-4.8s-6.5,1.8-10.9,4.6c-4.4,2.7-8.3,6.7-8.3,6.7s3.2-8.9,9.9-13.4
			c6.7-4.6,19.3-4.2,19.3-4.2L85.6,10.1L85.6,10.1z"/>
		<path class="st2" d="M34.4,35.6c-2.7-2.1-4.7-4.5-6.3-6.8c3-3,5.3-6.4,7-9.8c0.9,1.5,1.9,2.9,3.2,4.1c5,4.9,15.1,6.5,23.8,6.8
			c-0.5,4.1-1.7,8.2-3.6,11.9c-2.4,0.2-5.2,0.2-8.5-0.3c-1.9-0.3-4-0.7-6.2-1.3C40.1,39.2,37,37.6,34.4,35.6L34.4,35.6z"/>
		<path class="st2" d="M34.4,35.6c2.5,2,5.6,3.6,9.4,4.6c2.2,0.6,4.3,1,6.2,1.3c0.3,5.2-5.8,9.4-5.8,9.4s-2.9-8.8-8.1-9.5
			C31,40.6,26,44.5,26,44.5s3.5-1.1,7.8,0.1c4.3,1.2,6.4,4.9,6.4,4.9s-4.8-3.7-12.2-3.8C20.7,45.5,16,51.1,16,51.1s2.8-1.1,6.6-0.8
			c3.8,0.3,7.9,2.4,7.9,2.4s-2.6-0.8-5.9-0.8c-3.3,0-5.9,1.8-5.9,1.8c5.1,5.9,20.1,6.5,32.9-3.3c2.9-2.2,5.3-5.2,7-8.6
			c6.5-0.5,9.8-2.7,9.8-2.7L53.3,54.2c0,0-15.1,7-28.8,5.5C10.8,58.3,6,47.5,6,47.5C21.5,46.1,34.4,35.6,34.4,35.6L34.4,35.6z"/>
		<path class="st2" d="M27.8,69c7.1-3.5,10.9-8.9,10.9-8.9s-6.4,2.7-14.9,3.2c-8.5,0.5-15-7-15-7S8.4,63.3,11.7,67
			c2.5,2.8,6.5,3.2,8.4,3.3C17.5,70.3,7.8,71,0,78.7V47.6c2,0.1,4,0.1,6-0.1c0,0,4.8,10.7,18.5,12.2c13.7,1.5,28.8-5.5,28.8-5.5
			L17.6,89.9c0,0,3.2-7.2,9-12.2c5.7-5,14.3-15.3,14.3-15.3s-4.5,3.9-10.7,7.9C24,74.3,17.4,74,17.4,74S20.7,72.5,27.8,69L27.8,69z"
			/>
		<path class="st2" d="M117.6,21.9c0,0-1.5-4.4-2.9-8.1c-1.5-3.7-2.3-8.9-2.3-8.9l19.9,19.9l-11.8-3.6c0,0,6.3,1.9,9.3,8.4
			c2.9,6.4,3.8,8.2,3.8,8.2s-5.8-2.5-9.3-6.2c-3.5-3.7-4.8-6.9-4.8-6.9s1.8,6.5,4.6,10.9c2.7,4.4,6.7,8.3,6.7,8.3s-8.9-3.2-13.4-9.9
			c-4.6-6.7-4.2-19.3-4.2-19.3L117.6,21.9L117.6,21.9z"/>
		<path class="st2" d="M143.1,73.1c-2.1,2.7-4.5,4.7-6.8,6.3c-3-3-6.4-5.3-9.8-7c1.5-0.9,2.9-1.9,4.1-3.2c4.9-5,6.5-15.1,6.8-23.8
			c4.1,0.5,8.2,1.7,11.9,3.6c0.2,2.4,0.2,5.2-0.3,8.5c-0.3,1.9-0.7,4-1.3,6.2C146.7,67.4,145.1,70.5,143.1,73.1L143.1,73.1z"/>
		<path class="st2" d="M143.1,73.1c2-2.5,3.6-5.6,4.6-9.4c0.6-2.2,1-4.3,1.3-6.2c5.2-0.3,9.4,5.8,9.4,5.8s-8.8,2.9-9.5,8.1
			c-0.8,5.2,3.1,10.1,3.1,10.1s-1.1-3.5,0.1-7.8c1.2-4.3,4.9-6.4,4.9-6.4s-3.7,4.8-3.8,12.2c-0.1,7.4,5.5,12.1,5.5,12.1
			s-1.1-2.8-0.8-6.6c0.3-3.8,2.4-7.9,2.4-7.9s-0.8,2.6-0.8,5.9c0,3.3,1.8,5.9,1.8,5.9c5.9-5.1,6.5-20.1-3.3-32.9
			c-2.2-2.9-5.2-5.3-8.6-7c-0.5-6.5-2.7-9.8-2.7-9.8l15.1,15.1c0,0,7,15.1,5.5,28.8c-1.5,13.7-12.2,18.5-12.2,18.5
			C153.6,86,143.1,73.1,143.1,73.1L143.1,73.1z"/>
		<path class="st2" d="M176.5,79.7c-3.5-7.1-8.9-10.9-8.9-10.9s2.7,6.4,3.2,14.9c0.5,8.5-7,15-7,15s6.9,0.5,10.6-2.8
			c2.8-2.5,3.2-6.5,3.3-8.4c0,2.6,0.7,12.2,8.4,20.1h-31.1c0.1-2,0.1-4-0.1-6c0,0,10.7-4.8,12.2-18.5c1.5-13.7-5.5-28.8-5.5-28.8
			l35.6,35.6c0,0-7.2-3.2-12.2-9c-5-5.7-15.3-14.3-15.3-14.3s3.9,4.5,7.9,10.7c4,6.2,3.7,12.8,3.7,12.8S180,86.8,176.5,79.7
			L176.5,79.7z"/>
		<path class="st2" d="M129.4,10.1c0,0-4.4-1.5-8.1-2.9c-3.7-1.5-8.9-2.3-8.9-2.3l19.9,19.9l-3.6-11.8c0,0,1.9,6.3,8.4,9.3
			c6.4,2.9,8.2,3.8,8.2,3.8s-2.5-5.8-6.2-9.3c-3.7-3.5-6.9-4.8-6.9-4.8s6.5,1.8,10.9,4.6c4.4,2.7,8.3,6.7,8.3,6.7s-3.2-8.9-9.9-13.4
			c-6.7-4.6-19.3-4.2-19.3-4.2L129.4,10.1L129.4,10.1z"/>
		<path class="st2" d="M180.6,35.6c2.7-2.1,4.7-4.5,6.3-6.8c-3-3-5.3-6.4-7-9.8c-0.9,1.5-1.9,2.9-3.2,4.1c-5,4.9-15.1,6.5-23.8,6.8
			c0.5,4.1,1.7,8.2,3.6,11.9c2.4,0.2,5.2,0.2,8.5-0.3c1.9-0.3,4-0.7,6.2-1.3C174.9,39.2,178,37.6,180.6,35.6L180.6,35.6z"/>
		<path class="st2" d="M180.6,35.6c-2.5,2-5.6,3.6-9.4,4.6c-2.2,0.6-4.3,1-6.2,1.3c-0.3,5.2,5.8,9.4,5.8,9.4s2.9-8.8,8.1-9.5
			c5.2-0.8,10.1,3.1,10.1,3.1s-3.5-1.1-7.8,0.1c-4.3,1.2-6.4,4.9-6.4,4.9s4.8-3.7,12.2-3.8c7.4-0.1,12.1,5.5,12.1,5.5
			s-2.8-1.1-6.6-0.8c-3.8,0.3-7.9,2.4-7.9,2.4s2.6-0.8,5.9-0.8c3.3,0,5.9,1.8,5.9,1.8c-5.1,5.9-20.1,6.5-32.9-3.3
			c-2.9-2.2-5.3-5.2-7-8.6c-6.5-0.5-9.8-2.7-9.8-2.7l15.1,15.1c0,0,15.1,7,28.8,5.5c13.7-1.5,18.5-12.2,18.5-12.2
			C193.5,46.1,180.6,35.6,180.6,35.6L180.6,35.6z"/>
		<path class="st2" d="M187.2,69c-7.1-3.5-10.9-8.9-10.9-8.9s6.4,2.7,14.9,3.2c8.5,0.5,15-7,15-7s0.5,6.9-2.8,10.6
			c-2.5,2.8-6.5,3.2-8.4,3.3c2.6,0,12.2,0.7,20.1,8.4V47.6c-2,0.1-4,0.1-6-0.1c0,0-4.8,10.7-18.5,12.2c-13.7,1.5-28.8-5.5-28.8-5.5
			l35.6,35.6c0,0-3.2-7.2-9-12.2c-5.7-5-14.3-15.3-14.3-15.3s4.5,3.9,10.7,7.9c6.2,4,12.8,3.7,12.8,3.7S194.3,72.5,187.2,69
			L187.2,69z"/>
		<path class="st2" d="M97.4,193.1c0,0,1.5,4.4,2.9,8.1c1.5,3.7,2.3,8.9,2.3,8.9l-19.9-19.9l11.8,3.6c0,0-6.3-1.9-9.3-8.4
			c-2.9-6.4-3.8-8.2-3.8-8.2s5.8,2.5,9.3,6.2c3.5,3.7,4.8,6.9,4.8,6.9s-1.8-6.5-4.6-10.9c-2.7-4.4-6.7-8.3-6.7-8.3s8.9,3.2,13.4,9.9
			c4.6,6.7,4.2,19.3,4.2,19.3L97.4,193.1L97.4,193.1z"/>
		<path class="st2" d="M71.9,141.9c2.1-2.7,4.5-4.7,6.8-6.3c3,3,6.4,5.3,9.8,7c-1.5,0.9-2.9,1.9-4.1,3.2c-4.9,5-6.5,15.1-6.8,23.8
			c-4.1-0.5-8.2-1.7-11.9-3.6c-0.2-2.4-0.2-5.2,0.3-8.5c0.3-1.9,0.7-4,1.3-6.2C68.3,147.6,69.9,144.5,71.9,141.9L71.9,141.9z"/>
		<path class="st2" d="M71.9,141.9c-2,2.5-3.6,5.6-4.6,9.4c-0.6,2.2-1,4.3-1.3,6.2c-5.2,0.3-9.4-5.8-9.4-5.8s8.8-2.9,9.5-8.1
			c0.8-5.2-3.1-10.1-3.1-10.1s1.1,3.5-0.1,7.8c-1.2,4.3-4.9,6.4-4.9,6.4s3.7-4.8,3.8-12.2c0.1-7.4-5.5-12.1-5.5-12.1
			s1.1,2.8,0.8,6.6c-0.3,3.8-2.4,7.9-2.4,7.9s0.8-2.6,0.8-5.9c0-3.3-1.8-5.9-1.8-5.9c-5.9,5.1-6.5,20.1,3.3,32.9
			c2.2,2.9,5.2,5.3,8.6,7c0.5,6.5,2.7,9.8,2.7,9.8l-15.1-15.1c0,0-7-15.1-5.5-28.8c1.5-13.7,12.2-18.5,12.2-18.5
			C61.4,129,71.9,141.9,71.9,141.9L71.9,141.9z"/>
		<path class="st2" d="M38.5,135.3c3.5,7.1,8.9,10.9,8.9,10.9s-2.7-6.4-3.2-14.9c-0.5-8.5,7-15,7-15s-6.9-0.5-10.6,2.8
			c-2.8,2.5-3.2,6.5-3.3,8.4c0-2.6-0.7-12.2-8.4-20.1h31.1c-0.1,2-0.1,4,0.1,6c0,0-10.7,4.8-12.2,18.5c-1.5,13.7,5.5,28.8,5.5,28.8
			l-35.6-35.6c0,0,7.2,3.2,12.2,9c5,5.7,15.3,14.3,15.3,14.3s-3.9-4.5-7.9-10.7c-4-6.2-3.7-12.8-3.7-12.8S35,128.2,38.5,135.3
			L38.5,135.3z"/>
		<path class="st2" d="M85.6,204.9c0,0,4.4,1.5,8.1,2.9c3.7,1.5,8.9,2.3,8.9,2.3l-19.9-19.9l3.6,11.8c0,0-1.9-6.3-8.4-9.3
			c-6.4-2.9-8.2-3.8-8.2-3.8s2.5,5.8,6.2,9.3c3.7,3.5,6.9,4.8,6.9,4.8s-6.5-1.8-10.9-4.6c-4.4-2.7-8.3-6.7-8.3-6.7s3.2,8.9,9.9,13.4
			c6.7,4.6,19.3,4.2,19.3,4.2L85.6,204.9L85.6,204.9z"/>
		<path class="st2" d="M34.4,179.4c-2.7,2.1-4.7,4.5-6.3,6.8c3,3,5.3,6.4,7,9.8c0.9-1.5,1.9-2.9,3.2-4.1c5-4.9,15.1-6.5,23.8-6.8
			c-0.5-4.1-1.7-8.2-3.6-11.9c-2.4-0.2-5.2-0.2-8.5,0.3c-1.9,0.3-4,0.7-6.2,1.3C40.1,175.8,37,177.4,34.4,179.4L34.4,179.4z"/>
		<path class="st2" d="M34.4,179.4c2.5-2,5.6-3.6,9.4-4.6c2.2-0.6,4.3-1,6.2-1.3c0.3-5.2-5.8-9.4-5.8-9.4s-2.9,8.8-8.1,9.5
			c-5.2,0.8-10.1-3.1-10.1-3.1s3.5,1.1,7.8-0.1c4.3-1.2,6.4-4.9,6.4-4.9s-4.8,3.7-12.2,3.8c-7.4,0.1-12.1-5.5-12.1-5.5
			s2.8,1.1,6.6,0.8c3.8-0.3,7.9-2.4,7.9-2.4s-2.6,0.8-5.9,0.8c-3.3,0-5.9-1.8-5.9-1.8c5.1-5.9,20.1-6.5,32.9,3.3
			c2.9,2.2,5.3,5.2,7,8.6c6.5,0.5,9.8,2.7,9.8,2.7l-15.1-15.1c0,0-15.1-7-28.8-5.5C10.8,156.7,6,167.5,6,167.5
			C21.5,168.9,34.4,179.4,34.4,179.4L34.4,179.4z"/>
		<path class="st2" d="M27.8,146c7.1,3.5,10.9,8.9,10.9,8.9s-6.4-2.7-14.9-3.2c-8.5-0.5-15,7-15,7s-0.5-6.9,2.8-10.6
			c2.5-2.8,6.5-3.2,8.4-3.3c-2.6,0-12.2-0.7-20.1-8.4v31.1c2-0.1,4-0.1,6,0.1c0,0,4.8-10.7,18.5-12.2c13.7-1.5,28.8,5.5,28.8,5.5
			l-35.6-35.6c0,0,3.2,7.2,9,12.2c5.7,5,14.3,15.3,14.3,15.3s-4.5-3.9-10.7-7.9c-6.2-4-12.8-3.7-12.8-3.7S20.7,142.5,27.8,146
			L27.8,146z"/>
		<path class="st2" d="M117.6,193.1c0,0-1.5,4.4-2.9,8.1c-1.5,3.7-2.3,8.9-2.3,8.9l19.9-19.9l-11.8,3.6c0,0,6.3-1.9,9.3-8.4
			c2.9-6.4,3.8-8.2,3.8-8.2s-5.8,2.5-9.3,6.2c-3.5,3.7-4.8,6.9-4.8,6.9s1.8-6.5,4.6-10.9c2.7-4.4,6.7-8.3,6.7-8.3s-8.9,3.2-13.4,9.9
			c-4.6,6.7-4.2,19.3-4.2,19.3L117.6,193.1L117.6,193.1z"/>
		<path class="st2" d="M143.1,141.9c-2.1-2.7-4.5-4.7-6.8-6.3c-3,3-6.4,5.3-9.8,7c1.5,0.9,2.9,1.9,4.1,3.2c4.9,5,6.5,15.1,6.8,23.8
			c4.1-0.5,8.2-1.7,11.9-3.6c0.2-2.4,0.2-5.2-0.3-8.5c-0.3-1.9-0.7-4-1.3-6.2C146.7,147.6,145.1,144.5,143.1,141.9L143.1,141.9z"/>
		<path class="st2" d="M143.1,141.9c2,2.5,3.6,5.6,4.6,9.4c0.6,2.2,1,4.3,1.3,6.2c5.2,0.3,9.4-5.8,9.4-5.8s-8.8-2.9-9.5-8.1
			c-0.8-5.2,3.1-10.1,3.1-10.1s-1.1,3.5,0.1,7.8c1.2,4.3,4.9,6.4,4.9,6.4s-3.7-4.8-3.8-12.2c-0.1-7.4,5.5-12.1,5.5-12.1
			s-1.1,2.8-0.8,6.6c0.3,3.8,2.4,7.9,2.4,7.9s-0.8-2.6-0.8-5.9c0-3.3,1.8-5.9,1.8-5.9c5.9,5.1,6.5,20.1-3.3,32.9
			c-2.2,2.9-5.2,5.3-8.6,7c-0.5,6.5-2.7,9.8-2.7,9.8l15.1-15.1c0,0,7-15.1,5.5-28.8c-1.5-13.7-12.2-18.5-12.2-18.5
			C153.6,129,143.1,141.9,143.1,141.9L143.1,141.9z"/>
		<path class="st2" d="M176.5,135.3c-3.5,7.1-8.9,10.9-8.9,10.9s2.7-6.4,3.2-14.9c0.5-8.5-7-15-7-15s6.9-0.5,10.6,2.8
			c2.8,2.5,3.2,6.5,3.3,8.4c0-2.6,0.7-12.2,8.4-20.1h-31.1c0.1,2,0.1,4-0.1,6c0,0,10.7,4.8,12.2,18.5c1.5,13.7-5.5,28.8-5.5,28.8
			l35.6-35.6c0,0-7.2,3.2-12.2,9c-5,5.7-15.3,14.3-15.3,14.3s3.9-4.5,7.9-10.7c4-6.2,3.7-12.8,3.7-12.8S180,128.2,176.5,135.3
			L176.5,135.3z"/>
		<path class="st2" d="M129.4,204.9c0,0-4.4,1.5-8.1,2.9c-3.7,1.5-8.9,2.3-8.9,2.3l19.9-19.9l-3.6,11.8c0,0,1.9-6.3,8.4-9.3
			c6.4-2.9,8.2-3.8,8.2-3.8s-2.5,5.8-6.2,9.3c-3.7,3.5-6.9,4.8-6.9,4.8s6.5-1.8,10.9-4.6c4.4-2.7,8.3-6.7,8.3-6.7s-3.2,8.9-9.9,13.4
			c-6.7,4.6-19.3,4.2-19.3,4.2L129.4,204.9L129.4,204.9z"/>
		<path class="st2" d="M180.6,179.4c2.7,2.1,4.7,4.5,6.3,6.8c-3,3-5.3,6.4-7,9.8c-0.9-1.5-1.9-2.9-3.2-4.1c-5-4.9-15.1-6.5-23.8-6.8
			c0.5-4.1,1.7-8.2,3.6-11.9c2.4-0.2,5.2-0.2,8.5,0.3c1.9,0.3,4,0.7,6.2,1.3C174.9,175.8,178,177.4,180.6,179.4L180.6,179.4z"/>
		<path class="st2" d="M180.6,179.4c-2.5-2-5.6-3.6-9.4-4.6c-2.2-0.6-4.3-1-6.2-1.3c-0.3-5.2,5.8-9.4,5.8-9.4s2.9,8.8,8.1,9.5
			c5.2,0.8,10.1-3.1,10.1-3.1s-3.5,1.1-7.8-0.1c-4.3-1.2-6.4-4.9-6.4-4.9s4.8,3.7,12.2,3.8c7.4,0.1,12.1-5.5,12.1-5.5
			s-2.8,1.1-6.6,0.8c-3.8-0.3-7.9-2.4-7.9-2.4s2.6,0.8,5.9,0.8c3.3,0,5.9-1.8,5.9-1.8c-5.1-5.9-20.1-6.5-32.9,3.3
			c-2.9,2.2-5.3,5.2-7,8.6c-6.5,0.5-9.8,2.7-9.8,2.7l15.1-15.1c0,0,15.1-7,28.8-5.5c13.7,1.5,18.5,12.2,18.5,12.2
			C193.5,168.9,180.6,179.4,180.6,179.4L180.6,179.4z"/>
		<path class="st2" d="M187.2,146c-7.1,3.5-10.9,8.9-10.9,8.9s6.4-2.7,14.9-3.2c8.5-0.5,15,7,15,7s0.5-6.9-2.8-10.6
			c-2.5-2.8-6.5-3.2-8.4-3.3c2.6,0,12.2-0.7,20.1-8.4v31.1c-2-0.1-4-0.1-6,0.1c0,0-4.8-10.7-18.5-12.2c-13.7-1.5-28.8,5.5-28.8,5.5
			l35.6-35.6c0,0-3.2,7.2-9,12.2c-5.7,5-14.3,15.3-14.3,15.3s4.5-3.9,10.7-7.9c6.2-4,12.8-3.7,12.8-3.7S194.3,142.5,187.2,146
			L187.2,146z"/>
	</g>
</g>
</svg>
