<?xml version="1.0" encoding="utf-8"?>
<!-- Generator: Adobe Illustrator 21.0.2, SVG Export Plug-In . SVG Version: 6.00 Build 0)  -->
<svg version="1.1" id="Camada_1" xmlns="http://www.w3.org/2000/svg" xmlns:xlink="http://www.w3.org/1999/xlink" x="0px" y="0px"
	 viewBox="0 0 215 215" style="enable-background:new 0 0 215 215;" xml:space="preserve">
<style type="text/css">
	.st0{fill:#A86951;}
	.st1{fill:#A6272A;}
	.st2{fill:#DCD2B4;}
</style>
<g id="XMLID_1_">
	<path id="XMLID_335_" class="st0" d="M161.4,138v22.4h-23.6c0,0,0,0.1,0,0.1c0,16.7-13.5,30.2-30.2,30.2s-30.2-13.5-30.2-30.2
		c0,0,0-0.1,0-0.1H53.6V138c-16.2-0.6-29.1-13.9-29.1-30.2s12.9-29.6,29.1-30.2V55.2h23.6c0,0,0-0.1,0-0.1
		c0-16.7,13.5-30.2,30.2-30.2s30.2,13.5,30.2,30.2c0,0,0,0.1,0,0.1h23.6v22.4c16.2,0.6,29.1,13.9,29.1,30.2S177.5,137.4,161.4,138z"
		/>
	<g id="XMLID_12_">
		<g>
			<path class="st1" d="M140.7,98.7c14.2-13.9,10.1-34.3,10.1-34.4c-0.1,0-20.5-4.1-34.4,10.1c-3.6,3.6-5.2,8.5-4.8,13.3
				c-2.7-0.5-5.4-0.6-8.1,0c0.3-4.8-1.3-9.6-4.8-13.3C84.8,60.2,64.3,64.3,64.3,64.3c0,0.1-4.1,20.5,10.1,34.4
				c3.6,3.6,8.5,5.2,13.3,4.8c-0.5,2.7-0.5,5.4,0,8.1c-4.8-0.4-9.8,1.2-13.4,4.8c-14.2,13.9-10.1,34.3-10.1,34.4
				c0.1,0,20.5,4.1,34.4-10.1c3.6-3.7,5.2-8.6,4.8-13.4c2.7,0.6,5.4,0.6,8.1,0c-0.4,4.8,1.3,9.7,4.8,13.3
				c13.9,14.2,34.3,10.1,34.4,10.1c0-0.1,4.1-20.5-10.1-34.4c-3.6-3.6-8.5-5.2-13.2-4.9c0.5-2.7,0.6-5.4,0-8.1
				C132.1,103.9,137,102.3,140.7,98.7z M99.6,115.4c-4.4-4.4-4.4-11.5,0-15.8c4.4-4.4,11.5-4.4,15.8,0c4.4,4.4,4.4,11.5,0,15.8
				C111,119.8,103.9,119.8,99.6,115.4z"/>
			<path class="st1" d="M55.7,98.7c-1.2-0.9-4.6-2-8.6-2.6c-5.2-0.8-9.5-0.5-9.7,0.6c0,0.1,0,0.2,0,0.3c0.1,0.5,0.9,3.2,2,5.7
				c-2.8,2-4.6,3.8-4.6,4.8c0,0,0,0,0,0.1c0,0,0,0,0,0.1c0.1,1,1.8,2.7,4.6,4.7c-1.2,2.7-2,5.8-2,5.8s0,0,0.1,0c0,0.1,0,0.1,0,0.2
				c0.2,1.1,4.5,1.3,9.7,0.6c2.4-0.4,4.6-0.9,6.2-1.4c4.2-1.3,7.3-5.2,7.3-9.8C60.7,103.8,58.7,100.6,55.7,98.7z"/>
			<path class="st1" d="M180.1,107.4c-0.1-1-1.8-2.7-4.6-4.7c1.2-2.7,2-5.8,2-5.8s0,0-0.1,0c0-0.1,0-0.1,0-0.2
				c-0.2-1.1-4.5-1.3-9.7-0.6c-2.4,0.4-4.6,0.9-6.2,1.4c-4.2,1.3-7.3,5.2-7.3,9.8c0,3.7,2,7,4.9,8.8c1.2,0.9,4.6,2,8.6,2.6
				c5.2,0.8,9.5,0.5,9.7-0.6c0-0.1,0-0.2,0-0.3c-0.1-0.5-0.9-3.2-2-5.7c2.8-2,4.6-3.8,4.6-4.8C180.1,107.5,180.1,107.5,180.1,107.4
				C180.1,107.5,180.1,107.4,180.1,107.4z"/>
			<path class="st1" d="M117.4,161.6c-1.3-4.2-5.2-7.3-9.8-7.3c-3.7,0-7,2-8.8,4.9c-0.9,1.2-2,4.6-2.6,8.6c-0.8,5.2-0.5,9.5,0.6,9.7
				c0.1,0,0.2,0,0.3,0c0.5-0.1,3.2-0.9,5.7-2c2,2.8,3.8,4.6,4.8,4.6c0,0,0,0,0.1,0c0,0,0,0,0.1,0c1-0.1,2.7-1.8,4.7-4.6
				c2.7,1.2,5.8,2,5.8,2s0,0,0-0.1c0.1,0,0.1,0,0.2,0c1.1-0.2,1.3-4.5,0.6-9.7C118.4,165.4,117.9,163.2,117.4,161.6z"/>
			<path class="st1" d="M97.6,53.4c1.3,4.2,5.2,7.3,9.8,7.3c3.7,0,7-2,8.8-4.9c0.9-1.2,2-4.6,2.6-8.6c0.8-5.2,0.5-9.5-0.6-9.7
				c-0.1,0-0.2,0-0.3,0c-0.5,0.1-3.2,0.9-5.7,2c-2-2.8-3.8-4.6-4.8-4.6c0,0,0,0-0.1,0c0,0,0,0-0.1,0c-1,0.1-2.7,1.8-4.7,4.6
				c-2.7-1.2-5.8-2-5.8-2s0,0,0,0.1c-0.1,0-0.1,0-0.2,0c-1.1,0.2-1.3,4.5-0.6,9.7C96.6,49.6,97.1,51.8,97.6,53.4z"/>
		</g>
		<g>
			<path class="st2" d="M215,95.8V83.5c-6.7,0-12.7,2.7-17,7.1c-5-11-14.6-19.4-26.3-22.7V42.1h-7.3V42l0.5-3.1
				c1.5-8,6.5-28.4,20-29.6c16.9-1.5,17.8,15.6,17.8,15.6s0.4,14-14.4,11.3c0,0-0.4-0.3-0.5-0.8c-0.1-0.6,7.4-7.2,2.8-11.7
				c-4.6-4.5-9.6,0-9.6,0s-8.9,9.9,6.9,22.4c0,0,0,4.5-7.8,5.2c0,0,0.8,4.3,9.8,5.3c0.6,0.4,0.5,1.5,0.5,1.5s-1.9,9.3,1.4,14.6
				c0,0,4.1-1.8,5-0.7c0.8,1.1,7.9,5.5,11.3-0.5s-1-8.2-1-8.2s-3.4,4.4-7.7,2.5s-3.5-4.2-3.5-4.2s0.2-4,3.9-8.9
				c3.8-4.9,12.5-21.2,12.6-29.8c0.1-8.6-2.1-10.6-2.1-10.6s4.8-2.2,1.7-10.9c0,0-1,2-3.7,1.5c-2.6-0.5-29.8-3.8-40.9,7.3
				c0,0-0.3,0.2-0.8,0.5l-0.2-1.1c0-2.2-2.7-5.5-4.4-7.4c-0.6-0.7-1.7-0.7-2.3,0c-1.2,1.3-2.9,3.4-3.8,5.3c-1.5-2-3.9-3.2-6.6-3.2
				c-4.7,0-8.4,3.8-8.4,8.4c0,2.3,0.9,4.3,2.4,5.9c1.3-0.8,2.8-1.2,4.4-1.2c2.4,0,4.5,1,6.1,2.6c0,0,3.9,3.9,5.8,21.9v0h-13.1
				C142.9,31,134.7,22,124.2,17.3c4.5-4.4,7.3-10.5,7.3-17.3h-12.3c0,6.5-5.3,11.7-11.7,11.7C101,11.7,95.8,6.5,95.8,0H83.5
				c0,6.7,2.8,12.8,7.2,17.2c-10.6,4.7-18.9,13.8-22.5,24.9H55.4V42c1.9-18,5.8-21.9,5.8-21.9c1.5-1.6,3.7-2.6,6.1-2.6
				c1.6,0,3.1,0.4,4.4,1.2c1.5-1.5,2.4-3.6,2.4-5.9c0-4.7-3.8-8.4-8.4-8.4c-2.7,0-5.1,1.3-6.6,3.2c-0.9-1.9-2.6-4-3.8-5.3
				c-0.6-0.7-1.7-0.7-2.3,0c-1.6,1.8-4.4,5.2-4.4,7.4l-0.2,1.1c-0.5-0.3-0.8-0.5-0.8-0.5C36.3-0.9,9.1,2.5,6.5,3
				C3.9,3.4,2.8,1.5,2.8,1.5c-3.1,8.7,1.7,10.9,1.7,10.9s-2.2,2-2.1,10.6c0.1,8.6,8.8,24.9,12.6,29.8c3.8,4.9,3.9,8.9,3.9,8.9
				s0.8,2.3-3.5,4.2s-7.7-2.5-7.7-2.5s-4.5,2.2-1,8.2s10.5,1.6,11.3,0.5s5,0.7,5,0.7c3.3-5.3,1.4-14.6,1.4-14.6s-0.1-1.1,0.5-1.5
				c9-1,9.8-5.3,9.8-5.3C27,50.5,27,46,27,46C42.9,33.5,34,23.6,34,23.6s-5-4.5-9.6,0s2.9,11.2,2.8,11.7c-0.1,0.6-0.5,0.8-0.5,0.8
				c-14.8,2.7-14.4-11.3-14.4-11.3S13.3,7.8,30.1,9.3c13.6,1.2,18.6,21.6,20,29.6l0.5,3.2v0h-7.3v25.7C31.6,71.2,22,79.6,17,90.6
				c-4.4-4.4-10.4-7.1-17-7.1v12.3c6.5,0,11.7,5.3,11.7,11.7c0,6.5-5.3,11.7-11.7,11.7v12.3c6.7,0,12.7-2.7,17-7.1
				c5,11,14.6,19.4,26.3,22.7v25.7h7.3v0.1l-0.5,3.1c-1.5,8-6.5,28.4-20,29.6c-16.9,1.5-17.8-15.6-17.8-15.6s-0.4-14,14.4-11.3
				c0,0,0.4,0.3,0.5,0.8c0.1,0.6-7.4,7.2-2.8,11.7c4.6,4.5,9.6,0,9.6,0s8.9-9.9-6.9-22.4c0,0,0-4.5,7.8-5.2c0,0-0.8-4.3-9.8-5.3
				c-0.6-0.4-0.5-1.5-0.5-1.5s1.9-9.3-1.4-14.6c0,0-4.1,1.8-5,0.7s-7.9-5.5-11.3,0.5s1,8.2,1,8.2s3.4-4.4,7.7-2.5
				c4.3,1.9,3.5,4.2,3.5,4.2s-0.2,4-3.9,8.9c-3.8,4.9-12.5,21.2-12.6,29.8c-0.1,8.6,2.1,10.6,2.1,10.6s-4.8,2.2-1.7,10.9
				c0,0,1-2,3.7-1.5c2.6,0.5,29.8,3.8,40.9-7.3c0,0,0.3-0.2,0.8-0.5l0.2,1.1c0,2.2,2.7,5.5,4.4,7.4c0.6,0.7,1.7,0.7,2.3,0
				c1.2-1.3,2.9-3.4,3.8-5.3c1.5,2,3.9,3.2,6.6,3.2c4.7,0,8.4-3.8,8.4-8.4c0-2.3-0.9-4.3-2.4-5.9c-1.3,0.8-2.8,1.2-4.4,1.2
				c-2.4,0-4.5-1-6.1-2.6c0,0-3.9-3.9-5.8-21.9v-0.1H68c3.5,11.3,11.7,20.5,22.3,25.3c-4.2,4.3-6.9,10.3-6.9,16.8h12.3
				c0-2,0.5-3.9,1.4-5.6c0.5-1,1.2-1.9,2-2.7c0.3-0.3,0.5-0.5,0.8-0.8c0.9-0.7,1.8-1.3,2.9-1.8c0.4-0.1,0.7-0.3,1.1-0.4
				c0.7-0.2,1.5-0.4,2.3-0.5c0.4,0,0.8-0.1,1.2-0.1c6.5,0,11.7,5.3,11.7,11.7h12.3c0-6.6-2.7-12.6-7-16.9
				c10.5-4.9,18.7-14,22.1-25.2h12.9v0.1c-1.9,18-5.8,21.9-5.8,21.9c-1.5,1.6-3.7,2.6-6.1,2.6c-1.6,0-3.1-0.4-4.4-1.2
				c-1.5,1.5-2.4,3.6-2.4,5.9c0,4.7,3.8,8.4,8.4,8.4c2.7,0,5.1-1.3,6.6-3.2c0.9,1.9,2.6,4,3.8,5.3c0.6,0.7,1.7,0.7,2.3,0
				c1.6-1.8,4.4-5.2,4.4-7.4l0.2-1.1c0.5,0.3,0.8,0.5,0.8,0.5c11.1,11.2,38.3,7.8,40.9,7.3c2.6-0.5,3.7,1.5,3.7,1.5
				c3.1-8.7-1.7-10.9-1.7-10.9s2.2-2,2.1-10.6c-0.1-8.6-8.8-24.9-12.6-29.8c-3.8-4.9-3.9-8.9-3.9-8.9s-0.8-2.3,3.5-4.2
				c4.3-1.9,7.7,2.5,7.7,2.5s4.5-2.2,1-8.2c-3.5-6-10.5-1.6-11.3-0.5s-5-0.7-5-0.7c-3.3,5.3-1.4,14.6-1.4,14.6s0.1,1.1-0.5,1.5
				c-9,1-9.8,5.3-9.8,5.3c7.8,0.7,7.8,5.2,7.8,5.2c-15.8,12.5-6.9,22.4-6.9,22.4s5,4.5,9.6,0c4.6-4.5-2.9-11.2-2.8-11.7
				c0.1-0.6,0.5-0.8,0.5-0.8c14.8-2.7,14.4,11.3,14.4,11.3s-0.9,17.1-17.8,15.6c-13.6-1.2-18.6-21.6-20-29.6l-0.5-3.2v0h7.3v-25.7
				c11.8-3.3,21.4-11.7,26.3-22.7c4.4,4.4,10.4,7.1,17,7.1v-12.3c-6.5,0-11.7-5.3-11.7-11.7C203.3,101,208.5,95.8,215,95.8z
				 M161.4,138v22.4h-23.6c0,0,0,0.1,0,0.1c0,16.7-13.5,30.2-30.2,30.2s-30.2-13.5-30.2-30.2c0,0,0-0.1,0-0.1H53.6V138
				c-16.2-0.6-29.1-13.9-29.1-30.2c0-16.3,12.9-29.6,29.1-30.2V55.2h23.6c0,0,0-0.1,0-0.1c0-16.7,13.5-30.2,30.2-30.2
				s30.2,13.5,30.2,30.2c0,0,0,0.1,0,0.1h23.6v22.4c16.2,0.6,29.1,13.9,29.1,30.2C190.5,124.1,177.5,137.4,161.4,138z"/>
			<path class="st2" d="M58.3,115.5c0.8,0.1,2.8,3.9,2.8,3.9c0.2,0.3,0.7,0.5,1,0.4l27.6-8.1c2.2-0.6,3.8-2,3.8-4.2
				s-1.6-3.6-3.8-4.2l-27.6-8.1c-0.3-0.1-0.8,0.1-1,0.4c0,0-2,3.9-2.8,3.9c-1,0.1-2.7-1.4-2.6-5.8c0.1-8.4,8.6-8.5,8.7-8.5
				c-1-3.5-4.3-6.1-8.1-6.1c-4.7,0-8.5,3.8-8.5,8.5c0,0.8,0.1,1.6,0.3,2.4c-0.1,0,1.5,4.5,3.7,7.5c0.4,0.1,0.7,0.2,1,0.3
				c4.2,1.3,4.2,18.2,0,19.5c-0.3,0.1-0.7,0.2-1,0.3c-2.2,3-3.8,7.5-3.7,7.5c-0.2,0.7-0.3,1.5-0.3,2.4c0,4.7,3.8,8.5,8.5,8.5
				c3.8,0,7.1-2.6,8.1-6.1c-0.1,0-8.6-0.1-8.7-8.5C55.6,116.9,57.3,115.4,58.3,115.5z"/>
			<path class="st2" d="M162.1,97.8c0.3-0.1,0.7-0.2,1-0.3c2.2-3,3.8-7.5,3.7-7.5c0.2-0.7,0.3-1.5,0.3-2.4c0-4.7-3.8-8.5-8.5-8.5
				c-3.8,0-7.1,2.6-8.1,6.1c0.1,0,8.6,0.1,8.7,8.5c0.1,4.5-1.7,5.9-2.6,5.8c-0.8-0.1-2.8-3.9-2.8-3.9c-0.2-0.3-0.7-0.5-1-0.4
				l-27.6,8.1c-2.2,0.6-3.8,2-3.8,4.2s1.6,3.6,3.8,4.2l27.6,8.1c0.3,0.1,0.8-0.1,1-0.4c0,0,2-3.9,2.8-3.9c1-0.1,2.7,1.4,2.6,5.8
				c-0.1,8.4-8.6,8.5-8.7,8.5c1,3.5,4.3,6.1,8.1,6.1c4.7,0,8.5-3.8,8.5-8.5c0-0.8-0.1-1.6-0.3-2.4c0.1,0-1.5-4.5-3.7-7.5
				c-0.4-0.1-0.7-0.2-1-0.3C157.9,116,157.9,99.1,162.1,97.8z"/>
			<path class="st2" d="M129.8,150.6c0,0.1-0.1,8.6-8.5,8.7c-4.5,0.1-5.9-1.7-5.8-2.6c0.1-0.8,3.9-2.8,3.9-2.8
				c0.3-0.2,0.5-0.7,0.4-1l-8.1-27.6c-0.6-2.2-2-3.8-4.2-3.8s-3.6,1.6-4.2,3.8l-8.1,27.6c-0.1,0.3,0.1,0.8,0.4,1c0,0,3.9,2,3.9,2.8
				c0.1,1-1.4,2.7-5.8,2.6c-8.4-0.1-8.5-8.6-8.5-8.7c-3.5,1-6.1,4.3-6.1,8.1c0,4.7,3.8,8.5,8.5,8.5c0.8,0,1.6-0.1,2.4-0.3
				c0,0.1,4.5-1.5,7.5-3.7c0.1-0.4,0.2-0.7,0.3-1c1.3-4.2,18.2-4.2,19.5,0c0.1,0.3,0.2,0.7,0.3,1c3,2.2,7.5,3.8,7.5,3.7
				c0.7,0.2,1.5,0.3,2.4,0.3c4.7,0,8.5-3.8,8.5-8.5C135.9,154.9,133.3,151.7,129.8,150.6z"/>
			<path class="st2" d="M85.2,64.4c0-0.1,0.1-8.6,8.5-8.7c4.5-0.1,5.9,1.7,5.8,2.6c-0.1,0.8-3.9,2.8-3.9,2.8c-0.3,0.2-0.5,0.7-0.4,1
				l8.1,27.6c0.6,2.2,2,3.8,4.2,3.8s3.6-1.6,4.2-3.8l8.1-27.6c0.1-0.3-0.1-0.8-0.4-1c0,0-3.9-2-3.9-2.8c-0.1-1,1.4-2.7,5.8-2.6
				c8.4,0.1,8.5,8.6,8.5,8.7c3.5-1,6.1-4.3,6.1-8.1c0-4.7-3.8-8.5-8.5-8.5c-0.8,0-1.6,0.1-2.4,0.3c0-0.1-4.5,1.5-7.5,3.7
				c-0.1,0.4-0.2,0.7-0.3,1c-1.3,4.2-18.2,4.2-19.5,0c-0.1-0.3-0.2-0.7-0.3-1c-3-2.2-7.5-3.8-7.5-3.7c-0.7-0.2-1.5-0.3-2.4-0.3
				c-4.7,0-8.5,3.8-8.5,8.5C79.1,60.1,81.7,63.3,85.2,64.4z"/>
		</g>
	</g>
</g>
</svg>
