<?xml version="1.0" encoding="utf-8"?>
<!-- Generator: Adobe Illustrator 21.0.2, SVG Export Plug-In . SVG Version: 6.00 Build 0)  -->
<svg version="1.1" id="Camada_1" xmlns="http://www.w3.org/2000/svg" xmlns:xlink="http://www.w3.org/1999/xlink" x="0px" y="0px"
	 viewBox="0 0 215 215" style="enable-background:new 0 0 215 215;" xml:space="preserve">
<style type="text/css">
	.st0{opacity:0.5;}
	.st1{fill:#D0AE36;}
	.st2{fill:#4F4C3F;}
</style>
<g id="Novo_símbolo">
	<g>
		<g class="st0">
			<path class="st1" d="M63.5,27.7c0,0-7.1,3.5-7.2,10.4c-0.1,6.9,12,10.1,10.4,16.7c0,0,5.9-2.5,2-8.3c0,0,1.2-0.2,1.3-2.3
				c0.1-2.1-4.8-2-4.8-2s3.6-1.7,2.7-4.4c0,0-2.2,2.8-4.7,1c-2.5-1.8-4.5-6.7,2.2-9.9L63.5,27.7z"/>
			<path class="st1" d="M28,63.2c0,0,3.5-7.1,10.4-7.2c6.9-0.1,10.1,12,16.7,10.4c0,0-2.5,5.9-8.3,2c0,0-0.2,1.2-2.3,1.3
				c-2.1,0.1-2-4.8-2-4.8s-1.7,3.6-4.4,2.7c0,0,2.8-2.2,1-4.7c-1.8-2.5-6.7-4.5-9.9,2.2L28,63.2z"/>
			<path class="st1" d="M20.6,24.4c0,0,5.1,6,2.5,12.4c-2.6,6.3-15,4.6-16.2,11.2c0,0-4.5-4.7,1.4-8.5c0,0-1.1-0.7-0.3-2.6
				c0.7-2,5.2,0.1,5.2,0.1s-2.6-2.9-0.8-5.1c0,0,0.9,3.5,3.9,2.8c3-0.7,6.8-4.4,1.9-10L20.6,24.4z"/>
			<path class="st1" d="M24.8,20.3c0,0,6,5.1,12.4,2.5c6.3-2.6,4.6-15,11.2-16.2c0,0-4.7-4.5-8.5,1.4c0,0-0.7-1.1-2.6-0.3
				c-2,0.7,0.1,5.2,0.1,5.2s-2.9-2.6-5.1-0.8c0,0,3.5,0.9,2.8,3.9c-0.7,3-4.4,6.8-10,1.9L24.8,20.3z"/>
			<path class="st1" d="M151.5,27.7c0,0,7.1,3.5,7.2,10.4c0.1,6.9-12,10.1-10.4,16.7c0,0-5.9-2.5-2-8.3c0,0-1.2-0.2-1.3-2.3
				c-0.1-2.1,4.8-2,4.8-2s-3.6-1.7-2.7-4.4c0,0,2.2,2.8,4.7,1c2.5-1.8,4.5-6.7-2.2-9.9L151.5,27.7z"/>
			<path class="st1" d="M187,63.2c0,0-3.5-7.1-10.4-7.2c-6.9-0.1-10.1,12-16.7,10.4c0,0,2.5,5.9,8.3,2c0,0,0.2,1.2,2.3,1.3
				c2.1,0.1,2-4.8,2-4.8s1.7,3.6,4.4,2.7c0,0-2.8-2.2-1-4.7c1.8-2.5,6.7-4.5,9.9,2.2L187,63.2z"/>
			<path class="st1" d="M194.4,24.4c0,0-5.1,6-2.5,12.4c2.6,6.3,15,4.6,16.2,11.2c0,0,4.5-4.7-1.4-8.5c0,0,1.1-0.7,0.3-2.6
				c-0.7-2-5.2,0.1-5.2,0.1s2.6-2.9,0.8-5.1c0,0-0.9,3.5-3.9,2.8c-3-0.7-6.8-4.4-1.9-10L194.4,24.4z"/>
			<path class="st1" d="M190.2,20.3c0,0-6,5.1-12.4,2.5c-6.3-2.6-4.6-15-11.2-16.2c0,0,4.7-4.5,8.5,1.4c0,0,0.7-1.1,2.6-0.3
				c2,0.7-0.1,5.2-0.1,5.2s2.9-2.6,5.1-0.8c0,0-3.5,0.9-2.8,3.9c0.7,3,4.4,6.8,10,1.9L190.2,20.3z"/>
			<path class="st1" d="M63.5,187.3c0,0-7.1-3.5-7.2-10.4c-0.1-6.9,12-10.1,10.4-16.7c0,0,5.9,2.5,2,8.3c0,0,1.2,0.2,1.3,2.3
				c0.1,2.1-4.8,2-4.8,2s3.6,1.7,2.7,4.4c0,0-2.2-2.8-4.7-1c-2.5,1.8-4.5,6.7,2.2,9.9L63.5,187.3z"/>
			<path class="st1" d="M28,151.8c0,0,3.5,7.1,10.4,7.2c6.9,0.1,10.1-12,16.7-10.4c0,0-2.5-5.9-8.3-2c0,0-0.2-1.2-2.3-1.3
				c-2.1-0.1-2,4.8-2,4.8s-1.7-3.6-4.4-2.7c0,0,2.8,2.2,1,4.7c-1.8,2.5-6.7,4.5-9.9-2.2L28,151.8z"/>
			<path class="st1" d="M24.8,194.7c0,0,6-5.1,12.4-2.5c6.3,2.6,4.6,15,11.2,16.2c0,0-4.7,4.5-8.5-1.4c0,0-0.7,1.1-2.6,0.3
				c-2-0.7,0.1-5.2,0.1-5.2s-2.9,2.6-5.1,0.8c0,0,3.5-0.9,2.8-3.9c-0.7-3-4.4-6.8-10-1.9L24.8,194.7z"/>
			<path class="st1" d="M151.5,187.3c0,0,7.1-3.5,7.2-10.4c0.1-6.9-12-10.1-10.4-16.7c0,0-5.9,2.5-2,8.3c0,0-1.2,0.2-1.3,2.3
				c-0.1,2.1,4.8,2,4.8,2s-3.6,1.7-2.7,4.4c0,0,2.2-2.8,4.7-1c2.5,1.8,4.5,6.7-2.2,9.9L151.5,187.3z"/>
			<path class="st1" d="M187,151.8c0,0-3.5,7.1-10.4,7.2c-6.9,0.1-10.1-12-16.7-10.4c0,0,2.5-5.9,8.3-2c0,0,0.2-1.2,2.3-1.3
				c2.1-0.1,2,4.8,2,4.8s1.7-3.6,4.4-2.7c0,0-2.8,2.2-1,4.7c1.8,2.5,6.7,4.5,9.9-2.2L187,151.8z"/>
			<path class="st1" d="M194.4,190.6c0,0-5.1-6-2.5-12.4c2.6-6.3,15-4.6,16.2-11.2c0,0,4.5,4.7-1.4,8.5c0,0,1.1,0.7,0.3,2.6
				c-0.7,2-5.2-0.1-5.2-0.1s2.6,2.9,0.8,5.1c0,0-0.9-3.5-3.9-2.8c-3,0.7-6.8,4.4-1.9,10L194.4,190.6z"/>
			<path class="st1" d="M190.2,194.7c0,0-6-5.1-12.4-2.5c-6.3,2.6-4.6,15-11.2,16.2c0,0,4.7,4.5,8.5-1.4c0,0,0.7,1.1,2.6,0.3
				c2-0.7-0.1-5.2-0.1-5.2s2.9,2.6,5.1,0.8c0,0-3.5-0.9-2.8-3.9c0.7-3,4.4-6.8,10-1.9L190.2,194.7z"/>
			<g>
				<path class="st1" d="M82.4,66.6c-6.7,1.3-5,6.9-5,6.9c-2.7-6.3-7.4-4.5-8-4.3c0,0,0,0,0,0c0,0,0,0,0,0c-0.2,0.6-2,5.3,4.3,8
					c0,0-5.7-1.7-6.9,5c0,0,8-2.7,18.3,2.6c0,0,0.2,0.1,0.1,0.1c0,0-0.1-0.1-0.1-0.1C79.6,74.5,82.4,66.6,82.4,66.6z"/>
			</g>
			<g>
				<path class="st1" d="M66.7,133.1c1.3,6.7,6.9,5,6.9,5c-6.3,2.7-4.5,7.4-4.3,8c0,0,0,0,0,0c0,0,0,0,0,0c0.6,0.2,5.3,2,8-4.3
					c0,0-1.7,5.7,5,6.9c0,0-2.7-8,2.6-18.3c0,0,0.1-0.2,0.1-0.1c0,0-0.1,0.1-0.1,0.1C74.6,135.8,66.7,133.1,66.7,133.1z"/>
			</g>
			<g>
				<path class="st1" d="M133.2,148.8c6.7-1.3,5-6.9,5-6.9c2.7,6.3,7.4,4.5,8,4.3c0,0,0,0,0,0c0,0,0,0,0,0c0.2-0.6,2-5.3-4.3-8
					c0,0,5.7,1.7,6.9-5c0,0-8,2.7-18.3-2.6c0,0-0.2-0.1-0.1-0.1c0,0,0.1,0.1,0.1,0.1C135.9,140.8,133.2,148.8,133.2,148.8z"/>
			</g>
			<g>
				<path class="st1" d="M148.9,82.3c-1.3-6.7-6.9-5-6.9-5c6.3-2.7,4.5-7.4,4.3-8c0,0,0,0,0,0c0,0,0,0,0,0c-0.6-0.2-5.3-2-8,4.3
					c0,0,1.7-5.7-5-6.9c0,0,2.7,8-2.7,18.3c0,0-0.1,0.2-0.1,0.1c0,0,0.1-0.1,0.1-0.1C140.9,79.5,148.9,82.3,148.9,82.3z"/>
			</g>
			
				<ellipse transform="matrix(1 -4.870688e-03 4.870688e-03 1 -0.5231 0.5262)" class="st1" cx="107.8" cy="107.7" rx="9.6" ry="9.6"/>
			<path class="st1" d="M147.1,77.9c-1.1-0.9-2.3-1.1-3.6-1c0.2-0.2,0.5-0.3,0.7-0.5c1.1-0.8,1.9-1.8,2.5-3c0.4-0.8,0.8-3.2,0-4.2
				c0-0.1,0-0.1-0.1-0.2c-1.2-1.2-3.8-0.7-5.1,0c-0.9,0.5-2.2,1.7-2.8,2.8c0-1.3-0.6-2.5-1.4-3.4c-0.9-1-2.6-2.5-4.1-2.1
				c0,0,0,0,0,0c0,0,0,0,0,0c-0.2,0-0.2,0.2-0.1,0.3c0,0,0,0,0,0c0,0,0,0,0,0c0,0,0.1,0.1,0.1,0.1c0,0-0.1,0-0.1,0
				c0,0,0.1,0.1,0.2,0.3c0.4,0.8,0.4,1.7,0.5,2.6c0.2,1.4-0.1,2.9-0.1,4.3c0,2.2-0.6,4.3-1.3,6.4c0,0.1,0.1,0.1,0.1,0
				c0.8-2,1.6-4.1,1.7-6.2c0-1.5,0.2-3,0.2-4.5c0-0.6-0.2-1.3-0.3-1.9c-0.1-0.2-0.4-0.7-0.5-1c0.3,0.1,0.6,0.1,0.9,0.2
				c0.9,0.2,1.7,0.8,2.3,1.5c1.3,1.5,1.4,2.9,1.4,4.8c0,0.3,0.4,0.3,0.4,0.1c0-0.1,0-0.1,0-0.2c0.2-0.2,0.4-0.6,0.6-0.9
				c0.5-0.7,1-1.3,1.5-1.9c1.3-1.5,3.5-1.6,5.2-1.1c0.5,1.3,0.6,2.6,0,4c-0.6,1.3-2.2,3.1-3.6,3.5c-0.1,0-0.1,0.1-0.1,0.1
				c0,0,0,0,0,0s0,0,0,0c-0.1,0-0.2,0.1-0.2,0.2c0,0,0,0,0,0c0,0,0,0,0,0s0,0,0,0c0,0,0,0,0,0c0,0.1,0.1,0.2,0.2,0.2c0,0,0,0,0,0
				c1.7,0.2,3-0.2,4.5,0.8c1.2,0.8,1.7,2.1,2,3.4c-0.9-0.2-1.7-0.4-2.6-0.5c-1.3-0.2-2.7,0-4,0c-2.4,0-5.8,0.8-7.8,2.1
				c0,0,0,0.1,0,0.1c2.5-0.9,5.2-1.3,7.8-1.6c2.3-0.3,4.5,0.2,6.7,0.7c0,0,0.1,0,0.2,0c0,0,0,0,0,0c0.3,0,0.4-0.3,0.3-0.5
				C149.5,80.5,148.1,78.7,147.1,77.9z"/>
			<path class="st1" d="M68.4,77.9c1.1-0.9,2.3-1.1,3.6-1c-0.2-0.2-0.5-0.3-0.7-0.5c-1.1-0.8-1.9-1.8-2.5-3c-0.4-0.8-0.8-3.2,0-4.2
				c0-0.1,0-0.1,0.1-0.2c1.2-1.2,3.8-0.7,5.1,0c0.9,0.5,2.2,1.7,2.8,2.8c0-1.3,0.6-2.5,1.4-3.4c0.9-1,2.6-2.5,4.1-2.1c0,0,0,0,0,0
				c0,0,0,0,0,0c0.2,0,0.2,0.2,0.1,0.3c0,0,0,0,0,0c0,0,0,0,0,0c0,0-0.1,0.1-0.1,0.1c0,0,0.1,0,0.1,0c0,0-0.1,0.1-0.2,0.3
				c-0.4,0.8-0.4,1.7-0.5,2.6C81.7,71.1,82,72.6,82,74c0,2.2,0.6,4.3,1.3,6.4c0,0.1-0.1,0.1-0.1,0c-0.8-2-1.6-4.1-1.7-6.2
				c0-1.5-0.2-3-0.2-4.5c0-0.6,0.2-1.3,0.3-1.9c0.1-0.2,0.4-0.7,0.5-1c-0.3,0.1-0.6,0.1-0.9,0.2c-0.9,0.2-1.7,0.8-2.3,1.5
				c-1.3,1.5-1.4,2.9-1.4,4.8c0,0.3-0.4,0.3-0.4,0.1c0-0.1,0-0.1,0-0.2c-0.2-0.2-0.4-0.6-0.6-0.9c-0.5-0.7-1-1.3-1.5-1.9
				c-1.3-1.5-3.5-1.6-5.2-1.1c-0.5,1.3-0.6,2.6,0,4c0.6,1.3,2.2,3.1,3.6,3.5c0.1,0,0.1,0.1,0.1,0.1c0,0,0,0,0,0c0,0,0,0,0,0
				c0.1,0,0.2,0.1,0.2,0.2c0,0,0,0,0,0c0,0,0,0,0,0c0,0,0,0,0,0c0,0,0,0,0,0c0,0.1-0.1,0.2-0.2,0.2c0,0,0,0,0,0
				c-1.7,0.2-3-0.2-4.5,0.8c-1.2,0.8-1.7,2.1-2,3.4c0.9-0.2,1.7-0.4,2.6-0.5c1.3-0.2,2.7,0,4,0c2.4,0,5.8,0.8,7.8,2.1
				c0,0,0,0.1,0,0.1c-2.5-0.9-5.2-1.3-7.8-1.6c-2.3-0.3-4.5,0.2-6.7,0.7c0,0-0.1,0-0.2,0c0,0,0,0,0,0c-0.3,0-0.4-0.3-0.3-0.5
				C66.1,80.4,67.4,78.7,68.4,77.9z"/>
			<path class="st1" d="M147.2,137.4c-1.1,0.9-2.3,1.1-3.6,1c0.2,0.2,0.5,0.3,0.7,0.5c1.1,0.8,1.9,1.8,2.5,3c0.4,0.8,0.8,3.2,0,4.2
				c0,0.1,0,0.1-0.1,0.2c-1.2,1.2-3.8,0.7-5.1,0c-0.9-0.5-2.2-1.7-2.8-2.8c0,1.3-0.6,2.5-1.4,3.4c-0.9,1-2.6,2.5-4.1,2.1
				c0,0,0,0,0,0c0,0,0,0,0,0c-0.2,0-0.2-0.2-0.1-0.3c0,0,0,0,0,0c0,0,0,0,0,0c0,0,0.1-0.1,0.1-0.1c0,0-0.1,0-0.1,0
				c0,0,0.1-0.1,0.2-0.3c0.4-0.8,0.4-1.7,0.5-2.6c0.2-1.4-0.1-2.9-0.1-4.3c0-2.2-0.6-4.3-1.3-6.4c0-0.1,0.1-0.1,0.1,0
				c0.8,2,1.6,4.1,1.7,6.2c0,1.5,0.2,3,0.2,4.5c0,0.6-0.2,1.3-0.3,1.9c-0.1,0.2-0.4,0.7-0.5,1c0.3-0.1,0.6-0.1,0.9-0.2
				c0.9-0.2,1.7-0.8,2.3-1.5c1.3-1.5,1.4-2.9,1.4-4.8c0-0.3,0.4-0.3,0.4-0.1c0,0.1,0,0.1,0,0.2c0.2,0.2,0.4,0.6,0.6,0.9
				c0.5,0.7,1,1.3,1.5,1.9c1.3,1.5,3.5,1.6,5.2,1.1c0.5-1.3,0.6-2.6,0-4c-0.6-1.3-2.2-3.1-3.6-3.5c-0.1,0-0.1-0.1-0.1-0.1
				c0,0,0,0,0,0c0,0,0,0,0,0c-0.1,0-0.2-0.1-0.2-0.2c0,0,0,0,0,0c0,0,0,0,0,0c0,0,0,0,0,0c0,0,0,0,0,0c0-0.1,0.1-0.2,0.2-0.2
				c0,0,0,0,0,0c1.7-0.2,3,0.2,4.5-0.8c1.2-0.8,1.7-2.1,2-3.4c-0.9,0.2-1.7,0.4-2.6,0.5c-1.3,0.2-2.7,0-4,0c-2.4,0-5.8-0.8-7.8-2.1
				c0,0,0-0.1,0-0.1c2.5,0.9,5.2,1.3,7.8,1.6c2.3,0.3,4.5-0.2,6.7-0.7c0,0,0.1,0,0.2,0c0,0,0,0,0,0c0.3,0,0.4,0.3,0.3,0.5
				C149.5,134.9,148.2,136.6,147.2,137.4z"/>
			<path class="st1" d="M68.4,137.4c1.1,0.9,2.3,1.1,3.6,1c-0.2,0.2-0.5,0.3-0.7,0.5c-1.1,0.8-1.9,1.8-2.5,3c-0.4,0.8-0.8,3.2,0,4.2
				c0,0.1,0,0.1,0.1,0.2c1.2,1.2,3.8,0.7,5.1,0c0.9-0.5,2.2-1.7,2.8-2.8c0,1.3,0.6,2.5,1.4,3.4c0.9,1,2.6,2.5,4.1,2.1c0,0,0,0,0,0
				c0,0,0,0,0,0c0.2,0,0.2-0.2,0.1-0.3c0,0,0,0,0,0c0,0,0,0,0,0c0,0-0.1-0.1-0.1-0.1c0,0,0.1,0,0.1,0c0,0-0.1-0.1-0.2-0.3
				c-0.4-0.8-0.4-1.7-0.5-2.6c-0.2-1.4,0.1-2.9,0.1-4.3c0-2.2,0.6-4.3,1.3-6.4c0-0.1-0.1-0.1-0.1,0c-0.8,2-1.6,4.1-1.7,6.2
				c0,1.5-0.2,3-0.2,4.5c0,0.6,0.2,1.3,0.3,1.9c0.1,0.2,0.4,0.7,0.5,1c-0.3-0.1-0.6-0.1-0.9-0.2c-0.9-0.2-1.7-0.8-2.3-1.5
				c-1.3-1.5-1.4-2.9-1.4-4.8c0-0.3-0.4-0.3-0.4-0.1c0,0.1,0,0.1,0,0.2c-0.2,0.2-0.4,0.6-0.6,0.9c-0.5,0.7-1,1.3-1.5,1.9
				c-1.3,1.5-3.5,1.6-5.2,1.1c-0.5-1.3-0.6-2.6,0-4c0.6-1.3,2.2-3.1,3.6-3.5c0.1,0,0.1-0.1,0.1-0.1c0,0,0,0,0,0c0,0,0,0,0,0
				c0.1,0,0.2-0.1,0.2-0.2c0,0,0,0,0,0c0,0,0,0,0,0s0,0,0,0c0,0,0,0,0,0c0-0.1-0.1-0.2-0.2-0.2c0,0,0,0,0,0c-1.7-0.2-3,0.2-4.5-0.8
				c-1.2-0.8-1.7-2.1-2-3.4c0.9,0.2,1.7,0.4,2.6,0.5c1.3,0.2,2.7,0,4,0c2.4,0,5.8-0.8,7.8-2.1c0,0,0-0.1,0-0.1
				c-2.5,0.9-5.2,1.3-7.8,1.6c-2.3,0.3-4.5-0.2-6.7-0.7c0,0-0.1,0-0.2,0c0,0,0,0,0,0c-0.3,0-0.4,0.3-0.3,0.5
				C66.1,134.8,67.4,136.6,68.4,137.4z"/>
		</g>
		<g>
			<g>
				<path class="st2" d="M3,78.6c0,0-1.4,19,5,25.4c2.5,2.5,5,0.4,4.8-1.3c-0.2-1.7-2.8-4.4,0-5.5c2.8-1.1,4.9,1.2,4.5,2.5
					c0,0,2.8-2.1,7.2-1.5c0,0-2.4,7.1-6.7,9.8C13.7,110.4,3.6,113.6,3,96V78.6z"/>
			</g>
			<path class="st1" d="M0,94.1V72c0,0,2-0.3,2.9,3.7c0,0,3-0.8,3.8,0.6c0.8,1.3,0.2,4.6,0.2,4.6s5.1-0.8,5.3,3.1
				c0.2,3.9-1.5,3.5-2.5,3c-0.9-0.6-2.1-0.4-3.2,1.9C6.6,88.8,5.2,94.3,0,94.1z"/>
		</g>
		<g>
			<g>
				<path class="st2" d="M212,78.6c0,0,1.4,19-5,25.4c-2.5,2.5-5,0.4-4.8-1.3c0.2-1.7,2.8-4.4,0-5.5c-2.8-1.1-4.9,1.2-4.5,2.5
					c0,0-2.8-2.1-7.2-1.5c0,0,2.4,7.1,6.7,9.8c4.1,2.6,14.3,5.8,14.9-11.9V78.6z"/>
			</g>
			<path class="st1" d="M215,94.1V72c0,0-2-0.3-2.9,3.7c0,0-3-0.8-3.8,0.6c-0.8,1.3-0.2,4.6-0.2,4.6s-5.1-0.8-5.3,3.1
				c-0.2,3.9,1.5,3.5,2.5,3c0.9-0.6,2.1-0.4,3.2,1.9C208.4,88.8,209.8,94.3,215,94.1z"/>
		</g>
		<g>
			<g>
				<path class="st2" d="M3,136.4c0,0-1.4-19,5-25.4c2.5-2.5,5-0.4,4.8,1.3c-0.2,1.7-2.8,4.4,0,5.5c2.8,1.1,4.9-1.2,4.5-2.5
					c0,0,2.8,2.1,7.2,1.5c0,0-2.4-7.1-6.7-9.8C13.7,104.6,3.6,101.4,3,119V136.4z"/>
			</g>
			<path class="st1" d="M0,120.9V143c0,0,2,0.3,2.9-3.7c0,0,3,0.8,3.8-0.6c0.8-1.3,0.2-4.6,0.2-4.6s5.1,0.8,5.3-3.1
				c0.2-3.9-1.5-3.5-2.5-3c-0.9,0.6-2.1,0.4-3.2-1.9C6.6,126.2,5.2,120.7,0,120.9z"/>
		</g>
		<g>
			<g>
				<path class="st2" d="M212,136.4c0,0,1.4-19-5-25.4c-2.5-2.5-5-0.4-4.8,1.3c0.2,1.7,2.8,4.4,0,5.5c-2.8,1.1-4.9-1.2-4.5-2.5
					c0,0-2.8,2.1-7.2,1.5c0,0,2.4-7.1,6.7-9.8c4.1-2.6,14.3-5.8,14.9,11.9V136.4z"/>
			</g>
			<path class="st1" d="M215,120.9V143c0,0-2,0.3-2.9-3.7c0,0-3,0.8-3.8-0.6c-0.8-1.3-0.2-4.6-0.2-4.6s-5.1,0.8-5.3-3.1
				c-0.2-3.9,1.5-3.5,2.5-3c0.9,0.6,2.1,0.4,3.2-1.9C208.4,126.2,209.8,120.7,215,120.9z"/>
		</g>
		<g>
			<g>
				<path class="st2" d="M136.4,3c0,0-19-1.4-25.4,5c-2.5,2.5-0.4,5,1.3,4.8c1.7-0.2,4.4-2.8,5.5,0c1.1,2.8-1.2,4.9-2.5,4.5
					c0,0,2.1,2.8,1.5,7.2c0,0-7.1-2.4-9.8-6.7C104.6,13.7,101.4,3.6,119,3H136.4z"/>
			</g>
			<path class="st1" d="M120.9,0H143c0,0,0.3,2-3.7,2.9c0,0,0.8,3-0.6,3.8c-1.3,0.8-4.6,0.2-4.6,0.2s0.8,5.1-3.1,5.3
				c-3.9,0.2-3.5-1.5-3-2.5c0.6-0.9,0.4-2.1-1.9-3.2C126.2,6.6,120.7,5.2,120.9,0z"/>
		</g>
		<g>
			<g>
				<path class="st2" d="M136.4,212c0,0-19,1.4-25.4-5c-2.5-2.5-0.4-5,1.3-4.8c1.7,0.2,4.4,2.8,5.5,0c1.1-2.8-1.2-4.9-2.5-4.5
					c0,0,2.1-2.8,1.5-7.2c0,0-7.1,2.4-9.8,6.7c-2.6,4.1-5.8,14.3,11.9,14.9H136.4z"/>
			</g>
			<path class="st1" d="M120.9,215H143c0,0,0.3-2-3.7-2.9c0,0,0.8-3-0.6-3.8c-1.3-0.8-4.6-0.2-4.6-0.2s0.8-5.1-3.1-5.3
				c-3.9-0.2-3.5,1.5-3,2.5c0.6,0.9,0.4,2.1-1.9,3.2C126.2,208.4,120.7,209.8,120.9,215z"/>
		</g>
		<g>
			<g>
				<path class="st2" d="M78.6,3c0,0,19-1.4,25.4,5c2.5,2.5,0.4,5-1.3,4.8c-1.7-0.2-4.4-2.8-5.5,0c-1.1,2.8,1.2,4.9,2.5,4.5
					c0,0-2.1,2.8-1.5,7.2c0,0,7.1-2.4,9.8-6.7C110.4,13.7,113.6,3.6,96,3H78.6z"/>
			</g>
			<path class="st1" d="M94.1,0H72c0,0-0.3,2,3.7,2.9c0,0-0.8,3,0.6,3.8c1.3,0.8,4.6,0.2,4.6,0.2s-0.8,5.1,3.1,5.3
				c3.9,0.2,3.5-1.5,3-2.5c-0.6-0.9-0.4-2.1,1.9-3.2C88.8,6.6,94.3,5.2,94.1,0z"/>
		</g>
		<g>
			<g>
				<path class="st2" d="M78.6,212c0,0,19,1.4,25.4-5c2.5-2.5,0.4-5-1.3-4.8c-1.7,0.2-4.4,2.8-5.5,0c-1.1-2.8,1.2-4.9,2.5-4.5
					c0,0-2.1-2.8-1.5-7.2c0,0,7.1,2.4,9.8,6.7c2.6,4.1,5.8,14.3-11.9,14.9H78.6z"/>
			</g>
			<path class="st1" d="M94.1,215H72c0,0-0.3-2,3.7-2.9c0,0-0.8-3,0.6-3.8c1.3-0.8,4.6-0.2,4.6-0.2s-0.8-5.1,3.1-5.3
				c3.9-0.2,3.5,1.5,3,2.5c-0.6,0.9-0.4,2.1,1.9,3.2C88.8,208.4,94.3,209.8,94.1,215z"/>
		</g>
		<g>
			<g>
				<g>
					<g>
						<path class="st2" d="M25,71.1c11.8-11.8,4.9-30.3,4.9-30.3s0.4,16.4-8.2,24.6c-2,1.9-3.7,2.2-5.1,1.9c0.5-2.1,0-4.4-1.7-6
							c-2.5-2.5-6.5-2.5-9,0c-1.1,1.1-1.8,2.6-1.8,4.1l0,0C3.5,70.8,13.2,82.9,25,71.1z"/>
					</g>
					<g>
						<g>
							<path class="st2" d="M71.4,24.7c-11.8,11.8-30.3,4.9-30.3,4.9s16.4,0.4,24.6-8.2c1.9-2,2.2-3.7,1.9-5.1c-2.1,0.5-4.4,0-6-1.7
								c-2.5-2.5-2.5-6.5,0-9c1.1-1.1,2.6-1.8,4.1-1.8l0,0C71.1,3.2,83.2,12.9,71.4,24.7z"/>
						</g>
						<path class="st1" d="M20,52.1c5.3-0.1,6.5-4.5,6.7-7.9c1.6,9.2,9.3,10.1,9.3,10.1C38,50.7,33.3,44,33.3,44
							c9.4,12.3,16.9,7,17.5,6.6l0,0c0,0,0,0,0,0c0,0,0,0,0,0l0,0c0.4-0.6,5.7-8.1-6.6-17.5c0,0,6.7,4.7,10.3,2.6
							c0,0-0.9-7.7-10.1-9.3c3.4-0.1,7.8-1.3,7.9-6.7c0,0-0.3-3.6-3.6-3.6c-3.3,0-3.1,5-6.8,5.5C38.2,22,31.6,23.4,23.7,14L19,18.7
							l0,0l-4.7,4.7c9.4,7.9,8,14.6,7.6,18.3c-0.4,3.7-5.5,3.5-5.5,6.8C16.4,51.8,20,52.1,20,52.1z"/>
					</g>
				</g>
				<g>
					<path class="st2" d="M8.2,23.6c1.3-0.3,2.2-1.3,1.3-4.3c0,0-3.2-5.9,1.5-10c4.5-4.3,10.1-0.6,10.1-0.6c2.8,1.1,4,0.3,4.4-0.9
						c0.4-1.3,1.6-3,4.6,0.6c3,3.6-2.2,7-2.2,7s3.1,2.4,3.5,4.2c0.4,1.8-2.9,3.6-2.9,3.6c2.3,4.1,0.6,5.5,0.4,5.6
						c-0.1,0.2-1.7,1.7-5.6-0.9c0,0-2.1,3.1-3.8,2.6c-1.7-0.6-3.8-3.9-3.8-3.9s-3.9,4.8-7.2,1.5C5.1,24.9,6.9,23.9,8.2,23.6z"/>
				</g>
			</g>
		</g>
		<g>
			<g>
				<g>
					<g>
						<path class="st2" d="M190,71.1c-11.8-11.8-4.9-30.3-4.9-30.3s-0.4,16.4,8.2,24.6c2,1.9,3.7,2.2,5.1,1.9c-0.5-2.1,0-4.4,1.7-6
							c2.5-2.5,6.5-2.5,9,0c1.1,1.1,1.8,2.6,1.8,4.1l0,0C211.5,70.8,201.8,82.9,190,71.1z"/>
					</g>
					<g>
						<g>
							<path class="st2" d="M143.6,24.7c11.8,11.8,30.3,4.9,30.3,4.9s-16.4,0.4-24.6-8.2c-1.9-2-2.2-3.7-1.9-5.1
								c2.1,0.5,4.4,0,6-1.7c2.5-2.5,2.5-6.5,0-9c-1.1-1.1-2.6-1.8-4.1-1.8l0,0C143.9,3.2,131.8,12.9,143.6,24.7z"/>
						</g>
						<path class="st1" d="M195,52.1c-5.3-0.1-6.5-4.5-6.7-7.9c-1.6,9.2-9.3,10.1-9.3,10.1c-2.1-3.6,2.6-10.3,2.6-10.3
							c-9.4,12.3-16.9,7-17.5,6.6l0,0c0,0,0,0,0,0c0,0,0,0,0,0l0,0c-0.4-0.6-5.7-8.1,6.6-17.5c0,0-6.7,4.7-10.3,2.6
							c0,0,0.9-7.7,10.1-9.3c-3.4-0.1-7.8-1.3-7.9-6.7c0,0,0.3-3.6,3.6-3.6c3.3,0,3.1,5,6.8,5.5c3.7,0.4,10.4,1.9,18.3-7.6l4.7,4.7
							l0,0l4.7,4.7c-9.4,7.9-8,14.6-7.6,18.3c0.4,3.7,5.5,3.5,5.5,6.8C198.6,51.8,195,52.1,195,52.1z"/>
					</g>
				</g>
				<g>
					<path class="st2" d="M206.8,23.6c-1.3-0.3-2.2-1.3-1.3-4.3c0,0,3.2-5.9-1.5-10c-4.5-4.3-10.1-0.6-10.1-0.6
						c-2.8,1.1-4,0.3-4.4-0.9c-0.4-1.3-1.6-3-4.6,0.6c-3,3.6,2.2,7,2.2,7s-3.1,2.4-3.5,4.2c-0.4,1.8,2.9,3.6,2.9,3.6
						c-2.3,4.1-0.6,5.5-0.4,5.6c0.1,0.2,1.7,1.7,5.6-0.9c0,0,2.1,3.1,3.8,2.6c1.7-0.6,3.8-3.9,3.8-3.9s3.9,4.8,7.2,1.5
						C209.9,24.9,208.1,23.9,206.8,23.6z"/>
				</g>
			</g>
		</g>
		<g>
			<g>
				<g>
					<g>
						<path class="st2" d="M25,143.9c11.8,11.8,4.9,30.3,4.9,30.3s0.4-16.4-8.2-24.6c-2-1.9-3.7-2.2-5.1-1.9c0.5,2.1,0,4.4-1.7,6
							c-2.5,2.5-6.5,2.5-9,0c-1.1-1.1-1.8-2.6-1.8-4.1h0C3.5,144.2,13.2,132.1,25,143.9z"/>
					</g>
					<g>
						<g>
							<path class="st2" d="M71.4,190.3c-11.8-11.8-30.3-4.9-30.3-4.9s16.4-0.4,24.6,8.2c1.9,2,2.2,3.7,1.9,5.1
								c-2.1-0.5-4.4,0-6,1.7c-2.5,2.5-2.5,6.5,0,9c1.1,1.1,2.6,1.8,4.1,1.8l0,0C71.1,211.8,83.2,202.1,71.4,190.3z"/>
						</g>
						<path class="st1" d="M20,162.9c5.3,0.1,6.5,4.5,6.7,7.9c1.6-9.2,9.3-10.1,9.3-10.1c2.1,3.6-2.6,10.3-2.6,10.3
							c9.4-12.3,16.9-7,17.5-6.6l0,0c0,0,0,0,0,0c0,0,0,0,0,0l0,0c0.4,0.5,5.7,8.1-6.6,17.5c0,0,6.7-4.7,10.3-2.6
							c0,0-0.9,7.7-10.1,9.3c3.4,0.1,7.8,1.3,7.9,6.7c0,0-0.3,3.6-3.6,3.6c-3.3,0-3.1-5-6.8-5.5c-3.7-0.4-10.4-1.9-18.3,7.6
							l-4.7-4.7l0,0l-4.7-4.7c9.4-7.9,8-14.6,7.6-18.3c-0.4-3.7-5.5-3.5-5.5-6.8C16.4,163.2,20,162.9,20,162.9z"/>
					</g>
				</g>
				<g>
					<path class="st2" d="M8.2,191.4c1.3,0.3,2.2,1.3,1.3,4.3c0,0-3.2,5.9,1.5,10c4.5,4.3,10.1,0.6,10.1,0.6c2.8-1.1,4-0.3,4.4,0.9
						c0.4,1.3,1.6,3,4.6-0.6c3-3.6-2.2-7-2.2-7s3.1-2.4,3.5-4.2c0.4-1.8-2.9-3.6-2.9-3.6c2.3-4.1,0.6-5.5,0.4-5.6
						c-0.1-0.2-1.7-1.7-5.6,0.9c0,0-2.1-3.1-3.8-2.6c-1.7,0.6-3.8,3.9-3.8,3.9s-3.9-4.8-7.2-1.5C5.1,190.1,6.9,191.1,8.2,191.4z"/>
				</g>
			</g>
		</g>
		<g>
			<g>
				<g>
					<g>
						<path class="st2" d="M190,143.9c-11.8,11.8-4.9,30.3-4.9,30.3s-0.4-16.4,8.2-24.6c2-1.9,3.7-2.2,5.1-1.9c-0.5,2.1,0,4.4,1.7,6
							c2.5,2.5,6.5,2.5,9,0c1.1-1.1,1.8-2.6,1.8-4.1h0C211.5,144.2,201.8,132.1,190,143.9z"/>
					</g>
					<g>
						<g>
							<path class="st2" d="M143.6,190.3c11.8-11.8,30.3-4.9,30.3-4.9s-16.4-0.4-24.6,8.2c-1.9,2-2.2,3.7-1.9,5.1
								c2.1-0.5,4.4,0,6,1.7c2.5,2.5,2.5,6.5,0,9c-1.1,1.1-2.6,1.8-4.1,1.8l0,0C143.9,211.8,131.8,202.1,143.6,190.3z"/>
						</g>
						<path class="st1" d="M195,162.9c-5.3,0.1-6.5,4.5-6.7,7.9c-1.6-9.2-9.3-10.1-9.3-10.1c-2.1,3.6,2.6,10.3,2.6,10.3
							c-9.4-12.3-16.9-7-17.5-6.6l0,0c0,0,0,0,0,0c0,0,0,0,0,0l0,0c-0.4,0.5-5.7,8.1,6.6,17.5c0,0-6.7-4.7-10.3-2.6
							c0,0,0.9,7.7,10.1,9.3c-3.4,0.1-7.8,1.3-7.9,6.7c0,0,0.3,3.6,3.6,3.6c3.3,0,3.1-5,6.8-5.5c3.7-0.4,10.4-1.9,18.3,7.6l4.7-4.7
							l0,0l4.7-4.7c-9.4-7.9-8-14.6-7.6-18.3c0.4-3.7,5.5-3.5,5.5-6.8C198.6,163.2,195,162.9,195,162.9z"/>
					</g>
				</g>
				<g>
					<path class="st2" d="M206.8,191.4c-1.3,0.3-2.2,1.3-1.3,4.3c0,0,3.2,5.9-1.5,10c-4.5,4.3-10.1,0.6-10.1,0.6
						c-2.8-1.1-4-0.3-4.4,0.9c-0.4,1.3-1.6,3-4.6-0.6c-3-3.6,2.2-7,2.2-7s-3.1-2.4-3.5-4.2c-0.4-1.8,2.9-3.6,2.9-3.6
						c-2.3-4.1-0.6-5.5-0.4-5.6c0.1-0.2,1.7-1.7,5.6,0.9c0,0,2.1-3.1,3.8-2.6c1.7,0.6,3.8,3.9,3.8,3.9s3.9-4.8,7.2-1.5
						C209.9,190.1,208.1,191.1,206.8,191.4z"/>
				</g>
			</g>
		</g>
		<g>
			<path class="st2" d="M80.8,48c6.2-1.9,7.5,4.4,10.4,8.5c2.8,4.1,2.5,9.1,9,7.6c6.4-1.4,7.5-22.7,7.5-22.7l0.1-1.8l0.1,1.8
				c0,0,1,21.3,7.5,22.7c6.4,1.4,6.1-3.5,9-7.6c2.8-4.1,4.2-10.4,10.4-8.5c0,0,5.5-8.9-4.3-8.5l-3.1,1.1c0,0-2.4-5.6-6.3-1.9
				c-3.9,3.8-2.1,11.9-4.3,13.2c-2.2,1.4-5.6-2.7-3.3-7.5c2.3-4.7,7.2-13.3,0.8-12.1c0,0-0.7-7.1-6.4-8v0c0,0,0,0,0,0c0,0,0,0,0,0v0
				c-5.7,1-6.4,8-6.4,8c-6.4-1.3-1.5,7.4,0.8,12.1c2.3,4.7-1,8.8-3.3,7.5c-2.2-1.4-0.4-9.4-4.3-13.2c-3.9-3.8-6.3,1.9-6.3,1.9
				l-3.1-1.1C75.4,39.1,80.8,48,80.8,48z"/>
		</g>
		<g>
			<path class="st2" d="M48.1,134.6c-1.9-6.2,4.4-7.5,8.5-10.4c4.1-2.8,9.1-2.5,7.6-9c-1.4-6.4-22.7-7.5-22.7-7.5l-1.8-0.1l1.8-0.1
				c0,0,21.3-1,22.7-7.5c1.4-6.4-3.5-6.1-7.6-9c-4.1-2.8-10.4-4.2-8.5-10.4c0,0-8.9-5.5-8.5,4.3l1.1,3.1c0,0-5.6,2.4-1.9,6.3
				c3.8,3.9,11.9,2.1,13.2,4.3c1.4,2.2-2.7,5.6-7.5,3.3c-4.7-2.3-13.3-7.2-12.1-0.8c0,0-7.1,0.7-8,6.4h0c0,0,0,0,0,0c0,0,0,0,0,0h0
				c1,5.7,8,6.4,8,6.4c-1.3,6.4,7.4,1.5,12.1-0.8c4.7-2.3,8.8,1,7.5,3.3c-1.4,2.2-9.4,0.4-13.2,4.3c-3.8,3.9,1.9,6.3,1.9,6.3
				l-1.1,3.1C39.2,140.1,48.1,134.6,48.1,134.6z"/>
		</g>
		<g>
			<path class="st2" d="M134.7,167.3c-6.2,1.9-7.5-4.4-10.4-8.5c-2.8-4.1-2.5-9.1-9-7.6c-6.4,1.4-7.5,22.7-7.5,22.7l-0.1,1.8
				l-0.1-1.8c0,0-1-21.3-7.5-22.7c-6.4-1.4-6.1,3.5-9,7.6c-2.8,4.1-4.2,10.4-10.4,8.5c0,0-5.5,8.9,4.3,8.5l3.1-1.1
				c0,0,2.4,5.6,6.3,1.9c3.9-3.8,2.1-11.9,4.3-13.2c2.2-1.4,5.6,2.7,3.3,7.5c-2.3,4.7-7.2,13.3-0.8,12.1c0,0,0.7,7.1,6.4,8v0
				c0,0,0,0,0,0c0,0,0,0,0,0v0c5.7-1,6.4-8,6.4-8c6.4,1.3,1.5-7.4-0.8-12.1c-2.3-4.7,1-8.8,3.3-7.5c2.2,1.4,0.4,9.4,4.3,13.2
				c3.9,3.8,6.3-1.9,6.3-1.9l3.1,1.1C140.2,176.2,134.7,167.3,134.7,167.3z"/>
		</g>
		<g>
			<path class="st2" d="M167.4,80.7c1.9,6.2-4.4,7.5-8.5,10.4c-4.1,2.8-9.1,2.5-7.6,9c1.4,6.4,22.7,7.5,22.7,7.5l1.8,0.1l-1.8,0.1
				c0,0-21.3,1-22.7,7.5c-1.4,6.4,3.5,6.1,7.6,9c4.1,2.8,10.4,4.2,8.5,10.4c0,0,8.9,5.5,8.5-4.3l-1.1-3.1c0,0,5.6-2.4,1.9-6.3
				c-3.8-3.9-11.9-2.1-13.2-4.3s2.7-5.6,7.5-3.3c4.7,2.3,13.3,7.2,12.1,0.8c0,0,7.1-0.7,8-6.4h0c0,0,0,0,0,0c0,0,0,0,0,0h0
				c-1-5.7-8-6.4-8-6.4c1.3-6.4-7.4-1.5-12.1,0.8c-4.7,2.3-8.8-1-7.5-3.3c1.4-2.2,9.4-0.4,13.2-4.3c3.8-3.9-1.9-6.3-1.9-6.3l1.1-3.1
				C176.3,75.3,167.4,80.7,167.4,80.7z"/>
		</g>
		<g>
			<path class="st1" d="M79.5,126.5c3.2-1.9,7.3-6.3,7.3-6.3c2.9,4.4,7.5,0.8,7.5,0.8s-2.4-0.3-0.3-4.9c0.7-1.6,2-2.7,3.4-3.4
				c-0.8-1.6-1.2-3.3-1.2-5.1c0-1.8,0.4-3.6,1.2-5.1c-1.4-0.7-2.6-1.8-3.4-3.4c-2.1-4.6,0.3-4.9,0.3-4.9s-4.5-3.6-7.5,0.8
				c0,0-4.1-4.4-7.3-6.3c-3.2-1.9-0.7-5.3-0.7-5.3s-7.1,3.2-5.1,11.6c0,0-2.7-0.3-3.7-2.7c0,0-3.8,4.2-1.1,9.8c0,0-5.8-0.5-10.5,5.5
				c0,0,0,0,0,0c0,0,0,0,0,0c4.8,6,10.5,5.5,10.5,5.5c-2.7,5.6,1.1,9.8,1.1,9.8c1.1-2.4,3.7-2.7,3.7-2.7c-2,8.5,5.1,11.6,5.1,11.6
				S76.3,128.5,79.5,126.5z"/>
			<path class="st1" d="M88.9,79.4c1.9,3.2,6.3,7.3,6.3,7.3c-4.4,2.9-0.8,7.5-0.8,7.5s0.3-2.4,4.9-0.3c1.6,0.7,2.7,2,3.4,3.4
				c1.6-0.8,3.3-1.2,5.1-1.2c1.8,0,3.6,0.4,5.1,1.2c0.7-1.4,1.8-2.6,3.4-3.4c4.6-2.1,4.9,0.3,4.9,0.3s3.6-4.5-0.8-7.5
				c0,0,4.4-4.1,6.3-7.3c1.9-3.2,5.3-0.7,5.3-0.7s-3.2-7.1-11.6-5.1c0,0,0.3-2.7,2.7-3.7c0,0-4.2-3.8-9.8-1.1c0,0,0.5-5.8-5.5-10.5
				c0,0,0,0,0,0c0,0,0,0,0,0c-6,4.8-5.5,10.5-5.5,10.5c-5.6-2.7-9.8,1.1-9.8,1.1c2.4,1.1,2.7,3.7,2.7,3.7c-8.5-2-11.6,5.1-11.6,5.1
				S87,76.2,88.9,79.4z"/>
			<path class="st1" d="M126.7,135.9c-1.9-3.2-6.3-7.3-6.3-7.3c4.4-2.9,0.8-7.5,0.8-7.5s-0.3,2.4-4.9,0.3c-1.6-0.7-2.7-2-3.4-3.4
				c-1.6,0.8-3.3,1.2-5.1,1.2c-1.8,0-3.6-0.4-5.1-1.2c-0.7,1.4-1.8,2.6-3.4,3.4c-4.6,2.1-4.9-0.3-4.9-0.3s-3.6,4.5,0.8,7.5
				c0,0-4.4,4.1-6.3,7.3c-1.9,3.2-5.3,0.7-5.3,0.7s3.2,7.1,11.6,5.1c0,0-0.3,2.7-2.7,3.7c0,0,4.2,3.8,9.8,1.1c0,0-0.5,5.8,5.5,10.5
				c0,0,0,0,0,0c0,0,0,0,0,0c6-4.8,5.5-10.5,5.5-10.5c5.6,2.7,9.8-1.1,9.8-1.1c-2.4-1.1-2.7-3.7-2.7-3.7c8.5,2,11.6-5.1,11.6-5.1
				S128.6,139.1,126.7,135.9z"/>
			<path class="st1" d="M157.2,107.6c-4.8-6-10.5-5.5-10.5-5.5c2.7-5.6-1.1-9.8-1.1-9.8c-1.1,2.4-3.7,2.7-3.7,2.7
				c2-8.5-5.1-11.6-5.1-11.6s2.5,3.4-0.7,5.4c-3.2,1.9-7.3,6.3-7.3,6.3c-2.9-4.4-7.5-0.8-7.5-0.8s2.4,0.3,0.3,4.9
				c-0.7,1.6-2,2.7-3.4,3.4c0.8,1.6,1.2,3.3,1.2,5.1c0,1.8-0.4,3.6-1.2,5.1c1.4,0.7,2.6,1.8,3.4,3.4c2.1,4.6-0.3,4.9-0.3,4.9
				s4.5,3.6,7.5-0.8c0,0,4.1,4.4,7.3,6.3c3.2,1.9,0.7,5.3,0.7,5.3s7.1-3.2,5.1-11.6c0,0,2.7,0.3,3.7,2.7c0,0,3.8-4.2,1.1-9.8
				C146.6,113.2,152.4,113.7,157.2,107.6C157.2,107.7,157.2,107.7,157.2,107.6C157.2,107.7,157.2,107.6,157.2,107.6z"/>
		</g>
	</g>
</g>
</svg>
