<?xml version="1.0" encoding="utf-8"?>
<!-- Generator: Adobe Illustrator 21.0.2, SVG Export Plug-In . SVG Version: 6.00 Build 0)  -->
<svg version="1.1" id="Camada_1" xmlns="http://www.w3.org/2000/svg" xmlns:xlink="http://www.w3.org/1999/xlink" x="0px" y="0px"
	 viewBox="0 0 215 215" style="enable-background:new 0 0 215 215;" xml:space="preserve">
<style type="text/css">
	.st0{fill:#4F4C3F;}
	.st1{fill:#D0AE36;}
</style>
<g>
	<g>
		<g>
			<g>
				<path class="st0" d="M178.3,173c-0.7-1.3-2.1-2.2-3.7-2.2c-2.3,0-4.2,1.9-4.2,4.2c0,1.7,1,3.2,2.5,3.9c-6.7,1.2-5,6.6-5,6.6
					c7.2-3.5,17.5,1.3,18,1.5c0,0-4.5-11.7-1-18.8C184.9,168.1,179.6,166.4,178.3,173z"/>
				<path class="st0" d="M171.3,150.7c-5.2-3.2-6.9,2.3-6.9,2.3c0,0.7-0.5,1.2-1.2,1.3s-1.2-0.5-1.3-1.2c0-0.4,0.2-0.8,0.6-1.1
					c0,0,0.7-0.3,0.8-1.1s-1.4-0.4-0.5-2c0.8-1.5-2-3-2.7-0.3c-0.7,2.7-0.3,3.2-1.8,3.2c0,0-1.9,0.3-2-0.8c-0.2-1.1-1.2-5.7-1.9-5.2
					c-0.7,0.4-1.5,0.9-1.8,2c-0.3,1.2-1,0.2-1.2-0.4c-0.2-0.6-1.2-2.5-2.1-2.6c-0.9-0.1-3.2-0.1-4.1-0.7c-0.9-0.5-1.7-0.8-1.8-1.1
					c0,0-0.8,0-0.4,1.2l0.5,0.4c0.2,0.3,0.4,0.8,0.6,1.3c0.5,1,0.4,3.3,0.5,4.2c0.1,0.9,1.9,2,2.5,2.2c0.6,0.2,1.5,1,0.3,1.2
					s-1.7,1-2.1,1.7c-0.5,0.7,4,1.9,5.1,2.1c1.1,0.2,0.7,2,0.7,2c-0.1,1.5-0.6,1.1-3.3,1.6c-2.7,0.5-1.4,3.4,0.2,2.7s1.1,0.7,2,0.6
					s1.2-0.7,1.2-0.7c0.2-0.4,0.7-0.6,1.1-0.5c0.7,0.1,1.2,0.6,1.1,1.3s-0.6,1.2-1.3,1.1c0,0-5.6,1.4-2.6,6.8c0,0,1.5-2.8,4.6-2.1
					c2.9,0.6,6.1,0.2,7.4-2.1c0.7,1.4,2.1,2.4,3.8,2.4c2.4,0,4.3-1.9,4.3-4.3c0-1.8-1.1-3.3-2.6-3.9c2-1.3,2.4-4.3,2-7
					C168.5,152,171.3,150.7,171.3,150.7z"/>
				<g>
					<polygon class="st0" points="107.5,107.5 107.5,114 114,107.5 					"/>
				</g>
				<g>
					<path class="st0" d="M121,125.3c-1.1,1-2.4,1.7-3.8,2c-1.5,0.3-3.2,0.2-4.7-0.8c-1.5-1-2.4-2.6-2.6-4.1c-0.2-1.5,0-3,0.7-4.3
						c0.6,1.3,1,2.6,1.6,3.6c0.6,1,1.2,1.8,2,2.3c0.8,0.5,1.8,0.8,3,1C118.3,125.1,119.6,125.1,121,125.3z"/>
					<path class="st0" d="M126.7,120.2c-0.4-1.4-0.7-2.7-1-3.8c-0.4-1.1-0.8-2.1-1.4-2.8c-0.6-0.7-1.5-1.2-2.6-1.6
						c-1.1-0.4-2.4-0.6-3.8-1c1.2-0.9,2.6-1.4,4.1-1.4c1.5,0,3.3,0.6,4.5,1.9c1.2,1.3,1.6,3,1.6,4.5
						C127.9,117.6,127.5,119,126.7,120.2z"/>
					<path class="st0" d="M117.7,112.3c0.5,0.6,1,1.2,1.4,1.9c0.4,0.7,0.8,1.4,1.2,2.1c0.4,0.7,0.7,1.5,1.1,2.2
						c0.3,0.8,0.6,1.6,0.4,2.9c-1.3,0.2-2.2-0.1-2.9-0.4c-0.7-0.4-1.5-0.7-2.2-1.1c-0.7-0.4-1.4-0.8-2.1-1.3
						c-0.7-0.4-1.3-0.9-1.9-1.4L117.7,112.3z"/>
				</g>
				<path class="st0" d="M167.8,215.2c0,0,0.8-2.9,3.9-3.7s6.3,1.6,6.3,1.6s0.7,0.4,1.3-0.3c0.6-0.6-1.4-2.3-1.4-2.3s-2-1.8-1.8-3.2
					s0.9-0.8,0.9-0.8s0.8,0.6,3,0.9c4.2,0.5,6.8-1.5,13.2,1.9c4.3,2.3,5.6,5.9,5.6,5.9H167.8z"/>
				<path class="st0" d="M215.2,169.9c0,0-2.9,0.8-3.7,3.9s1.6,6.3,1.6,6.3s0.4,0.7-0.3,1.3c-0.6,0.6-2.3-1.4-2.3-1.4
					s-1.8-2-3.2-1.8s-0.8,0.9-0.8,0.9s0.6,0.8,0.9,3c0.5,4.2-1.5,6.8,1.9,13.2c2.3,4.3,5.9,5.6,5.9,5.6V169.9z"/>
				<path class="st0" d="M173.6,206.9"/>
				<g>
					<polygon class="st0" points="115.8,205 107.5,196.8 107.5,197 107.5,213.1 107.5,213.2 					"/>
					<polygon class="st0" points="109.7,215.2 125.9,215.2 117.8,207 					"/>
				</g>
				<g>
					<polygon class="st0" points="213.2,107.5 196.8,107.5 205,115.7 					"/>
					<polygon class="st0" points="215.2,109.5 207,117.7 215.2,125.9 215.2,125.7 215.2,109.7 					"/>
				</g>
				<g>
					<polygon class="st0" points="215.2,215.2 215.2,214.7 214.6,215.2 					"/>
				</g>
			</g>
			<g>
				<path class="st0" d="M173,36.7c-1.3,0.7-2.2,2.1-2.2,3.7c0,2.3,1.9,4.2,4.2,4.2c1.7,0,3.2-1,3.9-2.5c1.2,6.7,6.6,5,6.6,5
					c-3.5-7.2,1.3-17.5,1.5-18c0,0-11.7,4.5-18.8,1C168.1,30.1,166.4,35.4,173,36.7z"/>
				<path class="st0" d="M150.7,43.7c-3.2,5.2,2.3,6.9,2.3,6.9c0.7,0,1.2,0.5,1.3,1.2s-0.5,1.2-1.2,1.3c-0.4,0-0.8-0.2-1.1-0.6
					c0,0-0.3-0.7-1.1-0.8s-0.4,1.4-2,0.5c-1.5-0.8-3,2-0.3,2.7c2.7,0.7,3.2,0.3,3.2,1.8c0,0,0.3,1.9-0.8,2c-1.1,0.2-5.7,1.2-5.2,1.9
					c0.4,0.7,0.9,1.5,2,1.8c1.2,0.3,0.2,1-0.4,1.2c-0.6,0.2-2.5,1.2-2.6,2.1c-0.1,0.9-0.1,3.2-0.7,4.1c-0.5,0.9-0.8,1.7-1.1,1.8
					c0,0,0,0.8,1.2,0.4l0.4-0.5c0.3-0.2,0.8-0.4,1.3-0.6c1-0.5,3.3-0.4,4.2-0.5c0.9-0.1,2-1.9,2.2-2.5c0.2-0.6,1-1.5,1.2-0.3
					s1,1.7,1.7,2.1c0.7,0.5,1.9-4,2.1-5.1c0.2-1.1,2-0.7,2-0.7c1.5,0.1,1.1,0.6,1.6,3.3c0.5,2.7,3.4,1.4,2.7-0.2s0.7-1.1,0.6-2
					s-0.7-1.2-0.7-1.2c-0.4-0.2-0.6-0.7-0.5-1.1c0.1-0.7,0.6-1.2,1.3-1.1s1.2,0.6,1.1,1.3c0,0,1.4,5.6,6.8,2.6c0,0-2.8-1.5-2.1-4.6
					c0.6-2.9,0.2-6.1-2.1-7.4c1.4-0.7,2.4-2.1,2.4-3.8c0-2.4-1.9-4.3-4.3-4.3c-1.8,0-3.3,1.1-3.9,2.6c-1.3-2-4.3-2.4-7-2
					C152,46.5,150.7,43.7,150.7,43.7z"/>
				<g>
					<polygon class="st0" points="107.5,107.5 114,107.5 107.5,101 					"/>
				</g>
				<g>
					<path class="st0" d="M125.3,94c1,1.1,1.7,2.4,2,3.8c0.3,1.5,0.2,3.2-0.8,4.7c-1,1.5-2.6,2.4-4.1,2.6c-1.5,0.2-3,0-4.3-0.7
						c1.3-0.6,2.6-1,3.6-1.6c1-0.6,1.8-1.2,2.3-2c0.5-0.8,0.8-1.8,1-3C125.1,96.7,125.1,95.4,125.3,94z"/>
					<path class="st0" d="M120.2,88.3c-1.4,0.4-2.7,0.7-3.8,1c-1.1,0.4-2.1,0.8-2.8,1.4c-0.7,0.6-1.2,1.5-1.6,2.6
						c-0.4,1.1-0.6,2.4-1,3.8c-0.9-1.2-1.4-2.6-1.4-4.1c0-1.5,0.6-3.3,1.9-4.5c1.3-1.2,3-1.6,4.5-1.6
						C117.6,87.1,119,87.5,120.2,88.3z"/>
					<path class="st0" d="M112.3,97.3c0.6-0.5,1.2-1,1.9-1.4c0.7-0.4,1.4-0.8,2.1-1.2c0.7-0.4,1.5-0.7,2.2-1.1
						c0.8-0.3,1.6-0.6,2.9-0.4c0.2,1.3-0.1,2.2-0.4,2.9c-0.4,0.7-0.7,1.5-1.1,2.2c-0.4,0.7-0.8,1.4-1.3,2.1
						c-0.4,0.7-0.9,1.3-1.4,1.9L112.3,97.3z"/>
				</g>
				<path class="st0" d="M215.2,47.2c0,0-2.9-0.8-3.7-3.9s1.6-6.3,1.6-6.3s0.4-0.7-0.3-1.3c-0.6-0.6-2.3,1.4-2.3,1.4s-1.8,2-3.2,1.8
					s-0.8-0.9-0.8-0.9s0.6-0.8,0.9-3c0.5-4.2-1.5-6.8,1.9-13.2c2.3-4.3,5.9-5.6,5.9-5.6V47.2z"/>
				<path class="st0" d="M169.9-0.2c0,0,0.8,2.9,3.9,3.7s6.3-1.6,6.3-1.6s0.7-0.4,1.3,0.3c0.6,0.6-1.4,2.3-1.4,2.3s-2,1.8-1.8,3.2
					s0.9,0.8,0.9,0.8s0.8-0.6,3-0.9c4.2-0.5,6.8,1.5,13.2-1.9c4.3-2.3,5.6-5.9,5.6-5.9H169.9z"/>
				<g>
					<polygon class="st0" points="205,99.2 196.8,107.5 197,107.5 213.1,107.5 213.2,107.5 					"/>
					<polygon class="st0" points="215.2,105.3 215.2,89.1 207,97.2 					"/>
				</g>
				<g>
					<polygon class="st0" points="107.5,1.8 107.5,18.2 115.7,10 					"/>
					<polygon class="st0" points="109.5,-0.2 117.7,8 125.9,-0.2 125.7,-0.2 109.7,-0.2 					"/>
				</g>
				<g>
					<polygon class="st0" points="215.2,-0.2 214.7,-0.2 215.2,0.4 					"/>
				</g>
			</g>
			<g>
				<path class="st0" d="M36.7,42c0.7,1.3,2.1,2.2,3.7,2.2c2.3,0,4.2-1.9,4.2-4.2c0-1.7-1-3.2-2.5-3.9c6.7-1.2,5-6.6,5-6.6
					c-7.2,3.5-17.5-1.3-18-1.5c0,0,4.5,11.7,1,18.8C30.1,46.9,35.4,48.6,36.7,42z"/>
				<path class="st0" d="M43.7,64.3c5.2,3.2,6.9-2.3,6.9-2.3c0-0.7,0.5-1.2,1.2-1.3s1.2,0.5,1.3,1.2c0,0.4-0.2,0.8-0.6,1.1
					c0,0-0.7,0.3-0.8,1.1c-0.1,0.9,1.4,0.4,0.5,2c-0.8,1.5,2,3,2.7,0.3c0.7-2.7,0.3-3.2,1.8-3.2c0,0,1.9-0.3,2,0.8
					c0.2,1.1,1.2,5.7,1.9,5.2c0.7-0.4,1.5-0.9,1.8-2c0.3-1.2,1-0.2,1.2,0.4c0.2,0.6,1.2,2.5,2.1,2.6c0.9,0.1,3.2,0.1,4.1,0.7
					c0.9,0.5,1.7,0.8,1.8,1.1c0,0,0.8,0,0.4-1.2l-0.5-0.4c-0.2-0.3-0.4-0.8-0.6-1.3c-0.5-1-0.4-3.3-0.5-4.2c-0.1-0.9-1.9-2-2.5-2.3
					c-0.6-0.2-1.5-1-0.3-1.2s1.7-1,2.1-1.7c0.5-0.7-4-1.9-5.1-2.1c-1.1-0.2-0.7-2-0.7-2c0.1-1.5,0.6-1.1,3.3-1.6
					c2.7-0.5,1.4-3.4-0.2-2.7s-1.1-0.7-2-0.6s-1.2,0.7-1.2,0.7c-0.2,0.4-0.7,0.6-1.1,0.5c-0.7-0.1-1.2-0.6-1.1-1.3s0.6-1.2,1.3-1.1
					c0,0,5.6-1.4,2.6-6.8c0,0-1.5,2.8-4.6,2.1c-2.9-0.6-6.1-0.2-7.4,2.1c-0.7-1.4-2.1-2.4-3.8-2.4c-2.4,0-4.3,1.9-4.3,4.3
					c0,1.8,1.1,3.3,2.6,3.9c-2,1.3-2.4,4.3-2,7C46.5,63,43.7,64.3,43.7,64.3z"/>
				<g>
					<polygon class="st0" points="107.5,107.5 107.5,101 101,107.5 					"/>
				</g>
				<g>
					<path class="st0" d="M94,89.7c1.1-1,2.4-1.7,3.8-2c1.5-0.3,3.2-0.2,4.7,0.8c1.5,1,2.4,2.6,2.6,4.1c0.2,1.5,0,3-0.7,4.3
						c-0.6-1.3-1-2.6-1.6-3.6c-0.6-1-1.2-1.8-2-2.3c-0.8-0.5-1.8-0.8-3-1C96.7,89.9,95.4,89.9,94,89.7z"/>
					<path class="st0" d="M88.3,94.8c0.4,1.4,0.7,2.7,1,3.8c0.4,1.1,0.8,2.1,1.4,2.8c0.6,0.7,1.5,1.2,2.6,1.6c1.1,0.4,2.4,0.6,3.8,1
						c-1.2,0.9-2.6,1.4-4.1,1.4c-1.5,0-3.3-0.6-4.5-1.9c-1.2-1.3-1.6-3-1.6-4.5C87.1,97.4,87.5,96,88.3,94.8z"/>
					<path class="st0" d="M97.3,102.7c-0.5-0.6-1-1.2-1.4-1.9c-0.4-0.7-0.8-1.4-1.2-2.1c-0.4-0.7-0.7-1.5-1.1-2.2
						c-0.3-0.8-0.6-1.6-0.4-2.9c1.3-0.2,2.2,0.1,2.9,0.4c0.7,0.4,1.5,0.7,2.2,1.1c0.7,0.4,1.4,0.8,2.1,1.3c0.7,0.4,1.3,0.9,1.9,1.4
						L97.3,102.7z"/>
				</g>
				<path class="st0" d="M47.2-0.2c0,0-0.8,2.9-3.9,3.7s-6.3-1.6-6.3-1.6s-0.7-0.4-1.3,0.3c-0.6,0.6,1.4,2.3,1.4,2.3s2,1.8,1.8,3.2
					S38,8.5,38,8.5s-0.8-0.6-3-0.9c-4.2-0.5-6.8,1.5-13.2-1.9c-4.3-2.3-5.6-5.9-5.6-5.9H47.2z"/>
				<path class="st0" d="M-0.2,45.1c0,0,2.9-0.8,3.7-3.9s-1.6-6.3-1.6-6.3s-0.4-0.7,0.3-1.3C2.8,33,4.5,35,4.5,35s1.8,2,3.2,1.8
					s0.8-0.9,0.8-0.9s-0.6-0.8-0.9-3c-0.5-4.2,1.5-6.8-1.9-13.2c-2.3-4.3-5.9-5.6-5.9-5.6V45.1z"/>
				<path class="st0" d="M41.4,8.1"/>
				<g>
					<polygon class="st0" points="99.2,10 107.5,18.2 107.5,18 107.5,1.9 107.5,1.8 					"/>
					<polygon class="st0" points="105.3,-0.2 89.1,-0.2 97.2,8 					"/>
				</g>
				<g>
					<polygon class="st0" points="1.8,107.5 18.2,107.5 10,99.3 					"/>
					<polygon class="st0" points="-0.2,105.5 8,97.3 -0.2,89.1 -0.2,89.3 -0.2,105.3 					"/>
				</g>
				<g>
					<polygon class="st0" points="-0.2,-0.2 -0.2,0.3 0.4,-0.2 					"/>
				</g>
			</g>
			<g>
				<path class="st0" d="M42,178.3c1.3-0.7,2.2-2.1,2.2-3.7c0-2.3-1.9-4.2-4.2-4.2c-1.7,0-3.2,1-3.9,2.5c-1.2-6.7-6.6-5-6.6-5
					c3.5,7.2-1.3,17.5-1.5,18c0,0,11.7-4.5,18.8-1C46.9,184.9,48.6,179.6,42,178.3z"/>
				<path class="st0" d="M64.3,171.3c3.2-5.2-2.3-6.9-2.3-6.9c-0.7,0-1.2-0.5-1.3-1.2s0.5-1.2,1.2-1.3c0.4,0,0.8,0.2,1.1,0.6
					c0,0,0.3,0.7,1.1,0.8c0.9,0.1,0.4-1.4,2-0.5c1.5,0.8,3-2,0.3-2.7c-2.7-0.7-3.2-0.3-3.2-1.8c0,0-0.3-1.9,0.8-2
					c1.1-0.2,5.7-1.2,5.2-1.9c-0.4-0.7-0.9-1.5-2-1.8c-1.2-0.3-0.2-1,0.4-1.2c0.6-0.2,2.5-1.2,2.6-2.1c0.1-0.9,0.1-3.2,0.7-4.1
					c0.5-0.9,0.8-1.7,1.1-1.8c0,0,0-0.8-1.2-0.4l-0.4,0.5c-0.3,0.2-0.8,0.4-1.3,0.6c-1,0.5-3.3,0.4-4.2,0.5c-0.9,0.1-2,1.9-2.3,2.5
					c-0.2,0.6-1,1.5-1.2,0.3s-1-1.7-1.7-2.1c-0.7-0.5-1.9,4-2.1,5.1c-0.2,1.1-2,0.7-2,0.7c-1.5-0.1-1.1-0.6-1.6-3.3
					c-0.5-2.7-3.4-1.4-2.7,0.2s-0.7,1.1-0.6,2s0.7,1.2,0.7,1.2c0.4,0.2,0.6,0.7,0.5,1.1c-0.1,0.7-0.6,1.2-1.3,1.1s-1.2-0.6-1.1-1.3
					c0,0-1.4-5.6-6.8-2.6c0,0,2.8,1.5,2.1,4.6c-0.6,2.9-0.2,6.1,2.1,7.4c-1.4,0.7-2.4,2.1-2.4,3.8c0,2.4,1.9,4.3,4.3,4.3
					c1.8,0,3.3-1.1,3.9-2.6c1.3,2,4.3,2.4,7,2C63,168.5,64.3,171.3,64.3,171.3z"/>
				<g>
					<polygon class="st0" points="107.5,107.5 101,107.5 107.5,114 					"/>
				</g>
				<g>
					<path class="st0" d="M89.7,121c-1-1.1-1.7-2.4-2-3.8c-0.3-1.5-0.2-3.2,0.8-4.7c1-1.5,2.6-2.4,4.1-2.6c1.5-0.2,3,0,4.3,0.7
						c-1.3,0.6-2.6,1-3.6,1.6c-1,0.6-1.8,1.2-2.3,2c-0.5,0.8-0.8,1.8-1,3C89.9,118.3,89.9,119.6,89.7,121z"/>
					<path class="st0" d="M94.8,126.7c1.4-0.4,2.7-0.7,3.8-1c1.1-0.4,2.1-0.8,2.8-1.4c0.7-0.6,1.2-1.5,1.6-2.6
						c0.4-1.1,0.6-2.4,1-3.8c0.9,1.2,1.4,2.6,1.4,4.1c0,1.5-0.6,3.3-1.9,4.5c-1.3,1.2-3,1.6-4.5,1.6C97.4,127.9,96,127.5,94.8,126.7
						z"/>
					<path class="st0" d="M102.7,117.7c-0.6,0.5-1.2,1-1.9,1.4c-0.7,0.4-1.4,0.8-2.1,1.2c-0.7,0.4-1.5,0.7-2.2,1.1
						c-0.8,0.3-1.6,0.6-2.9,0.4c-0.2-1.3,0.1-2.2,0.4-2.9c0.4-0.7,0.7-1.5,1.1-2.2c0.4-0.7,0.8-1.4,1.3-2.1c0.4-0.7,0.9-1.3,1.4-1.9
						L102.7,117.7z"/>
				</g>
				<path class="st0" d="M-0.2,167.8c0,0,2.9,0.8,3.7,3.9s-1.6,6.3-1.6,6.3s-0.4,0.7,0.3,1.3c0.6,0.6,2.3-1.4,2.3-1.4s1.8-2,3.2-1.8
					s0.8,0.9,0.8,0.9s-0.6,0.8-0.9,3c-0.5,4.2,1.5,6.8-1.9,13.2c-2.3,4.3-5.9,5.6-5.9,5.6L-0.2,167.8z"/>
				<path class="st0" d="M45.1,215.2c0,0-0.8-2.9-3.9-3.7s-6.3,1.6-6.3,1.6s-0.7,0.4-1.3-0.3c-0.6-0.6,1.4-2.3,1.4-2.3
					s2-1.8,1.8-3.2s-0.9-0.8-0.9-0.8s-0.8,0.6-3,0.9c-4.2,0.5-6.8-1.5-13.2,1.9c-4.3,2.3-5.6,5.9-5.6,5.9H45.1z"/>
				<path class="st0" d="M8.1,173.6"/>
				<g>
					<polygon class="st0" points="10,115.8 18.2,107.5 18,107.5 1.9,107.5 1.8,107.5 					"/>
					<polygon class="st0" points="-0.2,109.7 -0.2,125.9 8,117.8 					"/>
				</g>
				<g>
					<polygon class="st0" points="107.5,213.2 107.5,196.8 99.3,205 					"/>
					<polygon class="st0" points="105.5,215.2 97.3,207 89.1,215.2 89.3,215.2 105.3,215.2 					"/>
				</g>
				<g>
					<polygon class="st0" points="-0.2,215.2 0.3,215.2 -0.2,214.6 					"/>
				</g>
			</g>
		</g>
	</g>
</g>
<g>
	<g>
		<path class="st1" d="M112.6,134.3c-3.5-0.8-5.1-4.6-5.1-4.6v0c0,0-1.6,3.8-5.1,4.6c-3.5,0.8-8.7,2.9-9.5,8.5c0,0,3.4,3.9,9.7-0.4
			c0,0,1.9,0.2,0.8,1.7s-6.8,4.1-6.8,10.1c0,0,4.1,2.2,6.7-2.9c0,0,1.4-0.6,0.6,1.3s-2.7,5.4,3.8,8v0c6.4-2.6,4.6-6.1,3.8-8
			s0.6-1.3,0.6-1.3c2.6,5.1,6.7,2.9,6.7,2.9c-0.1-6-5.7-8.6-6.8-10.1s0.8-1.7,0.8-1.7c6.3,4.3,9.7,0.4,9.7,0.4
			C121.3,137.3,116.1,135.2,112.6,134.3z"/>
		<path class="st1" d="M160.5,107.5c-2.6-6.4-6.1-4.6-8-3.8s-1.3-0.6-1.3-0.6c5.1-2.6,2.9-6.7,2.9-6.7c-6,0.1-8.6,5.7-10.1,6.8
			s-1.7-0.8-1.7-0.8c4.3-6.3,0.4-9.7,0.4-9.7c-5.5,0.8-7.6,6-8.5,9.5c-0.8,3.5-4.6,5.1-4.6,5.1h0c0,0,3.8,1.6,4.6,5.1
			c0.8,3.5,2.9,8.7,8.5,9.5c0,0,3.9-3.4-0.4-9.7c0,0,0.2-1.9,1.7-0.8s4.1,6.8,10.1,6.8c0,0,2.2-4.1-2.9-6.7c0,0-0.6-1.4,1.3-0.6
			S157.9,113.9,160.5,107.5L160.5,107.5z"/>
		<path class="st1" d="M112.4,72.6c0,0-1.9-0.2-0.8-1.7s6.8-4.1,6.8-10.1c0,0-4.1-2.2-6.7,2.9c0,0-1.4,0.6-0.6-1.3
			c0.8-1.9,2.7-5.4-3.8-8v0c-6.4,2.6-4.6,6.1-3.8,8c0.8,1.9-0.6,1.3-0.6,1.3c-2.6-5.1-6.7-2.9-6.7-2.9c0.1,6,5.7,8.6,6.8,10.1
			s-0.8,1.7-0.8,1.7c-6.3-4.3-9.7-0.4-9.7-0.4c0.8,5.5,6,7.6,9.5,8.5c3.5,0.8,5.1,4.6,5.1,4.6v0c0,0,1.6-3.8,5.1-4.6
			s8.7-2.9,9.5-8.5C122.1,72.2,118.8,68.3,112.4,72.6z"/>
		<path class="st1" d="M80.6,102.4c-0.8-3.5-2.9-8.7-8.5-9.5c0,0-3.9,3.4,0.4,9.7c0,0-0.2,1.9-1.7,0.8s-4.1-6.8-10.1-6.8
			c0,0-2.2,4.1,2.9,6.7c0,0,0.6,1.4-1.3,0.6c-1.9-0.8-5.4-2.7-8,3.8h0c2.6,6.4,6.1,4.6,8,3.8c1.9-0.8,1.3,0.6,1.3,0.6
			c-5.1,2.6-2.9,6.7-2.9,6.7c6-0.1,8.6-5.7,10.1-6.8s1.7,0.8,1.7,0.8c-4.3,6.3-0.4,9.7-0.4,9.7c5.5-0.8,7.6-6,8.5-9.5
			s4.6-5.1,4.6-5.1h0C85.2,107.5,81.5,105.9,80.6,102.4z"/>
	</g>
	<path class="st1" d="M192.7,144.2c3.4,0.5,6.6-1.8,7.1-5.2c0.4-2.3-0.6-4.5-2.2-5.8c3.5,1.2,8.1,3.7,10.1,8.7
		c5,12.8-10.2,27.4-10.4,27.5l-0.1,0.2l-2.4,2.7l3.4,2.1l1.9-2.2c1.4-1.4,17.1-16.8,11.3-31.8c-4.2-10.7-17-12.2-17.5-12.2l-0.8-0.1
		l-0.6,0.5c-0.5,0.4-4.9,3.9-5.2,8.3c-0.1,1.1,0.1,2.2,0.6,3.2C188.6,142.2,190.4,143.8,192.7,144.2z"/>
	<path class="st1" d="M206.9,41.4"/>
	<path class="st1" d="M197.7,45.4l0.1,0.2c0.2,0.1,15.7,14.4,10.9,27.3c-1.9,5.1-6.5,7.6-10,8.9c1.6-1.4,2.5-3.6,2.1-5.9
		c-0.6-3.4-3.8-5.6-7.2-5c-2.3,0.4-4.1,2-4.8,4.1c-0.4,1-0.6,2.1-0.5,3.3c0.4,4.5,4.9,7.9,5.4,8.2l0.6,0.5l0.8-0.1
		c0.5-0.1,13.3-1.8,17.3-12.5c5.6-15.1-10.4-30.3-11.8-31.6l-1.9-2.1l-3.4,2.2L197.7,45.4z"/>
	<path class="st1" d="M178.4,19.8l-2.1,3.4c5.7,2.9,14.1-0.9,21.7-6.2c-5.2,7.7-8.9,16.1-5.8,21.7l3.4-2.2
		c-3.3-7.1,9.6-23.9,19.7-34V0.4l-0.6-0.6l-2.8,0C201.9,10,185.6,23,178.4,19.8z"/>
	<path class="st1" d="M144.2,22.3c0.5-3.4-1.8-6.6-5.2-7.1c-2.3-0.4-4.5,0.6-5.8,2.2c1.2-3.5,3.7-8.1,8.7-10.1
		c12.8-5,27.4,10.2,27.5,10.4l0.2,0.1l2.7,2.4l2.1-3.4l-2.2-1.9c-1.4-1.4-16.8-17.1-31.8-11.3c-10.7,4.2-12.2,17-12.2,17.5l-0.1,0.8
		l0.5,0.6c0.4,0.5,3.9,4.9,8.3,5.2c1.1,0.1,2.2-0.1,3.2-0.6C142.2,26.4,143.8,24.6,144.2,22.3z"/>
	<path class="st1" d="M45.4,17.3l0.2-0.1C45.6,17,59.9,1.5,72.9,6.3c5.1,1.9,7.6,6.5,8.9,10c-1.4-1.6-3.6-2.5-5.9-2.1
		c-3.4,0.6-5.6,3.8-5,7.2c0.4,2.3,2,4.1,4.1,4.8c1,0.4,2.1,0.6,3.3,0.5c4.5-0.4,7.9-4.9,8.2-5.4l0.5-0.6l-0.1-0.8
		C86.7,19.3,85,6.5,74.2,2.5C59.2-3.1,44,12.9,42.6,14.4l-2.1,1.9l2.2,3.4L45.4,17.3z"/>
	<path class="st1" d="M19.8,36.6l3.4,2.1c2.9-5.7-0.9-14.1-6.2-21.7c7.7,5.2,16.1,8.9,21.7,5.8l-2.2-3.4c-7.1,3.3-23.9-9.6-34-19.7
		H0.4l-0.6,0.6v2.8C10,13.1,23,29.4,19.8,36.6z"/>
	<path class="st1" d="M22.3,70.8c-3.4-0.5-6.6,1.8-7.1,5.2c-0.4,2.3,0.6,4.5,2.2,5.8c-3.5-1.2-8.1-3.7-10.1-8.7
		c-5-12.8,10.2-27.4,10.4-27.5l0.1-0.2l2.4-2.7l-3.4-2.1l-1.9,2.2C13.4,44.1-2.3,59.5,3.5,74.5c4.2,10.7,17,12.2,17.5,12.2l0.8,0.1
		l0.6-0.5c0.5-0.4,4.9-3.9,5.2-8.3c0.1-1.1-0.1-2.2-0.6-3.2C26.4,72.8,24.6,71.2,22.3,70.8z"/>
	<path class="st1" d="M17.3,169.6l-0.1-0.2c-0.2-0.1-15.7-14.4-10.9-27.3c1.9-5.1,6.5-7.6,10-8.9c-1.6,1.4-2.5,3.6-2.1,5.9
		c0.6,3.4,3.8,5.6,7.2,5c2.3-0.4,4.1-2,4.8-4.1c0.4-1,0.6-2.1,0.5-3.3c-0.4-4.5-4.9-7.9-5.4-8.2l-0.6-0.5l-0.8,0.1
		c-0.5,0.1-13.3,1.8-17.3,12.5c-5.6,15.1,10.4,30.3,11.8,31.6l1.9,2.1l3.4-2.2L17.3,169.6z"/>
	<path class="st1" d="M169.6,197.7l-0.2,0.1c-0.1,0.2-14.4,15.7-27.3,10.9c-5.1-1.9-7.6-6.5-8.9-10c1.4,1.6,3.6,2.5,5.9,2.1
		c3.4-0.6,5.6-3.8,5-7.2c-0.4-2.3-2-4.1-4.1-4.8c-1-0.4-2.1-0.6-3.3-0.5c-4.5,0.4-7.9,4.9-8.2,5.4l-0.5,0.6l0.1,0.8
		c0.1,0.5,1.8,13.3,12.5,17.3c15.1,5.6,30.3-10.4,31.6-11.8l2.1-1.9l-2.2-3.4L169.6,197.7z"/>
	<path class="st1" d="M195.2,178.4l-3.4-2.1c-2.9,5.7,0.9,14.1,6.2,21.7c-7.7-5.2-16.1-8.9-21.7-5.8l2.2,3.4
		c7.1-3.3,23.9,9.6,34,19.7h2.2l0.6-0.6v-2.8C205,201.9,192,185.6,195.2,178.4z"/>
	<path class="st1" d="M36.6,195.2l2.1-3.4c-5.7-2.9-14.1,0.9-21.7,6.2c5.2-7.7,8.9-16.1,5.8-21.7l-3.4,2.2c3.3,7.1-9.6,23.9-19.7,34
		v2.2l0.6,0.6h2.8C13.1,205,29.4,192,36.6,195.2z"/>
	<path class="st1" d="M70.8,192.7c-0.5,3.4,1.8,6.6,5.2,7.1c2.3,0.4,4.5-0.6,5.8-2.2c-1.2,3.5-3.7,8.1-8.7,10.1
		c-12.8,5-27.4-10.2-27.5-10.4l-0.2-0.1l-2.7-2.4l-2.1,3.4l2.2,1.9c1.4,1.4,16.8,17.1,31.8,11.3c10.7-4.2,12.2-17,12.2-17.5l0.1-0.8
		l-0.5-0.6c-0.4-0.5-3.9-4.9-8.3-5.2c-1.1-0.1-2.2,0.1-3.2,0.6C72.8,188.6,71.2,190.4,70.8,192.7z"/>
</g>
</svg>
